G75*
%MOIN*%
%OFA0B0*%
%FSLAX25Y25*%
%IPPOS*%
%LPD*%
%AMOC8*
5,1,8,0,0,1.08239X$1,22.5*
%
%ADD10R,0.07400X0.07400*%
%ADD11C,0.07400*%
%ADD12C,0.06000*%
%ADD13C,0.06800*%
%ADD14OC8,0.07100*%
%ADD15C,0.07100*%
%ADD16C,0.06000*%
%ADD17R,0.08200X0.08200*%
%ADD18C,0.08200*%
%ADD19C,0.11824*%
%ADD20C,0.17800*%
D10*
X0251300Y0139500D03*
D11*
X0241300Y0139500D03*
X0231300Y0139500D03*
X0221300Y0139500D03*
X0211300Y0139500D03*
X0201300Y0139500D03*
X0191300Y0139500D03*
X0181300Y0139500D03*
X0171300Y0139500D03*
X0161300Y0139500D03*
X0151300Y0139500D03*
X0141300Y0139500D03*
X0131300Y0139500D03*
X0121300Y0139500D03*
X0121300Y0109500D03*
X0131300Y0109500D03*
X0141300Y0109500D03*
X0151300Y0109500D03*
X0161300Y0109500D03*
X0171300Y0109500D03*
X0181300Y0109500D03*
X0191300Y0109500D03*
X0201300Y0109500D03*
X0211300Y0109500D03*
X0221300Y0109500D03*
X0231300Y0109500D03*
X0241300Y0109500D03*
X0251300Y0109500D03*
D12*
X0176800Y0155500D03*
X0157800Y0155500D03*
D13*
X0103200Y0216700D02*
X0103200Y0222700D01*
X0085400Y0222700D02*
X0085400Y0216700D01*
X0085400Y0242300D02*
X0085400Y0248300D01*
X0103200Y0248300D02*
X0103200Y0242300D01*
X0171300Y0240500D02*
X0171300Y0234500D01*
X0181300Y0234500D02*
X0181300Y0240500D01*
X0191300Y0240500D02*
X0191300Y0234500D01*
X0201300Y0234500D02*
X0201300Y0240500D01*
X0211300Y0240500D02*
X0211300Y0234500D01*
X0221300Y0234500D02*
X0221300Y0240500D01*
X0231300Y0240500D02*
X0231300Y0234500D01*
X0241300Y0234500D02*
X0241300Y0240500D01*
X0026300Y0192500D02*
X0020300Y0192500D01*
X0020300Y0182500D02*
X0026300Y0182500D01*
X0111300Y0020500D02*
X0111300Y0014500D01*
X0121300Y0014500D02*
X0121300Y0020500D01*
X0131300Y0020500D02*
X0131300Y0014500D01*
X0141300Y0014500D02*
X0141300Y0020500D01*
X0151300Y0020500D02*
X0151300Y0014500D01*
X0161300Y0014500D02*
X0161300Y0020500D01*
X0171300Y0020500D02*
X0171300Y0014500D01*
X0181300Y0014500D02*
X0181300Y0020500D01*
X0191300Y0020500D02*
X0191300Y0014500D01*
X0201300Y0014500D02*
X0201300Y0020500D01*
X0211300Y0020500D02*
X0211300Y0014500D01*
X0221300Y0014500D02*
X0221300Y0020500D01*
X0231300Y0020500D02*
X0231300Y0014500D01*
X0241300Y0014500D02*
X0241300Y0020500D01*
X0251300Y0020500D02*
X0251300Y0014500D01*
X0271300Y0014500D02*
X0271300Y0020500D01*
X0281300Y0020500D02*
X0281300Y0014500D01*
X0291300Y0014500D02*
X0291300Y0020500D01*
X0301300Y0020500D02*
X0301300Y0014500D01*
X0311300Y0014500D02*
X0311300Y0020500D01*
X0321300Y0020500D02*
X0321300Y0014500D01*
X0331300Y0014500D02*
X0331300Y0020500D01*
D14*
X0090300Y0085500D03*
X0090300Y0126500D03*
X0090300Y0172500D03*
D15*
X0090300Y0162500D03*
X0090300Y0116500D03*
X0090300Y0075500D03*
D16*
X0038300Y0155900D02*
X0038300Y0161100D01*
X0028300Y0161100D02*
X0028300Y0155900D01*
X0018300Y0155900D02*
X0018300Y0161100D01*
D17*
X0091316Y0187524D03*
D18*
X0019300Y0026500D03*
X0029300Y0026500D03*
X0029300Y0036500D03*
X0019300Y0036500D03*
X0019300Y0046500D03*
X0029300Y0046500D03*
X0029300Y0056500D03*
X0019300Y0056500D03*
X0019300Y0066500D03*
X0029300Y0066500D03*
X0101316Y0187524D03*
X0111316Y0187524D03*
X0121316Y0187524D03*
X0131316Y0187524D03*
X0141316Y0187524D03*
X0151316Y0187524D03*
X0161316Y0187524D03*
X0171316Y0187524D03*
X0181316Y0187524D03*
X0191316Y0187524D03*
X0201316Y0187524D03*
X0211316Y0187524D03*
X0221316Y0187524D03*
X0231316Y0187524D03*
X0241316Y0187524D03*
X0281300Y0237500D03*
X0291300Y0237500D03*
X0301300Y0237500D03*
X0311300Y0237500D03*
X0321300Y0237500D03*
X0331300Y0237500D03*
D19*
X0364938Y0187524D03*
X0364938Y0065476D03*
X0069662Y0065476D03*
X0069662Y0187524D03*
D20*
X0047426Y0213996D03*
X0059237Y0232500D03*
X0035615Y0232500D03*
M02*
