G75*
%MOIN*%
%OFA0B0*%
%FSLAX25Y25*%
%IPPOS*%
%LPD*%
%AMOC8*
5,1,8,0,0,1.08239X$1,22.5*
%
%ADD10C,0.00500*%
%ADD11C,0.00400*%
%ADD12R,0.00900X0.00300*%
%ADD13R,0.01500X0.00300*%
%ADD14R,0.02100X0.00300*%
%ADD15R,0.02700X0.00300*%
%ADD16R,0.03000X0.00300*%
%ADD17R,0.03300X0.00300*%
%ADD18R,0.03600X0.00300*%
%ADD19R,0.03900X0.00300*%
%ADD20R,0.00300X0.00300*%
%ADD21R,0.04200X0.00300*%
%ADD22R,0.00600X0.00300*%
%ADD23R,0.04500X0.00300*%
%ADD24R,0.04800X0.00300*%
%ADD25R,0.05100X0.00300*%
%ADD26R,0.01200X0.00300*%
%ADD27R,0.05400X0.00300*%
%ADD28R,0.05700X0.00300*%
%ADD29R,0.01800X0.00300*%
%ADD30R,0.06000X0.00300*%
%ADD31R,0.06300X0.00300*%
%ADD32R,0.02400X0.00300*%
%ADD33R,0.06600X0.00300*%
%ADD34R,0.17400X0.00300*%
%ADD35R,0.13500X0.00300*%
%ADD36R,0.17700X0.00300*%
%ADD37R,0.13800X0.00300*%
%ADD38R,0.18000X0.00300*%
%ADD39R,0.14100X0.00300*%
%ADD40R,0.18300X0.00300*%
%ADD41R,0.14400X0.00300*%
%ADD42C,0.00600*%
%ADD43C,0.00300*%
%ADD44C,0.00800*%
%ADD45C,0.01600*%
%ADD46C,0.00200*%
%ADD47C,0.01200*%
%ADD48R,0.03000X0.03400*%
D10*
X0044546Y0031522D02*
X0048299Y0031522D01*
X0049050Y0032273D01*
X0049050Y0033774D01*
X0048299Y0034525D01*
X0044546Y0034525D01*
X0045297Y0036126D02*
X0046047Y0036126D01*
X0046798Y0036877D01*
X0046798Y0038378D01*
X0047549Y0039129D01*
X0048299Y0039129D01*
X0049050Y0038378D01*
X0049050Y0036877D01*
X0048299Y0036126D01*
X0045297Y0036126D02*
X0044546Y0036877D01*
X0044546Y0038378D01*
X0045297Y0039129D01*
X0044546Y0040730D02*
X0044546Y0042982D01*
X0045297Y0043733D01*
X0046047Y0043733D01*
X0046798Y0042982D01*
X0046798Y0040730D01*
X0049050Y0040730D02*
X0044546Y0040730D01*
X0046798Y0042982D02*
X0047549Y0043733D01*
X0048299Y0043733D01*
X0049050Y0042982D01*
X0049050Y0040730D01*
X0046798Y0045334D02*
X0046798Y0048337D01*
X0046798Y0049938D02*
X0046798Y0052941D01*
X0046047Y0052941D02*
X0049050Y0052941D01*
X0048299Y0054542D02*
X0049050Y0055293D01*
X0049050Y0056794D01*
X0048299Y0057545D01*
X0047549Y0057545D01*
X0046798Y0056794D01*
X0046798Y0055293D01*
X0046047Y0054542D01*
X0045297Y0054542D01*
X0044546Y0055293D01*
X0044546Y0056794D01*
X0045297Y0057545D01*
X0044546Y0059146D02*
X0044546Y0061398D01*
X0045297Y0062149D01*
X0046798Y0062149D01*
X0047549Y0061398D01*
X0047549Y0059146D01*
X0049050Y0059146D02*
X0044546Y0059146D01*
X0046047Y0052941D02*
X0044546Y0051439D01*
X0046047Y0049938D01*
X0049050Y0049938D01*
X0053050Y0018375D02*
X0053050Y0014625D01*
X0053644Y0011754D02*
X0055896Y0011754D01*
X0056647Y0011003D01*
X0056647Y0009502D01*
X0055896Y0008751D01*
X0053644Y0008751D01*
X0053644Y0007250D02*
X0053644Y0011754D01*
X0058248Y0011003D02*
X0058248Y0008001D01*
X0058999Y0007250D01*
X0060500Y0007250D01*
X0061251Y0008001D01*
X0061251Y0011003D01*
X0060500Y0011754D01*
X0058999Y0011754D01*
X0058248Y0011003D01*
X0062852Y0011754D02*
X0062852Y0007250D01*
X0064353Y0008751D01*
X0065855Y0007250D01*
X0065855Y0011754D01*
X0073050Y0014625D02*
X0073050Y0018375D01*
X0073644Y0011754D02*
X0075896Y0011754D01*
X0076647Y0011003D01*
X0076647Y0009502D01*
X0075896Y0008751D01*
X0073644Y0008751D01*
X0073644Y0007250D02*
X0073644Y0011754D01*
X0078248Y0011754D02*
X0080500Y0011754D01*
X0081251Y0011003D01*
X0081251Y0010253D01*
X0080500Y0009502D01*
X0078248Y0009502D01*
X0078248Y0007250D02*
X0078248Y0011754D01*
X0080500Y0009502D02*
X0081251Y0008751D01*
X0081251Y0008001D01*
X0080500Y0007250D01*
X0078248Y0007250D01*
X0082852Y0008001D02*
X0083603Y0007250D01*
X0085104Y0007250D01*
X0085855Y0008001D01*
X0085855Y0009502D01*
X0085104Y0010253D01*
X0084353Y0010253D01*
X0082852Y0009502D01*
X0082852Y0011754D01*
X0085855Y0011754D01*
X0108546Y0025750D02*
X0108546Y0028002D01*
X0109297Y0028753D01*
X0110798Y0028753D01*
X0111549Y0028002D01*
X0111549Y0025750D01*
X0113050Y0025750D02*
X0108546Y0025750D01*
X0108546Y0030354D02*
X0108546Y0032606D01*
X0109297Y0033356D01*
X0110047Y0033356D01*
X0110798Y0032606D01*
X0110798Y0030354D01*
X0113050Y0030354D02*
X0108546Y0030354D01*
X0110798Y0032606D02*
X0111549Y0033356D01*
X0112299Y0033356D01*
X0113050Y0032606D01*
X0113050Y0030354D01*
X0112299Y0034958D02*
X0109297Y0034958D01*
X0108546Y0035708D01*
X0108546Y0037210D01*
X0109297Y0037960D01*
X0112299Y0034958D01*
X0113050Y0035708D01*
X0113050Y0037210D01*
X0112299Y0037960D01*
X0109297Y0037960D01*
X0118546Y0036459D02*
X0123050Y0036459D01*
X0123050Y0034958D02*
X0123050Y0037960D01*
X0120047Y0034958D02*
X0118546Y0036459D01*
X0119297Y0033356D02*
X0120047Y0033356D01*
X0120798Y0032606D01*
X0120798Y0030354D01*
X0120798Y0028753D02*
X0121549Y0028002D01*
X0121549Y0025750D01*
X0123050Y0025750D02*
X0118546Y0025750D01*
X0118546Y0028002D01*
X0119297Y0028753D01*
X0120798Y0028753D01*
X0118546Y0030354D02*
X0118546Y0032606D01*
X0119297Y0033356D01*
X0120798Y0032606D02*
X0121549Y0033356D01*
X0122299Y0033356D01*
X0123050Y0032606D01*
X0123050Y0030354D01*
X0118546Y0030354D01*
X0128546Y0030354D02*
X0128546Y0032606D01*
X0129297Y0033356D01*
X0130047Y0033356D01*
X0130798Y0032606D01*
X0130798Y0030354D01*
X0130798Y0028753D02*
X0129297Y0028753D01*
X0128546Y0028002D01*
X0128546Y0025750D01*
X0133050Y0025750D01*
X0131549Y0025750D02*
X0131549Y0028002D01*
X0130798Y0028753D01*
X0133050Y0030354D02*
X0128546Y0030354D01*
X0130798Y0032606D02*
X0131549Y0033356D01*
X0132299Y0033356D01*
X0133050Y0032606D01*
X0133050Y0030354D01*
X0133050Y0034958D02*
X0130047Y0037960D01*
X0129297Y0037960D01*
X0128546Y0037210D01*
X0128546Y0035708D01*
X0129297Y0034958D01*
X0133050Y0034958D02*
X0133050Y0037960D01*
X0138546Y0037210D02*
X0138546Y0035708D01*
X0139297Y0034958D01*
X0139297Y0033356D02*
X0140047Y0033356D01*
X0140798Y0032606D01*
X0140798Y0030354D01*
X0140798Y0028753D02*
X0141549Y0028002D01*
X0141549Y0025750D01*
X0143050Y0025750D02*
X0138546Y0025750D01*
X0138546Y0028002D01*
X0139297Y0028753D01*
X0140798Y0028753D01*
X0138546Y0030354D02*
X0138546Y0032606D01*
X0139297Y0033356D01*
X0140798Y0032606D02*
X0141549Y0033356D01*
X0142299Y0033356D01*
X0143050Y0032606D01*
X0143050Y0030354D01*
X0138546Y0030354D01*
X0142299Y0034958D02*
X0143050Y0035708D01*
X0143050Y0037210D01*
X0142299Y0037960D01*
X0141549Y0037960D01*
X0140798Y0037210D01*
X0140798Y0036459D01*
X0140798Y0037210D02*
X0140047Y0037960D01*
X0139297Y0037960D01*
X0138546Y0037210D01*
X0148546Y0037210D02*
X0150798Y0034958D01*
X0150798Y0037960D01*
X0153050Y0037210D02*
X0148546Y0037210D01*
X0149297Y0033356D02*
X0148546Y0032606D01*
X0148546Y0030354D01*
X0153050Y0030354D01*
X0153050Y0032606D01*
X0152299Y0033356D01*
X0151549Y0033356D01*
X0150798Y0032606D01*
X0150798Y0030354D01*
X0150798Y0028753D02*
X0151549Y0028002D01*
X0151549Y0025750D01*
X0153050Y0025750D02*
X0148546Y0025750D01*
X0148546Y0028002D01*
X0149297Y0028753D01*
X0150798Y0028753D01*
X0150798Y0032606D02*
X0150047Y0033356D01*
X0149297Y0033356D01*
X0158546Y0032606D02*
X0158546Y0030354D01*
X0163050Y0030354D01*
X0163050Y0032606D01*
X0162299Y0033356D01*
X0161549Y0033356D01*
X0160798Y0032606D01*
X0160798Y0030354D01*
X0160798Y0028753D02*
X0159297Y0028753D01*
X0158546Y0028002D01*
X0158546Y0025750D01*
X0163050Y0025750D01*
X0161549Y0025750D02*
X0161549Y0028002D01*
X0160798Y0028753D01*
X0160798Y0032606D02*
X0160047Y0033356D01*
X0159297Y0033356D01*
X0158546Y0032606D01*
X0158546Y0034958D02*
X0160798Y0034958D01*
X0160047Y0036459D01*
X0160047Y0037210D01*
X0160798Y0037960D01*
X0162299Y0037960D01*
X0163050Y0037210D01*
X0163050Y0035708D01*
X0162299Y0034958D01*
X0158546Y0034958D02*
X0158546Y0037960D01*
X0168546Y0033356D02*
X0171549Y0033356D01*
X0173050Y0031855D01*
X0171549Y0030354D01*
X0168546Y0030354D01*
X0168546Y0028753D02*
X0168546Y0025750D01*
X0170798Y0025750D01*
X0170047Y0027251D01*
X0170047Y0028002D01*
X0170798Y0028753D01*
X0172299Y0028753D01*
X0173050Y0028002D01*
X0173050Y0026501D01*
X0172299Y0025750D01*
X0178546Y0027251D02*
X0180047Y0028753D01*
X0183050Y0028753D01*
X0183050Y0030354D02*
X0178546Y0030354D01*
X0178546Y0032606D01*
X0179297Y0033356D01*
X0180798Y0033356D01*
X0181549Y0032606D01*
X0181549Y0030354D01*
X0181549Y0031855D02*
X0183050Y0033356D01*
X0183050Y0034958D02*
X0178546Y0034958D01*
X0178546Y0037960D01*
X0178546Y0039562D02*
X0178546Y0042564D01*
X0180798Y0041063D02*
X0180798Y0039562D01*
X0183050Y0039562D02*
X0178546Y0039562D01*
X0183050Y0037960D02*
X0183050Y0034958D01*
X0180798Y0034958D02*
X0180798Y0036459D01*
X0188546Y0037210D02*
X0188546Y0034958D01*
X0193050Y0034958D01*
X0193050Y0037210D01*
X0192299Y0037960D01*
X0189297Y0037960D01*
X0188546Y0037210D01*
X0188546Y0033356D02*
X0193050Y0033356D01*
X0188546Y0030354D01*
X0193050Y0030354D01*
X0192299Y0028753D02*
X0190798Y0028753D01*
X0190798Y0027251D01*
X0189297Y0025750D02*
X0188546Y0026501D01*
X0188546Y0028002D01*
X0189297Y0028753D01*
X0192299Y0028753D02*
X0193050Y0028002D01*
X0193050Y0026501D01*
X0192299Y0025750D01*
X0189297Y0025750D01*
X0183050Y0025750D02*
X0180047Y0025750D01*
X0178546Y0027251D01*
X0180798Y0025750D02*
X0180798Y0028753D01*
X0198546Y0028002D02*
X0198546Y0025750D01*
X0203050Y0025750D01*
X0201549Y0025750D02*
X0201549Y0028002D01*
X0200798Y0028753D01*
X0199297Y0028753D01*
X0198546Y0028002D01*
X0199297Y0030354D02*
X0202299Y0030354D01*
X0203050Y0031105D01*
X0203050Y0032606D01*
X0202299Y0033356D01*
X0202299Y0034958D02*
X0199297Y0034958D01*
X0198546Y0035708D01*
X0198546Y0037210D01*
X0199297Y0037960D01*
X0202299Y0034958D01*
X0203050Y0035708D01*
X0203050Y0037210D01*
X0202299Y0037960D01*
X0199297Y0037960D01*
X0199297Y0033356D02*
X0198546Y0032606D01*
X0198546Y0031105D01*
X0199297Y0030354D01*
X0208546Y0031105D02*
X0209297Y0030354D01*
X0212299Y0030354D01*
X0213050Y0031105D01*
X0213050Y0032606D01*
X0212299Y0033356D01*
X0213050Y0034958D02*
X0213050Y0037960D01*
X0213050Y0036459D02*
X0208546Y0036459D01*
X0210047Y0034958D01*
X0209297Y0033356D02*
X0208546Y0032606D01*
X0208546Y0031105D01*
X0209297Y0028753D02*
X0210798Y0028753D01*
X0211549Y0028002D01*
X0211549Y0025750D01*
X0213050Y0025750D02*
X0208546Y0025750D01*
X0208546Y0028002D01*
X0209297Y0028753D01*
X0218546Y0028002D02*
X0218546Y0025750D01*
X0223050Y0025750D01*
X0221549Y0025750D02*
X0221549Y0028002D01*
X0220798Y0028753D01*
X0219297Y0028753D01*
X0218546Y0028002D01*
X0219297Y0030354D02*
X0222299Y0030354D01*
X0223050Y0031105D01*
X0223050Y0032606D01*
X0222299Y0033356D01*
X0223050Y0034958D02*
X0220047Y0037960D01*
X0219297Y0037960D01*
X0218546Y0037210D01*
X0218546Y0035708D01*
X0219297Y0034958D01*
X0219297Y0033356D02*
X0218546Y0032606D01*
X0218546Y0031105D01*
X0219297Y0030354D01*
X0223050Y0034958D02*
X0223050Y0037960D01*
X0228546Y0037210D02*
X0228546Y0035708D01*
X0229297Y0034958D01*
X0229297Y0033356D02*
X0228546Y0032606D01*
X0228546Y0031105D01*
X0229297Y0030354D01*
X0232299Y0030354D01*
X0233050Y0031105D01*
X0233050Y0032606D01*
X0232299Y0033356D01*
X0232299Y0034958D02*
X0233050Y0035708D01*
X0233050Y0037210D01*
X0232299Y0037960D01*
X0231549Y0037960D01*
X0230798Y0037210D01*
X0230798Y0036459D01*
X0230798Y0037210D02*
X0230047Y0037960D01*
X0229297Y0037960D01*
X0228546Y0037210D01*
X0238546Y0037210D02*
X0240798Y0034958D01*
X0240798Y0037960D01*
X0243050Y0037210D02*
X0238546Y0037210D01*
X0239297Y0033356D02*
X0238546Y0032606D01*
X0238546Y0031105D01*
X0239297Y0030354D01*
X0242299Y0030354D01*
X0243050Y0031105D01*
X0243050Y0032606D01*
X0242299Y0033356D01*
X0240798Y0028753D02*
X0239297Y0028753D01*
X0238546Y0028002D01*
X0238546Y0025750D01*
X0243050Y0025750D01*
X0241549Y0025750D02*
X0241549Y0028002D01*
X0240798Y0028753D01*
X0248546Y0028002D02*
X0248546Y0025750D01*
X0253050Y0025750D01*
X0251549Y0025750D02*
X0251549Y0028002D01*
X0250798Y0028753D01*
X0249297Y0028753D01*
X0248546Y0028002D01*
X0249297Y0030354D02*
X0252299Y0030354D01*
X0253050Y0031105D01*
X0253050Y0032606D01*
X0252299Y0033356D01*
X0252299Y0034958D02*
X0253050Y0035708D01*
X0253050Y0037210D01*
X0252299Y0037960D01*
X0250798Y0037960D01*
X0250047Y0037210D01*
X0250047Y0036459D01*
X0250798Y0034958D01*
X0248546Y0034958D01*
X0248546Y0037960D01*
X0249297Y0033356D02*
X0248546Y0032606D01*
X0248546Y0031105D01*
X0249297Y0030354D01*
X0233050Y0025750D02*
X0228546Y0025750D01*
X0228546Y0028002D01*
X0229297Y0028753D01*
X0230798Y0028753D01*
X0231549Y0028002D01*
X0231549Y0025750D01*
X0268546Y0025750D02*
X0270798Y0025750D01*
X0270047Y0027251D01*
X0270047Y0028002D01*
X0270798Y0028753D01*
X0272299Y0028753D01*
X0273050Y0028002D01*
X0273050Y0026501D01*
X0272299Y0025750D01*
X0268546Y0025750D02*
X0268546Y0028753D01*
X0268546Y0030354D02*
X0271549Y0030354D01*
X0273050Y0031855D01*
X0271549Y0033356D01*
X0268546Y0033356D01*
X0278546Y0033356D02*
X0283050Y0033356D01*
X0278546Y0030354D01*
X0283050Y0030354D01*
X0282299Y0028753D02*
X0280798Y0028753D01*
X0280798Y0027251D01*
X0279297Y0025750D02*
X0282299Y0025750D01*
X0283050Y0026501D01*
X0283050Y0028002D01*
X0282299Y0028753D01*
X0279297Y0028753D02*
X0278546Y0028002D01*
X0278546Y0026501D01*
X0279297Y0025750D01*
X0288546Y0026501D02*
X0289297Y0025750D01*
X0288546Y0026501D02*
X0288546Y0028002D01*
X0289297Y0028753D01*
X0290047Y0028753D01*
X0290798Y0028002D01*
X0291549Y0028753D01*
X0292299Y0028753D01*
X0293050Y0028002D01*
X0293050Y0026501D01*
X0292299Y0025750D01*
X0290798Y0027251D02*
X0290798Y0028002D01*
X0292299Y0030354D02*
X0292299Y0031105D01*
X0293050Y0031105D01*
X0293050Y0030354D01*
X0292299Y0030354D01*
X0292299Y0032656D02*
X0293050Y0033407D01*
X0293050Y0034908D01*
X0292299Y0035658D01*
X0291549Y0035658D01*
X0290798Y0034908D01*
X0290798Y0034157D01*
X0290798Y0034908D02*
X0290047Y0035658D01*
X0289297Y0035658D01*
X0288546Y0034908D01*
X0288546Y0033407D01*
X0289297Y0032656D01*
X0283050Y0034958D02*
X0283050Y0037210D01*
X0282299Y0037960D01*
X0279297Y0037960D01*
X0278546Y0037210D01*
X0278546Y0034958D01*
X0283050Y0034958D01*
X0288546Y0037260D02*
X0291549Y0037260D01*
X0293050Y0038761D01*
X0291549Y0040262D01*
X0288546Y0040262D01*
X0297546Y0039562D02*
X0297546Y0042564D01*
X0299798Y0041063D02*
X0299798Y0039562D01*
X0302050Y0039562D02*
X0297546Y0039562D01*
X0297546Y0037960D02*
X0297546Y0034958D01*
X0302050Y0034958D01*
X0302050Y0037960D01*
X0299798Y0036459D02*
X0299798Y0034958D01*
X0299798Y0033356D02*
X0300549Y0032606D01*
X0300549Y0030354D01*
X0302050Y0030354D02*
X0297546Y0030354D01*
X0297546Y0032606D01*
X0298297Y0033356D01*
X0299798Y0033356D01*
X0300549Y0031855D02*
X0302050Y0033356D01*
X0308546Y0033356D02*
X0308546Y0030354D01*
X0313050Y0030354D01*
X0313050Y0033356D01*
X0312299Y0034958D02*
X0313050Y0035708D01*
X0313050Y0037210D01*
X0312299Y0037960D01*
X0311549Y0037960D01*
X0310798Y0037210D01*
X0310798Y0035708D01*
X0310047Y0034958D01*
X0309297Y0034958D01*
X0308546Y0035708D01*
X0308546Y0037210D01*
X0309297Y0037960D01*
X0308546Y0039562D02*
X0313050Y0039562D01*
X0313050Y0042564D01*
X0310798Y0041063D02*
X0310798Y0039562D01*
X0308546Y0039562D02*
X0308546Y0042564D01*
X0308546Y0044166D02*
X0308546Y0047168D01*
X0308546Y0045667D02*
X0313050Y0045667D01*
X0323050Y0037960D02*
X0323050Y0034958D01*
X0318546Y0034958D01*
X0319297Y0033356D02*
X0318546Y0032606D01*
X0318546Y0031105D01*
X0319297Y0030354D01*
X0322299Y0030354D01*
X0323050Y0031105D01*
X0323050Y0032606D01*
X0322299Y0033356D01*
X0322299Y0028753D02*
X0323050Y0028002D01*
X0323050Y0026501D01*
X0322299Y0025750D01*
X0320798Y0026501D02*
X0320798Y0028002D01*
X0321549Y0028753D01*
X0322299Y0028753D01*
X0320798Y0026501D02*
X0320047Y0025750D01*
X0319297Y0025750D01*
X0318546Y0026501D01*
X0318546Y0028002D01*
X0319297Y0028753D01*
X0313050Y0028753D02*
X0311549Y0027251D01*
X0311549Y0028002D02*
X0311549Y0025750D01*
X0313050Y0025750D02*
X0308546Y0025750D01*
X0308546Y0028002D01*
X0309297Y0028753D01*
X0310798Y0028753D01*
X0311549Y0028002D01*
X0310798Y0030354D02*
X0310798Y0031855D01*
X0302050Y0028753D02*
X0299047Y0028753D01*
X0297546Y0027251D01*
X0299047Y0025750D01*
X0302050Y0025750D01*
X0299798Y0025750D02*
X0299798Y0028753D01*
X0328546Y0028002D02*
X0328546Y0026501D01*
X0329297Y0025750D01*
X0330047Y0025750D01*
X0330798Y0026501D01*
X0330798Y0028002D01*
X0331549Y0028753D01*
X0332299Y0028753D01*
X0333050Y0028002D01*
X0333050Y0026501D01*
X0332299Y0025750D01*
X0329297Y0028753D02*
X0328546Y0028002D01*
X0328546Y0030354D02*
X0328546Y0032606D01*
X0329297Y0033356D01*
X0332299Y0033356D01*
X0333050Y0032606D01*
X0333050Y0030354D01*
X0328546Y0030354D01*
X0330047Y0034958D02*
X0328546Y0036459D01*
X0330047Y0037960D01*
X0333050Y0037960D01*
X0330798Y0037960D02*
X0330798Y0034958D01*
X0330047Y0034958D02*
X0333050Y0034958D01*
X0075250Y0214319D02*
X0075250Y0217321D01*
X0075250Y0215820D02*
X0070746Y0215820D01*
X0072247Y0214319D01*
X0071497Y0218922D02*
X0070746Y0219673D01*
X0070746Y0221174D01*
X0071497Y0221925D01*
X0072247Y0221925D01*
X0075250Y0218922D01*
X0075250Y0221925D01*
X0073749Y0223526D02*
X0070746Y0223526D01*
X0073749Y0223526D02*
X0075250Y0225028D01*
X0073749Y0226529D01*
X0070746Y0226529D01*
X0076001Y0228130D02*
X0076001Y0231133D01*
X0074499Y0232734D02*
X0075250Y0233485D01*
X0075250Y0234236D01*
X0074499Y0234986D01*
X0070746Y0234986D01*
X0070746Y0234236D02*
X0070746Y0235737D01*
X0072247Y0237338D02*
X0070746Y0238839D01*
X0072247Y0240341D01*
X0075250Y0240341D01*
X0074499Y0241942D02*
X0071497Y0241942D01*
X0070746Y0242693D01*
X0070746Y0244194D01*
X0071497Y0244945D01*
X0070746Y0246546D02*
X0075250Y0246546D01*
X0073749Y0246546D02*
X0070746Y0249549D01*
X0072998Y0247297D02*
X0075250Y0249549D01*
X0074499Y0244945D02*
X0075250Y0244194D01*
X0075250Y0242693D01*
X0074499Y0241942D01*
X0072998Y0240341D02*
X0072998Y0237338D01*
X0072247Y0237338D02*
X0075250Y0237338D01*
X0109046Y0238545D02*
X0109046Y0235542D01*
X0113550Y0235542D01*
X0113550Y0238545D01*
X0111298Y0237043D02*
X0111298Y0235542D01*
X0112049Y0233941D02*
X0112799Y0233941D01*
X0113550Y0233190D01*
X0113550Y0231689D01*
X0112799Y0230938D01*
X0111298Y0231689D02*
X0111298Y0233190D01*
X0112049Y0233941D01*
X0109797Y0233941D02*
X0109046Y0233190D01*
X0109046Y0231689D01*
X0109797Y0230938D01*
X0110547Y0230938D01*
X0111298Y0231689D01*
X0109046Y0229337D02*
X0109046Y0226334D01*
X0113550Y0226334D01*
X0113550Y0229337D01*
X0111298Y0227836D02*
X0111298Y0226334D01*
X0111298Y0224733D02*
X0109797Y0224733D01*
X0109046Y0223982D01*
X0109046Y0221730D01*
X0113550Y0221730D01*
X0112049Y0221730D02*
X0112049Y0223982D01*
X0111298Y0224733D01*
X0112049Y0223232D02*
X0113550Y0224733D01*
X0109046Y0240146D02*
X0109046Y0243149D01*
X0109046Y0241647D02*
X0113550Y0241647D01*
X0169546Y0228960D02*
X0169546Y0225958D01*
X0170297Y0224356D02*
X0169546Y0223606D01*
X0169546Y0221354D01*
X0174050Y0221354D01*
X0174050Y0223606D01*
X0173299Y0224356D01*
X0170297Y0224356D01*
X0173299Y0225958D02*
X0174050Y0225958D01*
X0173299Y0225958D02*
X0170297Y0228960D01*
X0169546Y0228960D01*
X0170297Y0219753D02*
X0171798Y0219753D01*
X0172549Y0219002D01*
X0172549Y0216750D01*
X0174050Y0216750D02*
X0169546Y0216750D01*
X0169546Y0219002D01*
X0170297Y0219753D01*
X0179546Y0219002D02*
X0179546Y0216750D01*
X0184050Y0216750D01*
X0182549Y0216750D02*
X0182549Y0219002D01*
X0181798Y0219753D01*
X0180297Y0219753D01*
X0179546Y0219002D01*
X0179546Y0221354D02*
X0179546Y0223606D01*
X0180297Y0224356D01*
X0183299Y0224356D01*
X0184050Y0223606D01*
X0184050Y0221354D01*
X0179546Y0221354D01*
X0181798Y0225958D02*
X0181798Y0228210D01*
X0182549Y0228960D01*
X0183299Y0228960D01*
X0184050Y0228210D01*
X0184050Y0226708D01*
X0183299Y0225958D01*
X0181798Y0225958D01*
X0180297Y0227459D01*
X0179546Y0228960D01*
X0189546Y0228960D02*
X0189546Y0225958D01*
X0191798Y0225958D01*
X0191047Y0227459D01*
X0191047Y0228210D01*
X0191798Y0228960D01*
X0193299Y0228960D01*
X0194050Y0228210D01*
X0194050Y0226708D01*
X0193299Y0225958D01*
X0193299Y0224356D02*
X0190297Y0224356D01*
X0189546Y0223606D01*
X0189546Y0221354D01*
X0194050Y0221354D01*
X0194050Y0223606D01*
X0193299Y0224356D01*
X0191798Y0219753D02*
X0190297Y0219753D01*
X0189546Y0219002D01*
X0189546Y0216750D01*
X0194050Y0216750D01*
X0192549Y0216750D02*
X0192549Y0219002D01*
X0191798Y0219753D01*
X0199546Y0219002D02*
X0199546Y0216750D01*
X0204050Y0216750D01*
X0202549Y0216750D02*
X0202549Y0219002D01*
X0201798Y0219753D01*
X0200297Y0219753D01*
X0199546Y0219002D01*
X0199546Y0221354D02*
X0199546Y0223606D01*
X0200297Y0224356D01*
X0203299Y0224356D01*
X0204050Y0223606D01*
X0204050Y0221354D01*
X0199546Y0221354D01*
X0201798Y0225958D02*
X0201798Y0228960D01*
X0199546Y0228210D02*
X0201798Y0225958D01*
X0204050Y0228210D02*
X0199546Y0228210D01*
X0209546Y0228210D02*
X0209546Y0226708D01*
X0210297Y0225958D01*
X0210297Y0224356D02*
X0209546Y0223606D01*
X0209546Y0221354D01*
X0214050Y0221354D01*
X0214050Y0223606D01*
X0213299Y0224356D01*
X0210297Y0224356D01*
X0213299Y0225958D02*
X0214050Y0226708D01*
X0214050Y0228210D01*
X0213299Y0228960D01*
X0212549Y0228960D01*
X0211798Y0228210D01*
X0211798Y0227459D01*
X0211798Y0228210D02*
X0211047Y0228960D01*
X0210297Y0228960D01*
X0209546Y0228210D01*
X0210297Y0219753D02*
X0211798Y0219753D01*
X0212549Y0219002D01*
X0212549Y0216750D01*
X0214050Y0216750D02*
X0209546Y0216750D01*
X0209546Y0219002D01*
X0210297Y0219753D01*
X0219546Y0219002D02*
X0219546Y0216750D01*
X0224050Y0216750D01*
X0222549Y0216750D02*
X0222549Y0219002D01*
X0221798Y0219753D01*
X0220297Y0219753D01*
X0219546Y0219002D01*
X0219546Y0221354D02*
X0219546Y0223606D01*
X0220297Y0224356D01*
X0223299Y0224356D01*
X0224050Y0223606D01*
X0224050Y0221354D01*
X0219546Y0221354D01*
X0220297Y0225958D02*
X0219546Y0226708D01*
X0219546Y0228210D01*
X0220297Y0228960D01*
X0221047Y0228960D01*
X0224050Y0225958D01*
X0224050Y0228960D01*
X0229546Y0227459D02*
X0234050Y0227459D01*
X0234050Y0225958D02*
X0234050Y0228960D01*
X0231047Y0225958D02*
X0229546Y0227459D01*
X0230297Y0224356D02*
X0229546Y0223606D01*
X0229546Y0221354D01*
X0234050Y0221354D01*
X0234050Y0223606D01*
X0233299Y0224356D01*
X0230297Y0224356D01*
X0230297Y0219753D02*
X0231798Y0219753D01*
X0232549Y0219002D01*
X0232549Y0216750D01*
X0234050Y0216750D02*
X0229546Y0216750D01*
X0229546Y0219002D01*
X0230297Y0219753D01*
X0239546Y0219002D02*
X0239546Y0216750D01*
X0244050Y0216750D01*
X0242549Y0216750D02*
X0242549Y0219002D01*
X0241798Y0219753D01*
X0240297Y0219753D01*
X0239546Y0219002D01*
X0239546Y0221354D02*
X0239546Y0223606D01*
X0240297Y0224356D01*
X0243299Y0224356D01*
X0244050Y0223606D01*
X0244050Y0221354D01*
X0239546Y0221354D01*
X0240297Y0225958D02*
X0239546Y0226708D01*
X0239546Y0228210D01*
X0240297Y0228960D01*
X0243299Y0225958D01*
X0244050Y0226708D01*
X0244050Y0228210D01*
X0243299Y0228960D01*
X0240297Y0228960D01*
X0240297Y0225958D02*
X0243299Y0225958D01*
X0279546Y0225958D02*
X0279546Y0228210D01*
X0280297Y0228960D01*
X0281798Y0228960D01*
X0282549Y0228210D01*
X0282549Y0225958D01*
X0284050Y0225958D02*
X0279546Y0225958D01*
X0279546Y0224356D02*
X0279546Y0221354D01*
X0279546Y0222855D02*
X0284050Y0222855D01*
X0283299Y0219753D02*
X0280297Y0219753D01*
X0279546Y0219002D01*
X0279546Y0216750D01*
X0284050Y0216750D01*
X0284050Y0219002D01*
X0283299Y0219753D01*
X0289546Y0219753D02*
X0289546Y0216750D01*
X0289546Y0218251D02*
X0294050Y0218251D01*
X0294050Y0221354D02*
X0289546Y0224356D01*
X0289546Y0221354D02*
X0294050Y0224356D01*
X0299546Y0224356D02*
X0304050Y0221354D01*
X0304050Y0219753D02*
X0302549Y0218251D01*
X0302549Y0219002D02*
X0302549Y0216750D01*
X0304050Y0216750D02*
X0299546Y0216750D01*
X0299546Y0219002D01*
X0300297Y0219753D01*
X0301798Y0219753D01*
X0302549Y0219002D01*
X0299546Y0221354D02*
X0304050Y0224356D01*
X0309546Y0224356D02*
X0312549Y0224356D01*
X0314050Y0222855D01*
X0312549Y0221354D01*
X0309546Y0221354D01*
X0309546Y0219753D02*
X0309546Y0216750D01*
X0311798Y0216750D01*
X0311047Y0218251D01*
X0311047Y0219002D01*
X0311798Y0219753D01*
X0313299Y0219753D01*
X0314050Y0219002D01*
X0314050Y0217501D01*
X0313299Y0216750D01*
X0319546Y0217501D02*
X0320297Y0216750D01*
X0323299Y0216750D01*
X0324050Y0217501D01*
X0324050Y0219002D01*
X0323299Y0219753D01*
X0320297Y0219753D02*
X0319546Y0219002D01*
X0319546Y0217501D01*
X0319546Y0221354D02*
X0319546Y0224356D01*
X0319546Y0222855D02*
X0324050Y0222855D01*
X0323299Y0225958D02*
X0324050Y0226708D01*
X0324050Y0228210D01*
X0323299Y0228960D01*
X0322549Y0228960D01*
X0321798Y0228210D01*
X0321798Y0226708D01*
X0321047Y0225958D01*
X0320297Y0225958D01*
X0319546Y0226708D01*
X0319546Y0228210D01*
X0320297Y0228960D01*
X0329546Y0228210D02*
X0329546Y0225958D01*
X0334050Y0225958D01*
X0334050Y0228210D01*
X0333299Y0228960D01*
X0330297Y0228960D01*
X0329546Y0228210D01*
X0329546Y0224356D02*
X0334050Y0224356D01*
X0329546Y0221354D01*
X0334050Y0221354D01*
X0333299Y0219753D02*
X0331798Y0219753D01*
X0331798Y0218251D01*
X0330297Y0216750D02*
X0329546Y0217501D01*
X0329546Y0219002D01*
X0330297Y0219753D01*
X0333299Y0219753D02*
X0334050Y0219002D01*
X0334050Y0217501D01*
X0333299Y0216750D01*
X0330297Y0216750D01*
X0318949Y0246250D02*
X0315946Y0246250D01*
X0315946Y0250754D01*
X0314345Y0249253D02*
X0314345Y0246250D01*
X0314345Y0248502D02*
X0311342Y0248502D01*
X0311342Y0249253D02*
X0312843Y0250754D01*
X0314345Y0249253D01*
X0311342Y0249253D02*
X0311342Y0246250D01*
X0309774Y0246250D02*
X0308273Y0246250D01*
X0309023Y0246250D02*
X0309023Y0250754D01*
X0308273Y0250754D02*
X0309774Y0250754D01*
X0306671Y0250003D02*
X0306671Y0248502D01*
X0305921Y0247751D01*
X0303669Y0247751D01*
X0303669Y0246250D02*
X0303669Y0250754D01*
X0305921Y0250754D01*
X0306671Y0250003D01*
X0305170Y0247751D02*
X0306671Y0246250D01*
X0302068Y0246250D02*
X0299065Y0246250D01*
X0299065Y0250754D01*
X0302068Y0250754D01*
X0300566Y0248502D02*
X0299065Y0248502D01*
X0297464Y0247751D02*
X0297464Y0247001D01*
X0296713Y0246250D01*
X0295212Y0246250D01*
X0294461Y0247001D01*
X0295212Y0248502D02*
X0296713Y0248502D01*
X0297464Y0247751D01*
X0297464Y0250003D02*
X0296713Y0250754D01*
X0295212Y0250754D01*
X0294461Y0250003D01*
X0294461Y0249253D01*
X0295212Y0248502D01*
X0284050Y0228960D02*
X0282549Y0227459D01*
X0045553Y0161250D02*
X0042550Y0161250D01*
X0044051Y0161250D02*
X0044051Y0165754D01*
X0042550Y0164253D01*
X0014053Y0164253D02*
X0013302Y0163502D01*
X0014053Y0162751D01*
X0014053Y0162001D01*
X0013302Y0161250D01*
X0011801Y0161250D01*
X0011050Y0162001D01*
X0012551Y0163502D02*
X0013302Y0163502D01*
X0014053Y0164253D02*
X0014053Y0165003D01*
X0013302Y0165754D01*
X0011801Y0165754D01*
X0011050Y0165003D01*
X0007750Y0165063D02*
X0003246Y0165063D01*
X0003246Y0163562D02*
X0003246Y0166564D01*
X0003246Y0161960D02*
X0007750Y0161960D01*
X0003246Y0158958D01*
X0007750Y0158958D01*
X0006999Y0157356D02*
X0007750Y0156606D01*
X0007750Y0155105D01*
X0006999Y0154354D01*
X0003997Y0154354D01*
X0003246Y0155105D01*
X0003246Y0156606D01*
X0003997Y0157356D01*
X0006999Y0157356D01*
X0006999Y0152753D02*
X0007750Y0152002D01*
X0007750Y0150501D01*
X0006999Y0149750D01*
X0003997Y0149750D01*
X0003246Y0150501D01*
X0003246Y0152002D01*
X0003997Y0152753D01*
D11*
X0043497Y0138151D02*
X0043497Y0135749D01*
X0045298Y0135749D01*
X0044698Y0136950D01*
X0044698Y0137551D01*
X0045298Y0138151D01*
X0046499Y0138151D01*
X0047100Y0137551D01*
X0047100Y0136350D01*
X0046499Y0135749D01*
X0046499Y0134468D02*
X0047100Y0133868D01*
X0047100Y0132667D01*
X0046499Y0132066D01*
X0044097Y0134468D01*
X0046499Y0134468D01*
X0044097Y0134468D02*
X0043497Y0133868D01*
X0043497Y0132667D01*
X0044097Y0132066D01*
X0046499Y0132066D01*
X0046499Y0130785D02*
X0047100Y0130185D01*
X0047100Y0128984D01*
X0046499Y0128383D01*
X0045899Y0128383D01*
X0045298Y0128984D01*
X0045298Y0130185D01*
X0045899Y0130785D01*
X0046499Y0130785D01*
X0045298Y0130185D02*
X0044698Y0130785D01*
X0044097Y0130785D01*
X0043497Y0130185D01*
X0043497Y0128984D01*
X0044097Y0128383D01*
X0044698Y0128383D01*
X0045298Y0128984D01*
X0044097Y0127102D02*
X0046499Y0124700D01*
X0047100Y0124700D01*
X0043497Y0124700D02*
X0043497Y0127102D01*
X0044097Y0127102D01*
X0043347Y0109901D02*
X0045749Y0107499D01*
X0046350Y0107499D01*
X0046350Y0106218D02*
X0046350Y0103816D01*
X0046350Y0105017D02*
X0042747Y0105017D01*
X0043948Y0103816D01*
X0046350Y0102535D02*
X0046350Y0100133D01*
X0046350Y0101334D02*
X0042747Y0101334D01*
X0043948Y0100133D01*
X0046350Y0098852D02*
X0046350Y0096450D01*
X0046350Y0097651D02*
X0042747Y0097651D01*
X0043948Y0096450D01*
X0042747Y0107499D02*
X0042747Y0109901D01*
X0043347Y0109901D01*
X0066942Y0113751D02*
X0067542Y0113151D01*
X0069944Y0113151D01*
X0070545Y0113751D01*
X0070545Y0114952D01*
X0069944Y0115553D01*
X0070545Y0116834D02*
X0070545Y0119236D01*
X0070545Y0118035D02*
X0066942Y0118035D01*
X0068143Y0116834D01*
X0067542Y0115553D02*
X0066942Y0114952D01*
X0066942Y0113751D01*
X0067542Y0120517D02*
X0066942Y0121117D01*
X0066942Y0122318D01*
X0067542Y0122919D01*
X0068143Y0122919D01*
X0068743Y0122318D01*
X0069344Y0122919D01*
X0069944Y0122919D01*
X0070545Y0122318D01*
X0070545Y0121117D01*
X0069944Y0120517D01*
X0068743Y0121718D02*
X0068743Y0122318D01*
X0079100Y0105785D02*
X0079100Y0103383D01*
X0079100Y0104584D02*
X0075497Y0104584D01*
X0076698Y0103383D01*
X0077298Y0102102D02*
X0077899Y0101502D01*
X0077899Y0099700D01*
X0079100Y0099700D02*
X0075497Y0099700D01*
X0075497Y0101502D01*
X0076097Y0102102D01*
X0077298Y0102102D01*
X0077899Y0100901D02*
X0079100Y0102102D01*
X0095497Y0101502D02*
X0096097Y0102102D01*
X0097298Y0102102D01*
X0097899Y0101502D01*
X0097899Y0099700D01*
X0099100Y0099700D02*
X0095497Y0099700D01*
X0095497Y0101502D01*
X0096097Y0103383D02*
X0095497Y0103984D01*
X0095497Y0105185D01*
X0096097Y0105785D01*
X0096698Y0105785D01*
X0099100Y0103383D01*
X0099100Y0105785D01*
X0099100Y0102102D02*
X0097899Y0100901D01*
X0104097Y0083968D02*
X0106499Y0081566D01*
X0107100Y0082167D01*
X0107100Y0083368D01*
X0106499Y0083968D01*
X0104097Y0083968D01*
X0103497Y0083368D01*
X0103497Y0082167D01*
X0104097Y0081566D01*
X0106499Y0081566D01*
X0107100Y0080285D02*
X0107100Y0077883D01*
X0107100Y0079084D02*
X0103497Y0079084D01*
X0104698Y0077883D01*
X0104097Y0076602D02*
X0103497Y0076002D01*
X0103497Y0074801D01*
X0104097Y0074200D01*
X0106499Y0074200D01*
X0107100Y0074801D01*
X0107100Y0076002D01*
X0106499Y0076602D01*
X0086499Y0046419D02*
X0087100Y0045818D01*
X0087100Y0044617D01*
X0086499Y0044017D01*
X0087100Y0042736D02*
X0085899Y0041535D01*
X0085899Y0042135D02*
X0085899Y0040334D01*
X0087100Y0040334D02*
X0083497Y0040334D01*
X0083497Y0042135D01*
X0084097Y0042736D01*
X0085298Y0042736D01*
X0085899Y0042135D01*
X0084097Y0044017D02*
X0083497Y0044617D01*
X0083497Y0045818D01*
X0084097Y0046419D01*
X0084698Y0046419D01*
X0085298Y0045818D01*
X0085899Y0046419D01*
X0086499Y0046419D01*
X0085298Y0045818D02*
X0085298Y0045218D01*
X0070100Y0045818D02*
X0066497Y0045818D01*
X0068298Y0044017D01*
X0068298Y0046419D01*
X0068298Y0042736D02*
X0068899Y0042135D01*
X0068899Y0040334D01*
X0068899Y0041535D02*
X0070100Y0042736D01*
X0068298Y0042736D02*
X0067097Y0042736D01*
X0066497Y0042135D01*
X0066497Y0040334D01*
X0070100Y0040334D01*
X0162942Y0092871D02*
X0163542Y0092271D01*
X0165944Y0092271D01*
X0166545Y0092871D01*
X0166545Y0094072D01*
X0165944Y0094673D01*
X0165944Y0095954D02*
X0165344Y0095954D01*
X0164743Y0096554D01*
X0164743Y0097755D01*
X0165344Y0098356D01*
X0165944Y0098356D01*
X0166545Y0097755D01*
X0166545Y0096554D01*
X0165944Y0095954D01*
X0164743Y0096554D02*
X0164143Y0095954D01*
X0163542Y0095954D01*
X0162942Y0096554D01*
X0162942Y0097755D01*
X0163542Y0098356D01*
X0164143Y0098356D01*
X0164743Y0097755D01*
X0163542Y0094673D02*
X0162942Y0094072D01*
X0162942Y0092871D01*
X0185942Y0092871D02*
X0186542Y0092271D01*
X0188944Y0092271D01*
X0189545Y0092871D01*
X0189545Y0094072D01*
X0188944Y0094673D01*
X0188944Y0095954D02*
X0189545Y0096554D01*
X0189545Y0097755D01*
X0188944Y0098356D01*
X0188344Y0098356D01*
X0187743Y0097755D01*
X0187743Y0095954D01*
X0188944Y0095954D01*
X0187743Y0095954D02*
X0186542Y0097155D01*
X0185942Y0098356D01*
X0186542Y0094673D02*
X0185942Y0094072D01*
X0185942Y0092871D01*
X0106100Y0118434D02*
X0106100Y0119635D01*
X0105499Y0120236D01*
X0106100Y0121517D02*
X0106100Y0123919D01*
X0106100Y0122718D02*
X0102497Y0122718D01*
X0103698Y0121517D01*
X0103097Y0120236D02*
X0102497Y0119635D01*
X0102497Y0118434D01*
X0103097Y0117834D01*
X0105499Y0117834D01*
X0106100Y0118434D01*
X0131542Y0156708D02*
X0133944Y0156708D01*
X0134545Y0157308D01*
X0134545Y0158509D01*
X0133944Y0159110D01*
X0132743Y0160391D02*
X0132743Y0162793D01*
X0130942Y0162192D02*
X0132743Y0160391D01*
X0131542Y0159110D02*
X0130942Y0158509D01*
X0130942Y0157308D01*
X0131542Y0156708D01*
X0130942Y0162192D02*
X0134545Y0162192D01*
X0106100Y0164434D02*
X0106100Y0165635D01*
X0105499Y0166236D01*
X0105499Y0167517D02*
X0106100Y0168117D01*
X0106100Y0169318D01*
X0105499Y0169919D01*
X0103097Y0169919D01*
X0102497Y0169318D01*
X0102497Y0168117D01*
X0103097Y0167517D01*
X0103698Y0167517D01*
X0104298Y0168117D01*
X0104298Y0169919D01*
X0103097Y0166236D02*
X0102497Y0165635D01*
X0102497Y0164434D01*
X0103097Y0163834D01*
X0105499Y0163834D01*
X0106100Y0164434D01*
X0014219Y0181301D02*
X0014219Y0183703D01*
X0013618Y0184303D01*
X0011817Y0184303D01*
X0011817Y0180700D01*
X0013618Y0180700D01*
X0014219Y0181301D01*
X0010536Y0180700D02*
X0010536Y0184303D01*
X0008134Y0184303D02*
X0010536Y0180700D01*
X0008134Y0180700D02*
X0008134Y0184303D01*
X0006853Y0183703D02*
X0006252Y0184303D01*
X0005051Y0184303D01*
X0004451Y0183703D01*
X0004451Y0181301D01*
X0005051Y0180700D01*
X0006252Y0180700D01*
X0006853Y0181301D01*
X0006853Y0182502D01*
X0005652Y0182502D01*
X0006879Y0190700D02*
X0008080Y0191901D01*
X0008080Y0194303D01*
X0009361Y0193102D02*
X0009962Y0193102D01*
X0009962Y0190700D01*
X0010562Y0190700D02*
X0009361Y0190700D01*
X0011817Y0190700D02*
X0011817Y0193102D01*
X0013618Y0193102D01*
X0014219Y0192502D01*
X0014219Y0190700D01*
X0009962Y0194303D02*
X0009962Y0194904D01*
X0005678Y0194303D02*
X0005678Y0191901D01*
X0006879Y0190700D01*
X0198942Y0161192D02*
X0199542Y0161793D01*
X0200143Y0161793D01*
X0200743Y0161192D01*
X0201344Y0161793D01*
X0201944Y0161793D01*
X0202545Y0161192D01*
X0202545Y0159991D01*
X0201944Y0159391D01*
X0201944Y0158110D02*
X0202545Y0157509D01*
X0202545Y0156308D01*
X0201944Y0155708D01*
X0199542Y0155708D01*
X0198942Y0156308D01*
X0198942Y0157509D01*
X0199542Y0158110D01*
X0199542Y0159391D02*
X0198942Y0159991D01*
X0198942Y0161192D01*
X0200743Y0161192D02*
X0200743Y0160592D01*
X0211052Y0159446D02*
X0212854Y0159446D01*
X0212253Y0160647D01*
X0212253Y0161248D01*
X0212854Y0161848D01*
X0214055Y0161848D01*
X0214655Y0161248D01*
X0214655Y0160047D01*
X0214055Y0159446D01*
X0214055Y0158165D02*
X0214655Y0157565D01*
X0214655Y0156363D01*
X0214055Y0155763D01*
X0211653Y0155763D01*
X0211052Y0156363D01*
X0211052Y0157565D01*
X0211653Y0158165D01*
X0211052Y0159446D02*
X0211052Y0161848D01*
X0266497Y0179460D02*
X0266497Y0181261D01*
X0267097Y0181862D01*
X0268298Y0181862D01*
X0268899Y0181261D01*
X0268899Y0179460D01*
X0268899Y0180661D02*
X0270100Y0181862D01*
X0270100Y0183143D02*
X0270100Y0185545D01*
X0270100Y0184344D02*
X0266497Y0184344D01*
X0267698Y0183143D01*
X0268298Y0186826D02*
X0266497Y0186826D01*
X0266497Y0189228D01*
X0267698Y0188628D02*
X0267698Y0188027D01*
X0268298Y0186826D01*
X0269499Y0186826D02*
X0270100Y0187427D01*
X0270100Y0188628D01*
X0269499Y0189228D01*
X0268298Y0189228D01*
X0267698Y0188628D01*
X0266497Y0179460D02*
X0270100Y0179460D01*
X0277542Y0141356D02*
X0276942Y0140755D01*
X0276942Y0139554D01*
X0277542Y0138954D01*
X0277542Y0137673D02*
X0276942Y0137072D01*
X0276942Y0135871D01*
X0277542Y0135271D01*
X0279944Y0135271D01*
X0280545Y0135871D01*
X0280545Y0137072D01*
X0279944Y0137673D01*
X0280545Y0138954D02*
X0278143Y0141356D01*
X0277542Y0141356D01*
X0280545Y0141356D02*
X0280545Y0138954D01*
X0369497Y0052003D02*
X0373100Y0052003D01*
X0373100Y0050201D01*
X0372499Y0049601D01*
X0371298Y0049601D01*
X0370698Y0050201D01*
X0370698Y0052003D01*
X0370698Y0048333D02*
X0370698Y0047732D01*
X0371899Y0046531D01*
X0373100Y0046531D02*
X0370698Y0046531D01*
X0371298Y0045250D02*
X0373100Y0045250D01*
X0373100Y0043449D01*
X0372499Y0042848D01*
X0371899Y0043449D01*
X0371899Y0045250D01*
X0371298Y0045250D02*
X0370698Y0044650D01*
X0370698Y0043449D01*
X0371298Y0041567D02*
X0370698Y0040967D01*
X0370698Y0039766D01*
X0371298Y0039165D01*
X0372499Y0039165D01*
X0373100Y0039766D01*
X0373100Y0040967D01*
X0372499Y0041567D01*
X0371298Y0041567D01*
X0370698Y0037884D02*
X0370097Y0037884D01*
X0369497Y0037284D01*
X0369497Y0035482D01*
X0373100Y0035482D01*
X0373100Y0037284D01*
X0372499Y0037884D01*
X0371899Y0037884D01*
X0371298Y0037284D01*
X0371298Y0035482D01*
X0371298Y0037284D02*
X0370698Y0037884D01*
X0371298Y0030518D02*
X0373100Y0030518D01*
X0373100Y0028716D01*
X0372499Y0028116D01*
X0371899Y0028716D01*
X0371899Y0030518D01*
X0371298Y0030518D02*
X0370698Y0029917D01*
X0370698Y0028716D01*
X0370698Y0026835D02*
X0370698Y0025033D01*
X0371298Y0024433D01*
X0372499Y0024433D01*
X0373100Y0025033D01*
X0373100Y0026835D01*
X0373701Y0026835D02*
X0370698Y0026835D01*
X0373701Y0026835D02*
X0374301Y0026234D01*
X0374301Y0025634D01*
X0373100Y0022551D02*
X0373100Y0021350D01*
X0372499Y0020749D01*
X0371298Y0020749D01*
X0370698Y0021350D01*
X0370698Y0022551D01*
X0371298Y0023151D01*
X0371899Y0023151D01*
X0371899Y0020749D01*
X0371298Y0019468D02*
X0373100Y0019468D01*
X0373100Y0018267D02*
X0371298Y0018267D01*
X0370698Y0018868D01*
X0371298Y0019468D01*
X0371298Y0018267D02*
X0370698Y0017667D01*
X0370698Y0017066D01*
X0373100Y0017066D01*
X0373100Y0014584D02*
X0369497Y0014584D01*
X0369497Y0013383D02*
X0369497Y0015785D01*
X0370698Y0012102D02*
X0369497Y0010901D01*
X0370698Y0009700D01*
X0373100Y0009700D01*
X0371298Y0009700D02*
X0371298Y0012102D01*
X0370698Y0012102D02*
X0373100Y0012102D01*
X0360100Y0013102D02*
X0360100Y0010700D01*
X0357698Y0013102D01*
X0357097Y0013102D01*
X0356497Y0012502D01*
X0356497Y0011301D01*
X0357097Y0010700D01*
X0354100Y0011301D02*
X0354100Y0012502D01*
X0353499Y0013102D01*
X0354100Y0014383D02*
X0350497Y0014383D01*
X0351698Y0014984D02*
X0351698Y0016185D01*
X0352298Y0016785D01*
X0354100Y0016785D01*
X0354100Y0018066D02*
X0354100Y0019267D01*
X0354100Y0018667D02*
X0351698Y0018667D01*
X0351698Y0018066D01*
X0350497Y0018667D02*
X0349896Y0018667D01*
X0351698Y0020522D02*
X0354100Y0020522D01*
X0352899Y0020522D02*
X0351698Y0021723D01*
X0351698Y0022323D01*
X0351698Y0024191D02*
X0351698Y0025393D01*
X0352298Y0025993D01*
X0354100Y0025993D01*
X0354100Y0024191D01*
X0353499Y0023591D01*
X0352899Y0024191D01*
X0352899Y0025993D01*
X0353499Y0027274D02*
X0354100Y0027875D01*
X0354100Y0029676D01*
X0354701Y0029676D02*
X0351698Y0029676D01*
X0351698Y0027875D01*
X0352298Y0027274D01*
X0353499Y0027274D01*
X0355301Y0028475D02*
X0355301Y0029076D01*
X0354701Y0029676D01*
X0356497Y0029116D02*
X0360100Y0029116D01*
X0360100Y0030917D01*
X0359499Y0031518D01*
X0358298Y0031518D01*
X0357698Y0030917D01*
X0357698Y0029116D01*
X0358298Y0027835D02*
X0358899Y0027835D01*
X0358899Y0025433D01*
X0359499Y0025433D02*
X0358298Y0025433D01*
X0357698Y0026033D01*
X0357698Y0027234D01*
X0358298Y0027835D01*
X0360100Y0027234D02*
X0360100Y0026033D01*
X0359499Y0025433D01*
X0358298Y0022950D02*
X0358298Y0021749D01*
X0356497Y0021749D02*
X0356497Y0024151D01*
X0356497Y0021749D02*
X0360100Y0021749D01*
X0360100Y0018066D02*
X0356497Y0020468D01*
X0356497Y0016785D02*
X0357097Y0015584D01*
X0358298Y0014383D01*
X0358298Y0016185D01*
X0358899Y0016785D01*
X0359499Y0016785D01*
X0360100Y0016185D01*
X0360100Y0014984D01*
X0359499Y0014383D01*
X0358298Y0014383D01*
X0354100Y0011301D02*
X0353499Y0010700D01*
X0351097Y0010700D01*
X0350497Y0011301D01*
X0350497Y0012502D01*
X0351097Y0013102D01*
X0352298Y0014383D02*
X0351698Y0014984D01*
X0360100Y0032799D02*
X0356497Y0035201D01*
X0357698Y0036482D02*
X0356497Y0037683D01*
X0360100Y0037683D01*
X0360100Y0036482D02*
X0360100Y0038884D01*
X0359499Y0040165D02*
X0358899Y0040165D01*
X0358298Y0040766D01*
X0358298Y0041967D01*
X0358899Y0042567D01*
X0359499Y0042567D01*
X0360100Y0041967D01*
X0360100Y0040766D01*
X0359499Y0040165D01*
X0358298Y0040766D02*
X0357698Y0040165D01*
X0357097Y0040165D01*
X0356497Y0040766D01*
X0356497Y0041967D01*
X0357097Y0042567D01*
X0357698Y0042567D01*
X0358298Y0041967D01*
X0354100Y0042607D02*
X0353499Y0042007D01*
X0352899Y0042607D01*
X0352899Y0044409D01*
X0352298Y0044409D02*
X0354100Y0044409D01*
X0354100Y0042607D01*
X0354100Y0040726D02*
X0352298Y0040726D01*
X0351698Y0040125D01*
X0351698Y0038924D01*
X0352298Y0038324D01*
X0352899Y0037042D02*
X0353499Y0037042D01*
X0354100Y0036442D01*
X0354100Y0035241D01*
X0353499Y0034640D01*
X0352298Y0035241D02*
X0352298Y0036442D01*
X0352899Y0037042D01*
X0354100Y0038324D02*
X0350497Y0038324D01*
X0351097Y0037042D02*
X0350497Y0036442D01*
X0350497Y0035241D01*
X0351097Y0034640D01*
X0351698Y0034640D01*
X0352298Y0035241D01*
X0351698Y0042607D02*
X0351698Y0043808D01*
X0352298Y0044409D01*
X0352298Y0045690D02*
X0351698Y0046290D01*
X0351698Y0047491D01*
X0352298Y0048092D01*
X0354100Y0048092D01*
X0354100Y0045690D02*
X0350497Y0045690D01*
D12*
X0339800Y0108300D03*
X0342800Y0114300D03*
X0342800Y0114600D03*
X0341900Y0130800D03*
X0344000Y0135000D03*
X0344600Y0135900D03*
X0344900Y0136200D03*
X0344900Y0136500D03*
X0345200Y0136800D03*
X0338900Y0136800D03*
X0338600Y0136500D03*
X0338600Y0136200D03*
X0338300Y0135900D03*
X0337700Y0135000D03*
X0335600Y0130800D03*
D13*
X0338900Y0130500D03*
X0339500Y0130800D03*
X0339800Y0131100D03*
X0340100Y0131700D03*
X0340400Y0132000D03*
X0340400Y0132300D03*
X0340700Y0132900D03*
X0340700Y0133200D03*
X0340700Y0133500D03*
X0340400Y0134100D03*
X0340400Y0134400D03*
X0340100Y0134700D03*
X0346400Y0134700D03*
X0346700Y0134400D03*
X0346700Y0134100D03*
X0347000Y0133500D03*
X0347000Y0133200D03*
X0347000Y0132900D03*
X0346700Y0132300D03*
X0346700Y0132000D03*
X0346400Y0131700D03*
X0346100Y0131100D03*
X0345800Y0130800D03*
X0345200Y0130500D03*
X0343100Y0115800D03*
X0343100Y0115500D03*
X0339800Y0108900D03*
X0339800Y0108600D03*
D14*
X0339800Y0109200D03*
X0339800Y0109500D03*
X0343400Y0116700D03*
X0343400Y0117000D03*
X0343700Y0129900D03*
X0337400Y0129900D03*
D15*
X0347000Y0124800D03*
X0346700Y0124200D03*
X0346400Y0123600D03*
X0346400Y0123300D03*
X0346100Y0123000D03*
X0346100Y0122700D03*
X0345800Y0122400D03*
X0345800Y0122100D03*
X0345500Y0121800D03*
X0345500Y0121500D03*
X0345200Y0121200D03*
X0345200Y0120900D03*
X0344900Y0120600D03*
X0344900Y0120300D03*
X0344600Y0120000D03*
X0344600Y0119700D03*
X0344300Y0119400D03*
X0344300Y0119100D03*
X0344000Y0118500D03*
X0343700Y0117900D03*
X0347300Y0125400D03*
X0347600Y0126000D03*
X0347900Y0126600D03*
X0347900Y0126900D03*
X0348200Y0127200D03*
X0348200Y0127500D03*
X0348500Y0127800D03*
X0348500Y0128100D03*
X0348800Y0128400D03*
X0348800Y0128700D03*
X0349100Y0129000D03*
X0349100Y0129300D03*
X0349400Y0129600D03*
X0349400Y0129900D03*
X0349700Y0130200D03*
X0349700Y0130500D03*
X0350000Y0130800D03*
X0350000Y0131100D03*
X0350300Y0131400D03*
X0350300Y0131700D03*
X0350600Y0132000D03*
X0350600Y0132300D03*
X0350900Y0132600D03*
X0350900Y0132900D03*
X0351200Y0133500D03*
X0351500Y0134100D03*
X0351500Y0134400D03*
X0351800Y0134700D03*
X0351800Y0135000D03*
X0352100Y0135300D03*
X0352100Y0135600D03*
X0352400Y0135900D03*
X0352400Y0136200D03*
X0352700Y0136500D03*
X0352700Y0136800D03*
X0353000Y0137100D03*
X0353000Y0137400D03*
X0353300Y0137700D03*
X0353300Y0138000D03*
X0353600Y0138300D03*
X0353600Y0138600D03*
X0353900Y0138900D03*
X0353900Y0139200D03*
X0354200Y0139500D03*
X0354200Y0139800D03*
X0339800Y0110100D03*
X0339800Y0109800D03*
D16*
X0339650Y0110400D03*
X0339650Y0110700D03*
X0339050Y0135300D03*
X0345350Y0135300D03*
X0354350Y0140100D03*
D17*
X0339500Y0111300D03*
X0339500Y0111000D03*
D18*
X0339350Y0111600D03*
X0339350Y0111900D03*
X0339350Y0112200D03*
X0337550Y0130200D03*
X0343850Y0130200D03*
X0344150Y0137100D03*
X0337850Y0137100D03*
D19*
X0338000Y0137400D03*
X0344300Y0137400D03*
X0339200Y0112800D03*
X0339200Y0112500D03*
D20*
X0342500Y0112800D03*
X0342500Y0113100D03*
D21*
X0339050Y0113100D03*
X0339050Y0113400D03*
X0338150Y0137700D03*
X0344450Y0137700D03*
D22*
X0342650Y0136800D03*
X0336350Y0136800D03*
X0335450Y0131100D03*
X0341750Y0131100D03*
X0342650Y0114000D03*
X0342650Y0113700D03*
X0342650Y0113400D03*
D23*
X0338900Y0113700D03*
X0338900Y0114000D03*
D24*
X0338750Y0114300D03*
X0338750Y0114600D03*
D25*
X0338600Y0114900D03*
X0338600Y0115200D03*
D26*
X0342950Y0115200D03*
X0342950Y0114900D03*
X0342350Y0130500D03*
X0339950Y0131400D03*
X0340550Y0132600D03*
X0340550Y0133800D03*
X0346250Y0131400D03*
X0346850Y0132600D03*
X0346850Y0133800D03*
X0336050Y0130500D03*
D27*
X0338450Y0115800D03*
X0338450Y0115500D03*
D28*
X0338300Y0116100D03*
X0338300Y0116400D03*
D29*
X0343250Y0116400D03*
X0343250Y0116100D03*
X0346250Y0135000D03*
X0339950Y0135000D03*
D30*
X0330650Y0132600D03*
X0330350Y0133200D03*
X0330050Y0133800D03*
X0329750Y0134400D03*
X0333350Y0126900D03*
X0333650Y0126300D03*
X0333950Y0125700D03*
X0334250Y0125100D03*
X0334550Y0124500D03*
X0334850Y0123900D03*
X0335150Y0123300D03*
X0335450Y0122700D03*
X0335750Y0122100D03*
X0337250Y0118800D03*
X0337550Y0118200D03*
X0337850Y0117600D03*
X0338150Y0117000D03*
X0338150Y0116700D03*
D31*
X0338000Y0117300D03*
X0337700Y0117900D03*
X0337400Y0118500D03*
X0337100Y0119100D03*
X0337100Y0119400D03*
X0336800Y0119700D03*
X0336800Y0120000D03*
X0336500Y0120300D03*
X0336500Y0120600D03*
X0336200Y0120900D03*
X0336200Y0121200D03*
X0335900Y0121500D03*
X0335900Y0121800D03*
X0335600Y0122400D03*
X0335300Y0123000D03*
X0335000Y0123600D03*
X0334700Y0124200D03*
X0334400Y0124800D03*
X0334100Y0125400D03*
X0333800Y0126000D03*
X0333500Y0126600D03*
X0333200Y0127200D03*
X0333200Y0127500D03*
X0332900Y0127800D03*
X0332900Y0128100D03*
X0332600Y0128400D03*
X0332600Y0128700D03*
X0332300Y0129000D03*
X0332300Y0129300D03*
X0332000Y0129600D03*
X0332000Y0129900D03*
X0331700Y0130200D03*
X0331700Y0130500D03*
X0331400Y0130800D03*
X0331400Y0131100D03*
X0331100Y0131400D03*
X0331100Y0131700D03*
X0330800Y0132000D03*
X0330800Y0132300D03*
X0330500Y0132900D03*
X0330200Y0133500D03*
X0329900Y0134100D03*
X0329600Y0134700D03*
X0329600Y0135000D03*
X0329300Y0135300D03*
X0329300Y0135600D03*
X0329000Y0135900D03*
X0329000Y0136200D03*
X0328700Y0136500D03*
X0328700Y0136800D03*
X0328400Y0137100D03*
X0328400Y0137400D03*
X0328100Y0137700D03*
X0328100Y0138000D03*
X0327800Y0138300D03*
X0327800Y0138600D03*
X0327500Y0138900D03*
X0327500Y0139200D03*
X0327200Y0139500D03*
X0327200Y0139800D03*
D32*
X0338750Y0135600D03*
X0345050Y0135600D03*
X0351050Y0133200D03*
X0351350Y0133800D03*
X0347750Y0126300D03*
X0347450Y0125700D03*
X0347150Y0125100D03*
X0346850Y0124500D03*
X0346550Y0123900D03*
X0344150Y0118800D03*
X0343850Y0118200D03*
X0343550Y0117600D03*
X0343550Y0117300D03*
D33*
X0327050Y0140100D03*
D34*
X0332450Y0140400D03*
D35*
X0349100Y0140400D03*
D36*
X0332300Y0140700D03*
X0332300Y0141000D03*
D37*
X0349250Y0141000D03*
X0349250Y0140700D03*
D38*
X0332150Y0141300D03*
X0332150Y0141600D03*
D39*
X0349400Y0141600D03*
X0349400Y0141300D03*
D40*
X0332000Y0141900D03*
X0332000Y0142200D03*
D41*
X0349550Y0142200D03*
X0349550Y0141900D03*
D42*
X0254800Y0134300D02*
X0254800Y0125700D01*
X0254800Y0123300D01*
X0254800Y0113300D01*
X0254800Y0123300D02*
X0254731Y0123302D01*
X0254663Y0123308D01*
X0254595Y0123318D01*
X0254528Y0123331D01*
X0254462Y0123349D01*
X0254397Y0123370D01*
X0254333Y0123395D01*
X0254271Y0123423D01*
X0254210Y0123455D01*
X0254151Y0123490D01*
X0254095Y0123529D01*
X0254040Y0123571D01*
X0253989Y0123616D01*
X0253939Y0123664D01*
X0253893Y0123714D01*
X0253850Y0123767D01*
X0253809Y0123823D01*
X0253772Y0123880D01*
X0253739Y0123940D01*
X0253708Y0124002D01*
X0253682Y0124065D01*
X0253659Y0124129D01*
X0253639Y0124195D01*
X0253624Y0124262D01*
X0253612Y0124329D01*
X0253604Y0124397D01*
X0253600Y0124466D01*
X0253600Y0124534D01*
X0253604Y0124603D01*
X0253612Y0124671D01*
X0253624Y0124738D01*
X0253639Y0124805D01*
X0253659Y0124871D01*
X0253682Y0124935D01*
X0253708Y0124998D01*
X0253739Y0125060D01*
X0253772Y0125120D01*
X0253809Y0125177D01*
X0253850Y0125233D01*
X0253893Y0125286D01*
X0253939Y0125336D01*
X0253989Y0125384D01*
X0254040Y0125429D01*
X0254095Y0125471D01*
X0254151Y0125510D01*
X0254210Y0125545D01*
X0254271Y0125577D01*
X0254333Y0125605D01*
X0254397Y0125630D01*
X0254462Y0125651D01*
X0254528Y0125669D01*
X0254595Y0125682D01*
X0254663Y0125692D01*
X0254731Y0125698D01*
X0254800Y0125700D01*
X0179300Y0147500D02*
X0155300Y0147500D01*
X0155105Y0147502D01*
X0154910Y0147509D01*
X0154716Y0147521D01*
X0154522Y0147538D01*
X0154328Y0147559D01*
X0154135Y0147585D01*
X0153943Y0147616D01*
X0153751Y0147651D01*
X0153561Y0147691D01*
X0153371Y0147736D01*
X0153182Y0147785D01*
X0152995Y0147839D01*
X0152809Y0147898D01*
X0152625Y0147960D01*
X0152442Y0148028D01*
X0152261Y0148100D01*
X0152082Y0148176D01*
X0151904Y0148256D01*
X0151729Y0148341D01*
X0151556Y0148430D01*
X0151385Y0148524D01*
X0151216Y0148621D01*
X0151050Y0148723D01*
X0150886Y0148828D01*
X0150725Y0148937D01*
X0150566Y0149051D01*
X0150411Y0149168D01*
X0150258Y0149289D01*
X0150108Y0149414D01*
X0149961Y0149542D01*
X0149818Y0149674D01*
X0149678Y0149809D01*
X0149541Y0149947D01*
X0149407Y0150089D01*
X0149277Y0150234D01*
X0149151Y0150383D01*
X0149028Y0150534D01*
X0148909Y0150688D01*
X0148794Y0150845D01*
X0148682Y0151005D01*
X0148575Y0151167D01*
X0148471Y0151332D01*
X0148372Y0151500D01*
X0148276Y0151670D01*
X0148185Y0151842D01*
X0148098Y0152016D01*
X0148016Y0152193D01*
X0147937Y0152371D01*
X0147863Y0152551D01*
X0147794Y0152733D01*
X0147728Y0152917D01*
X0147668Y0153102D01*
X0147612Y0153289D01*
X0147560Y0153477D01*
X0147513Y0153666D01*
X0147471Y0153856D01*
X0147433Y0154047D01*
X0147400Y0154239D01*
X0147372Y0154432D01*
X0147348Y0154625D01*
X0147329Y0154819D01*
X0147315Y0155013D01*
X0147305Y0155208D01*
X0147301Y0155403D01*
X0147301Y0155597D01*
X0147305Y0155792D01*
X0147315Y0155987D01*
X0147329Y0156181D01*
X0147348Y0156375D01*
X0147372Y0156568D01*
X0147400Y0156761D01*
X0147433Y0156953D01*
X0147471Y0157144D01*
X0147513Y0157334D01*
X0147560Y0157523D01*
X0147612Y0157711D01*
X0147668Y0157898D01*
X0147728Y0158083D01*
X0147794Y0158267D01*
X0147863Y0158449D01*
X0147937Y0158629D01*
X0148016Y0158807D01*
X0148098Y0158984D01*
X0148185Y0159158D01*
X0148276Y0159330D01*
X0148372Y0159500D01*
X0148471Y0159668D01*
X0148575Y0159833D01*
X0148682Y0159995D01*
X0148794Y0160155D01*
X0148909Y0160312D01*
X0149028Y0160466D01*
X0149151Y0160617D01*
X0149277Y0160766D01*
X0149407Y0160911D01*
X0149541Y0161053D01*
X0149678Y0161191D01*
X0149818Y0161326D01*
X0149961Y0161458D01*
X0150108Y0161586D01*
X0150258Y0161711D01*
X0150411Y0161832D01*
X0150566Y0161949D01*
X0150725Y0162063D01*
X0150886Y0162172D01*
X0151050Y0162277D01*
X0151216Y0162379D01*
X0151385Y0162476D01*
X0151556Y0162570D01*
X0151729Y0162659D01*
X0151904Y0162744D01*
X0152082Y0162824D01*
X0152261Y0162900D01*
X0152442Y0162972D01*
X0152625Y0163040D01*
X0152809Y0163102D01*
X0152995Y0163161D01*
X0153182Y0163215D01*
X0153371Y0163264D01*
X0153561Y0163309D01*
X0153751Y0163349D01*
X0153943Y0163384D01*
X0154135Y0163415D01*
X0154328Y0163441D01*
X0154522Y0163462D01*
X0154716Y0163479D01*
X0154910Y0163491D01*
X0155105Y0163498D01*
X0155300Y0163500D01*
X0179300Y0163500D01*
X0170000Y0159500D02*
X0170000Y0155500D01*
X0172800Y0155500D01*
X0170000Y0155500D02*
X0170000Y0151500D01*
X0168600Y0151500D02*
X0166100Y0151500D01*
X0166100Y0159500D01*
X0168600Y0159500D01*
X0168600Y0151500D01*
X0164600Y0151500D02*
X0164600Y0155500D01*
X0164600Y0159500D01*
X0164600Y0155500D02*
X0161800Y0155500D01*
X0179300Y0147500D02*
X0179495Y0147502D01*
X0179690Y0147509D01*
X0179884Y0147521D01*
X0180078Y0147538D01*
X0180272Y0147559D01*
X0180465Y0147585D01*
X0180657Y0147616D01*
X0180849Y0147651D01*
X0181039Y0147691D01*
X0181229Y0147736D01*
X0181418Y0147785D01*
X0181605Y0147839D01*
X0181791Y0147898D01*
X0181975Y0147960D01*
X0182158Y0148028D01*
X0182339Y0148100D01*
X0182518Y0148176D01*
X0182696Y0148256D01*
X0182871Y0148341D01*
X0183044Y0148430D01*
X0183215Y0148524D01*
X0183384Y0148621D01*
X0183550Y0148723D01*
X0183714Y0148828D01*
X0183875Y0148937D01*
X0184034Y0149051D01*
X0184189Y0149168D01*
X0184342Y0149289D01*
X0184492Y0149414D01*
X0184639Y0149542D01*
X0184782Y0149674D01*
X0184922Y0149809D01*
X0185059Y0149947D01*
X0185193Y0150089D01*
X0185323Y0150234D01*
X0185449Y0150383D01*
X0185572Y0150534D01*
X0185691Y0150688D01*
X0185806Y0150845D01*
X0185918Y0151005D01*
X0186025Y0151167D01*
X0186129Y0151332D01*
X0186228Y0151500D01*
X0186324Y0151670D01*
X0186415Y0151842D01*
X0186502Y0152016D01*
X0186584Y0152193D01*
X0186663Y0152371D01*
X0186737Y0152551D01*
X0186806Y0152733D01*
X0186872Y0152917D01*
X0186932Y0153102D01*
X0186988Y0153289D01*
X0187040Y0153477D01*
X0187087Y0153666D01*
X0187129Y0153856D01*
X0187167Y0154047D01*
X0187200Y0154239D01*
X0187228Y0154432D01*
X0187252Y0154625D01*
X0187271Y0154819D01*
X0187285Y0155013D01*
X0187295Y0155208D01*
X0187299Y0155403D01*
X0187299Y0155597D01*
X0187295Y0155792D01*
X0187285Y0155987D01*
X0187271Y0156181D01*
X0187252Y0156375D01*
X0187228Y0156568D01*
X0187200Y0156761D01*
X0187167Y0156953D01*
X0187129Y0157144D01*
X0187087Y0157334D01*
X0187040Y0157523D01*
X0186988Y0157711D01*
X0186932Y0157898D01*
X0186872Y0158083D01*
X0186806Y0158267D01*
X0186737Y0158449D01*
X0186663Y0158629D01*
X0186584Y0158807D01*
X0186502Y0158984D01*
X0186415Y0159158D01*
X0186324Y0159330D01*
X0186228Y0159500D01*
X0186129Y0159668D01*
X0186025Y0159833D01*
X0185918Y0159995D01*
X0185806Y0160155D01*
X0185691Y0160312D01*
X0185572Y0160466D01*
X0185449Y0160617D01*
X0185323Y0160766D01*
X0185193Y0160911D01*
X0185059Y0161053D01*
X0184922Y0161191D01*
X0184782Y0161326D01*
X0184639Y0161458D01*
X0184492Y0161586D01*
X0184342Y0161711D01*
X0184189Y0161832D01*
X0184034Y0161949D01*
X0183875Y0162063D01*
X0183714Y0162172D01*
X0183550Y0162277D01*
X0183384Y0162379D01*
X0183215Y0162476D01*
X0183044Y0162570D01*
X0182871Y0162659D01*
X0182696Y0162744D01*
X0182518Y0162824D01*
X0182339Y0162900D01*
X0182158Y0162972D01*
X0181975Y0163040D01*
X0181791Y0163102D01*
X0181605Y0163161D01*
X0181418Y0163215D01*
X0181229Y0163264D01*
X0181039Y0163309D01*
X0180849Y0163349D01*
X0180657Y0163384D01*
X0180465Y0163415D01*
X0180272Y0163441D01*
X0180078Y0163462D01*
X0179884Y0163479D01*
X0179690Y0163491D01*
X0179495Y0163498D01*
X0179300Y0163500D01*
X0117800Y0135700D02*
X0117800Y0113300D01*
X0079300Y0121500D02*
X0079303Y0121770D01*
X0079313Y0122040D01*
X0079330Y0122309D01*
X0079353Y0122578D01*
X0079383Y0122847D01*
X0079419Y0123114D01*
X0079462Y0123381D01*
X0079511Y0123646D01*
X0079567Y0123910D01*
X0079630Y0124173D01*
X0079698Y0124434D01*
X0079774Y0124693D01*
X0079855Y0124950D01*
X0079943Y0125206D01*
X0080037Y0125459D01*
X0080137Y0125710D01*
X0080244Y0125958D01*
X0080356Y0126203D01*
X0080475Y0126446D01*
X0080599Y0126685D01*
X0080729Y0126922D01*
X0080865Y0127155D01*
X0081007Y0127385D01*
X0081154Y0127611D01*
X0081307Y0127834D01*
X0081465Y0128053D01*
X0081628Y0128268D01*
X0081797Y0128478D01*
X0081971Y0128685D01*
X0082150Y0128887D01*
X0082333Y0129085D01*
X0082522Y0129278D01*
X0082715Y0129467D01*
X0082913Y0129650D01*
X0083115Y0129829D01*
X0083322Y0130003D01*
X0083532Y0130172D01*
X0083747Y0130335D01*
X0083966Y0130493D01*
X0084189Y0130646D01*
X0084415Y0130793D01*
X0084645Y0130935D01*
X0084878Y0131071D01*
X0085115Y0131201D01*
X0085354Y0131325D01*
X0085597Y0131444D01*
X0085842Y0131556D01*
X0086090Y0131663D01*
X0086341Y0131763D01*
X0086594Y0131857D01*
X0086850Y0131945D01*
X0087107Y0132026D01*
X0087366Y0132102D01*
X0087627Y0132170D01*
X0087890Y0132233D01*
X0088154Y0132289D01*
X0088419Y0132338D01*
X0088686Y0132381D01*
X0088953Y0132417D01*
X0089222Y0132447D01*
X0089491Y0132470D01*
X0089760Y0132487D01*
X0090030Y0132497D01*
X0090300Y0132500D01*
X0090570Y0132497D01*
X0090840Y0132487D01*
X0091109Y0132470D01*
X0091378Y0132447D01*
X0091647Y0132417D01*
X0091914Y0132381D01*
X0092181Y0132338D01*
X0092446Y0132289D01*
X0092710Y0132233D01*
X0092973Y0132170D01*
X0093234Y0132102D01*
X0093493Y0132026D01*
X0093750Y0131945D01*
X0094006Y0131857D01*
X0094259Y0131763D01*
X0094510Y0131663D01*
X0094758Y0131556D01*
X0095003Y0131444D01*
X0095246Y0131325D01*
X0095485Y0131201D01*
X0095722Y0131071D01*
X0095955Y0130935D01*
X0096185Y0130793D01*
X0096411Y0130646D01*
X0096634Y0130493D01*
X0096853Y0130335D01*
X0097068Y0130172D01*
X0097278Y0130003D01*
X0097485Y0129829D01*
X0097687Y0129650D01*
X0097885Y0129467D01*
X0098078Y0129278D01*
X0098267Y0129085D01*
X0098450Y0128887D01*
X0098629Y0128685D01*
X0098803Y0128478D01*
X0098972Y0128268D01*
X0099135Y0128053D01*
X0099293Y0127834D01*
X0099446Y0127611D01*
X0099593Y0127385D01*
X0099735Y0127155D01*
X0099871Y0126922D01*
X0100001Y0126685D01*
X0100125Y0126446D01*
X0100244Y0126203D01*
X0100356Y0125958D01*
X0100463Y0125710D01*
X0100563Y0125459D01*
X0100657Y0125206D01*
X0100745Y0124950D01*
X0100826Y0124693D01*
X0100902Y0124434D01*
X0100970Y0124173D01*
X0101033Y0123910D01*
X0101089Y0123646D01*
X0101138Y0123381D01*
X0101181Y0123114D01*
X0101217Y0122847D01*
X0101247Y0122578D01*
X0101270Y0122309D01*
X0101287Y0122040D01*
X0101297Y0121770D01*
X0101300Y0121500D01*
X0101297Y0121230D01*
X0101287Y0120960D01*
X0101270Y0120691D01*
X0101247Y0120422D01*
X0101217Y0120153D01*
X0101181Y0119886D01*
X0101138Y0119619D01*
X0101089Y0119354D01*
X0101033Y0119090D01*
X0100970Y0118827D01*
X0100902Y0118566D01*
X0100826Y0118307D01*
X0100745Y0118050D01*
X0100657Y0117794D01*
X0100563Y0117541D01*
X0100463Y0117290D01*
X0100356Y0117042D01*
X0100244Y0116797D01*
X0100125Y0116554D01*
X0100001Y0116315D01*
X0099871Y0116078D01*
X0099735Y0115845D01*
X0099593Y0115615D01*
X0099446Y0115389D01*
X0099293Y0115166D01*
X0099135Y0114947D01*
X0098972Y0114732D01*
X0098803Y0114522D01*
X0098629Y0114315D01*
X0098450Y0114113D01*
X0098267Y0113915D01*
X0098078Y0113722D01*
X0097885Y0113533D01*
X0097687Y0113350D01*
X0097485Y0113171D01*
X0097278Y0112997D01*
X0097068Y0112828D01*
X0096853Y0112665D01*
X0096634Y0112507D01*
X0096411Y0112354D01*
X0096185Y0112207D01*
X0095955Y0112065D01*
X0095722Y0111929D01*
X0095485Y0111799D01*
X0095246Y0111675D01*
X0095003Y0111556D01*
X0094758Y0111444D01*
X0094510Y0111337D01*
X0094259Y0111237D01*
X0094006Y0111143D01*
X0093750Y0111055D01*
X0093493Y0110974D01*
X0093234Y0110898D01*
X0092973Y0110830D01*
X0092710Y0110767D01*
X0092446Y0110711D01*
X0092181Y0110662D01*
X0091914Y0110619D01*
X0091647Y0110583D01*
X0091378Y0110553D01*
X0091109Y0110530D01*
X0090840Y0110513D01*
X0090570Y0110503D01*
X0090300Y0110500D01*
X0090030Y0110503D01*
X0089760Y0110513D01*
X0089491Y0110530D01*
X0089222Y0110553D01*
X0088953Y0110583D01*
X0088686Y0110619D01*
X0088419Y0110662D01*
X0088154Y0110711D01*
X0087890Y0110767D01*
X0087627Y0110830D01*
X0087366Y0110898D01*
X0087107Y0110974D01*
X0086850Y0111055D01*
X0086594Y0111143D01*
X0086341Y0111237D01*
X0086090Y0111337D01*
X0085842Y0111444D01*
X0085597Y0111556D01*
X0085354Y0111675D01*
X0085115Y0111799D01*
X0084878Y0111929D01*
X0084645Y0112065D01*
X0084415Y0112207D01*
X0084189Y0112354D01*
X0083966Y0112507D01*
X0083747Y0112665D01*
X0083532Y0112828D01*
X0083322Y0112997D01*
X0083115Y0113171D01*
X0082913Y0113350D01*
X0082715Y0113533D01*
X0082522Y0113722D01*
X0082333Y0113915D01*
X0082150Y0114113D01*
X0081971Y0114315D01*
X0081797Y0114522D01*
X0081628Y0114732D01*
X0081465Y0114947D01*
X0081307Y0115166D01*
X0081154Y0115389D01*
X0081007Y0115615D01*
X0080865Y0115845D01*
X0080729Y0116078D01*
X0080599Y0116315D01*
X0080475Y0116554D01*
X0080356Y0116797D01*
X0080244Y0117042D01*
X0080137Y0117290D01*
X0080037Y0117541D01*
X0079943Y0117794D01*
X0079855Y0118050D01*
X0079774Y0118307D01*
X0079698Y0118566D01*
X0079630Y0118827D01*
X0079567Y0119090D01*
X0079511Y0119354D01*
X0079462Y0119619D01*
X0079419Y0119886D01*
X0079383Y0120153D01*
X0079353Y0120422D01*
X0079330Y0120691D01*
X0079313Y0120960D01*
X0079303Y0121230D01*
X0079300Y0121500D01*
X0085300Y0116500D02*
X0085300Y0115000D01*
X0083800Y0115000D01*
X0085300Y0115000D02*
X0086800Y0115000D01*
X0085300Y0115000D02*
X0085300Y0113500D01*
X0079300Y0080500D02*
X0079303Y0080770D01*
X0079313Y0081040D01*
X0079330Y0081309D01*
X0079353Y0081578D01*
X0079383Y0081847D01*
X0079419Y0082114D01*
X0079462Y0082381D01*
X0079511Y0082646D01*
X0079567Y0082910D01*
X0079630Y0083173D01*
X0079698Y0083434D01*
X0079774Y0083693D01*
X0079855Y0083950D01*
X0079943Y0084206D01*
X0080037Y0084459D01*
X0080137Y0084710D01*
X0080244Y0084958D01*
X0080356Y0085203D01*
X0080475Y0085446D01*
X0080599Y0085685D01*
X0080729Y0085922D01*
X0080865Y0086155D01*
X0081007Y0086385D01*
X0081154Y0086611D01*
X0081307Y0086834D01*
X0081465Y0087053D01*
X0081628Y0087268D01*
X0081797Y0087478D01*
X0081971Y0087685D01*
X0082150Y0087887D01*
X0082333Y0088085D01*
X0082522Y0088278D01*
X0082715Y0088467D01*
X0082913Y0088650D01*
X0083115Y0088829D01*
X0083322Y0089003D01*
X0083532Y0089172D01*
X0083747Y0089335D01*
X0083966Y0089493D01*
X0084189Y0089646D01*
X0084415Y0089793D01*
X0084645Y0089935D01*
X0084878Y0090071D01*
X0085115Y0090201D01*
X0085354Y0090325D01*
X0085597Y0090444D01*
X0085842Y0090556D01*
X0086090Y0090663D01*
X0086341Y0090763D01*
X0086594Y0090857D01*
X0086850Y0090945D01*
X0087107Y0091026D01*
X0087366Y0091102D01*
X0087627Y0091170D01*
X0087890Y0091233D01*
X0088154Y0091289D01*
X0088419Y0091338D01*
X0088686Y0091381D01*
X0088953Y0091417D01*
X0089222Y0091447D01*
X0089491Y0091470D01*
X0089760Y0091487D01*
X0090030Y0091497D01*
X0090300Y0091500D01*
X0090570Y0091497D01*
X0090840Y0091487D01*
X0091109Y0091470D01*
X0091378Y0091447D01*
X0091647Y0091417D01*
X0091914Y0091381D01*
X0092181Y0091338D01*
X0092446Y0091289D01*
X0092710Y0091233D01*
X0092973Y0091170D01*
X0093234Y0091102D01*
X0093493Y0091026D01*
X0093750Y0090945D01*
X0094006Y0090857D01*
X0094259Y0090763D01*
X0094510Y0090663D01*
X0094758Y0090556D01*
X0095003Y0090444D01*
X0095246Y0090325D01*
X0095485Y0090201D01*
X0095722Y0090071D01*
X0095955Y0089935D01*
X0096185Y0089793D01*
X0096411Y0089646D01*
X0096634Y0089493D01*
X0096853Y0089335D01*
X0097068Y0089172D01*
X0097278Y0089003D01*
X0097485Y0088829D01*
X0097687Y0088650D01*
X0097885Y0088467D01*
X0098078Y0088278D01*
X0098267Y0088085D01*
X0098450Y0087887D01*
X0098629Y0087685D01*
X0098803Y0087478D01*
X0098972Y0087268D01*
X0099135Y0087053D01*
X0099293Y0086834D01*
X0099446Y0086611D01*
X0099593Y0086385D01*
X0099735Y0086155D01*
X0099871Y0085922D01*
X0100001Y0085685D01*
X0100125Y0085446D01*
X0100244Y0085203D01*
X0100356Y0084958D01*
X0100463Y0084710D01*
X0100563Y0084459D01*
X0100657Y0084206D01*
X0100745Y0083950D01*
X0100826Y0083693D01*
X0100902Y0083434D01*
X0100970Y0083173D01*
X0101033Y0082910D01*
X0101089Y0082646D01*
X0101138Y0082381D01*
X0101181Y0082114D01*
X0101217Y0081847D01*
X0101247Y0081578D01*
X0101270Y0081309D01*
X0101287Y0081040D01*
X0101297Y0080770D01*
X0101300Y0080500D01*
X0101297Y0080230D01*
X0101287Y0079960D01*
X0101270Y0079691D01*
X0101247Y0079422D01*
X0101217Y0079153D01*
X0101181Y0078886D01*
X0101138Y0078619D01*
X0101089Y0078354D01*
X0101033Y0078090D01*
X0100970Y0077827D01*
X0100902Y0077566D01*
X0100826Y0077307D01*
X0100745Y0077050D01*
X0100657Y0076794D01*
X0100563Y0076541D01*
X0100463Y0076290D01*
X0100356Y0076042D01*
X0100244Y0075797D01*
X0100125Y0075554D01*
X0100001Y0075315D01*
X0099871Y0075078D01*
X0099735Y0074845D01*
X0099593Y0074615D01*
X0099446Y0074389D01*
X0099293Y0074166D01*
X0099135Y0073947D01*
X0098972Y0073732D01*
X0098803Y0073522D01*
X0098629Y0073315D01*
X0098450Y0073113D01*
X0098267Y0072915D01*
X0098078Y0072722D01*
X0097885Y0072533D01*
X0097687Y0072350D01*
X0097485Y0072171D01*
X0097278Y0071997D01*
X0097068Y0071828D01*
X0096853Y0071665D01*
X0096634Y0071507D01*
X0096411Y0071354D01*
X0096185Y0071207D01*
X0095955Y0071065D01*
X0095722Y0070929D01*
X0095485Y0070799D01*
X0095246Y0070675D01*
X0095003Y0070556D01*
X0094758Y0070444D01*
X0094510Y0070337D01*
X0094259Y0070237D01*
X0094006Y0070143D01*
X0093750Y0070055D01*
X0093493Y0069974D01*
X0093234Y0069898D01*
X0092973Y0069830D01*
X0092710Y0069767D01*
X0092446Y0069711D01*
X0092181Y0069662D01*
X0091914Y0069619D01*
X0091647Y0069583D01*
X0091378Y0069553D01*
X0091109Y0069530D01*
X0090840Y0069513D01*
X0090570Y0069503D01*
X0090300Y0069500D01*
X0090030Y0069503D01*
X0089760Y0069513D01*
X0089491Y0069530D01*
X0089222Y0069553D01*
X0088953Y0069583D01*
X0088686Y0069619D01*
X0088419Y0069662D01*
X0088154Y0069711D01*
X0087890Y0069767D01*
X0087627Y0069830D01*
X0087366Y0069898D01*
X0087107Y0069974D01*
X0086850Y0070055D01*
X0086594Y0070143D01*
X0086341Y0070237D01*
X0086090Y0070337D01*
X0085842Y0070444D01*
X0085597Y0070556D01*
X0085354Y0070675D01*
X0085115Y0070799D01*
X0084878Y0070929D01*
X0084645Y0071065D01*
X0084415Y0071207D01*
X0084189Y0071354D01*
X0083966Y0071507D01*
X0083747Y0071665D01*
X0083532Y0071828D01*
X0083322Y0071997D01*
X0083115Y0072171D01*
X0082913Y0072350D01*
X0082715Y0072533D01*
X0082522Y0072722D01*
X0082333Y0072915D01*
X0082150Y0073113D01*
X0081971Y0073315D01*
X0081797Y0073522D01*
X0081628Y0073732D01*
X0081465Y0073947D01*
X0081307Y0074166D01*
X0081154Y0074389D01*
X0081007Y0074615D01*
X0080865Y0074845D01*
X0080729Y0075078D01*
X0080599Y0075315D01*
X0080475Y0075554D01*
X0080356Y0075797D01*
X0080244Y0076042D01*
X0080137Y0076290D01*
X0080037Y0076541D01*
X0079943Y0076794D01*
X0079855Y0077050D01*
X0079774Y0077307D01*
X0079698Y0077566D01*
X0079630Y0077827D01*
X0079567Y0078090D01*
X0079511Y0078354D01*
X0079462Y0078619D01*
X0079419Y0078886D01*
X0079383Y0079153D01*
X0079353Y0079422D01*
X0079330Y0079691D01*
X0079313Y0079960D01*
X0079303Y0080230D01*
X0079300Y0080500D01*
X0085300Y0075500D02*
X0085300Y0074000D01*
X0083800Y0074000D01*
X0085300Y0074000D02*
X0085300Y0072500D01*
X0085300Y0074000D02*
X0086800Y0074000D01*
X0108800Y0022500D02*
X0106300Y0020000D01*
X0106300Y0015000D01*
X0108800Y0012500D01*
X0113800Y0012500D01*
X0116300Y0015000D01*
X0118800Y0012500D01*
X0123800Y0012500D01*
X0126300Y0015000D01*
X0126300Y0020000D01*
X0123800Y0022500D01*
X0118800Y0022500D01*
X0116300Y0020000D01*
X0116300Y0015000D01*
X0116300Y0020000D02*
X0113800Y0022500D01*
X0108800Y0022500D01*
X0126300Y0020000D02*
X0128800Y0022500D01*
X0133800Y0022500D01*
X0136300Y0020000D01*
X0138800Y0022500D01*
X0143800Y0022500D01*
X0146300Y0020000D01*
X0148800Y0022500D01*
X0153800Y0022500D01*
X0156300Y0020000D01*
X0158800Y0022500D01*
X0163800Y0022500D01*
X0166300Y0020000D01*
X0168800Y0022500D01*
X0173800Y0022500D01*
X0176300Y0020000D01*
X0178800Y0022500D01*
X0183800Y0022500D01*
X0186300Y0020000D01*
X0188800Y0022500D01*
X0193800Y0022500D01*
X0196300Y0020000D01*
X0196300Y0015000D01*
X0193800Y0012500D01*
X0188800Y0012500D01*
X0186300Y0015000D01*
X0183800Y0012500D01*
X0178800Y0012500D01*
X0176300Y0015000D01*
X0173800Y0012500D01*
X0168800Y0012500D01*
X0166300Y0015000D01*
X0166300Y0020000D01*
X0166300Y0015000D01*
X0163800Y0012500D01*
X0158800Y0012500D01*
X0156300Y0015000D01*
X0153800Y0012500D01*
X0148800Y0012500D01*
X0146300Y0015000D01*
X0143800Y0012500D01*
X0138800Y0012500D01*
X0136300Y0015000D01*
X0133800Y0012500D01*
X0128800Y0012500D01*
X0126300Y0015000D01*
X0136300Y0015000D02*
X0136300Y0020000D01*
X0146300Y0020000D02*
X0146300Y0015000D01*
X0156300Y0015000D02*
X0156300Y0020000D01*
X0176300Y0020000D02*
X0176300Y0015000D01*
X0186300Y0015000D02*
X0186300Y0020000D01*
X0196300Y0020000D02*
X0196300Y0015000D01*
X0198800Y0012500D01*
X0203800Y0012500D01*
X0206300Y0015000D01*
X0208800Y0012500D01*
X0213800Y0012500D01*
X0216300Y0015000D01*
X0216300Y0020000D01*
X0213800Y0022500D01*
X0208800Y0022500D01*
X0206300Y0020000D01*
X0206300Y0015000D01*
X0206300Y0020000D02*
X0203800Y0022500D01*
X0198800Y0022500D01*
X0196300Y0020000D01*
X0216300Y0020000D02*
X0218800Y0022500D01*
X0223800Y0022500D01*
X0226300Y0020000D01*
X0228800Y0022500D01*
X0233800Y0022500D01*
X0236300Y0020000D01*
X0238800Y0022500D01*
X0243800Y0022500D01*
X0246300Y0020000D01*
X0248800Y0022500D01*
X0253800Y0022500D01*
X0256300Y0020000D01*
X0256300Y0015000D01*
X0253800Y0012500D01*
X0248800Y0012500D01*
X0246300Y0015000D01*
X0243800Y0012500D01*
X0238800Y0012500D01*
X0236300Y0015000D01*
X0233800Y0012500D01*
X0228800Y0012500D01*
X0226300Y0015000D01*
X0223800Y0012500D01*
X0218800Y0012500D01*
X0216300Y0015000D01*
X0226300Y0015000D02*
X0226300Y0020000D01*
X0236300Y0020000D02*
X0236300Y0015000D01*
X0246300Y0015000D02*
X0246300Y0020000D01*
X0266300Y0020000D02*
X0266300Y0015000D01*
X0268800Y0012500D01*
X0273800Y0012500D01*
X0276300Y0015000D01*
X0278800Y0012500D01*
X0283800Y0012500D01*
X0286300Y0015000D01*
X0286300Y0020000D01*
X0283800Y0022500D01*
X0278800Y0022500D01*
X0276300Y0020000D01*
X0276300Y0015000D01*
X0276300Y0020000D02*
X0273800Y0022500D01*
X0268800Y0022500D01*
X0266300Y0020000D01*
X0286300Y0020000D02*
X0288800Y0022500D01*
X0293800Y0022500D01*
X0296300Y0020000D01*
X0298800Y0022500D01*
X0303800Y0022500D01*
X0306300Y0020000D01*
X0308800Y0022500D01*
X0313800Y0022500D01*
X0316300Y0020000D01*
X0316300Y0015000D01*
X0313800Y0012500D01*
X0308800Y0012500D01*
X0306300Y0015000D01*
X0303800Y0012500D01*
X0298800Y0012500D01*
X0296300Y0015000D01*
X0293800Y0012500D01*
X0288800Y0012500D01*
X0286300Y0015000D01*
X0296300Y0015000D02*
X0296300Y0020000D01*
X0306300Y0020000D02*
X0306300Y0015000D01*
X0316300Y0015000D02*
X0318800Y0012500D01*
X0323800Y0012500D01*
X0326300Y0015000D01*
X0328800Y0012500D01*
X0333800Y0012500D01*
X0336300Y0015000D01*
X0336300Y0020000D01*
X0333800Y0022500D01*
X0328800Y0022500D01*
X0326300Y0020000D01*
X0326300Y0015000D01*
X0326300Y0020000D02*
X0323800Y0022500D01*
X0318800Y0022500D01*
X0316300Y0020000D01*
X0079300Y0167500D02*
X0079303Y0167770D01*
X0079313Y0168040D01*
X0079330Y0168309D01*
X0079353Y0168578D01*
X0079383Y0168847D01*
X0079419Y0169114D01*
X0079462Y0169381D01*
X0079511Y0169646D01*
X0079567Y0169910D01*
X0079630Y0170173D01*
X0079698Y0170434D01*
X0079774Y0170693D01*
X0079855Y0170950D01*
X0079943Y0171206D01*
X0080037Y0171459D01*
X0080137Y0171710D01*
X0080244Y0171958D01*
X0080356Y0172203D01*
X0080475Y0172446D01*
X0080599Y0172685D01*
X0080729Y0172922D01*
X0080865Y0173155D01*
X0081007Y0173385D01*
X0081154Y0173611D01*
X0081307Y0173834D01*
X0081465Y0174053D01*
X0081628Y0174268D01*
X0081797Y0174478D01*
X0081971Y0174685D01*
X0082150Y0174887D01*
X0082333Y0175085D01*
X0082522Y0175278D01*
X0082715Y0175467D01*
X0082913Y0175650D01*
X0083115Y0175829D01*
X0083322Y0176003D01*
X0083532Y0176172D01*
X0083747Y0176335D01*
X0083966Y0176493D01*
X0084189Y0176646D01*
X0084415Y0176793D01*
X0084645Y0176935D01*
X0084878Y0177071D01*
X0085115Y0177201D01*
X0085354Y0177325D01*
X0085597Y0177444D01*
X0085842Y0177556D01*
X0086090Y0177663D01*
X0086341Y0177763D01*
X0086594Y0177857D01*
X0086850Y0177945D01*
X0087107Y0178026D01*
X0087366Y0178102D01*
X0087627Y0178170D01*
X0087890Y0178233D01*
X0088154Y0178289D01*
X0088419Y0178338D01*
X0088686Y0178381D01*
X0088953Y0178417D01*
X0089222Y0178447D01*
X0089491Y0178470D01*
X0089760Y0178487D01*
X0090030Y0178497D01*
X0090300Y0178500D01*
X0090570Y0178497D01*
X0090840Y0178487D01*
X0091109Y0178470D01*
X0091378Y0178447D01*
X0091647Y0178417D01*
X0091914Y0178381D01*
X0092181Y0178338D01*
X0092446Y0178289D01*
X0092710Y0178233D01*
X0092973Y0178170D01*
X0093234Y0178102D01*
X0093493Y0178026D01*
X0093750Y0177945D01*
X0094006Y0177857D01*
X0094259Y0177763D01*
X0094510Y0177663D01*
X0094758Y0177556D01*
X0095003Y0177444D01*
X0095246Y0177325D01*
X0095485Y0177201D01*
X0095722Y0177071D01*
X0095955Y0176935D01*
X0096185Y0176793D01*
X0096411Y0176646D01*
X0096634Y0176493D01*
X0096853Y0176335D01*
X0097068Y0176172D01*
X0097278Y0176003D01*
X0097485Y0175829D01*
X0097687Y0175650D01*
X0097885Y0175467D01*
X0098078Y0175278D01*
X0098267Y0175085D01*
X0098450Y0174887D01*
X0098629Y0174685D01*
X0098803Y0174478D01*
X0098972Y0174268D01*
X0099135Y0174053D01*
X0099293Y0173834D01*
X0099446Y0173611D01*
X0099593Y0173385D01*
X0099735Y0173155D01*
X0099871Y0172922D01*
X0100001Y0172685D01*
X0100125Y0172446D01*
X0100244Y0172203D01*
X0100356Y0171958D01*
X0100463Y0171710D01*
X0100563Y0171459D01*
X0100657Y0171206D01*
X0100745Y0170950D01*
X0100826Y0170693D01*
X0100902Y0170434D01*
X0100970Y0170173D01*
X0101033Y0169910D01*
X0101089Y0169646D01*
X0101138Y0169381D01*
X0101181Y0169114D01*
X0101217Y0168847D01*
X0101247Y0168578D01*
X0101270Y0168309D01*
X0101287Y0168040D01*
X0101297Y0167770D01*
X0101300Y0167500D01*
X0101297Y0167230D01*
X0101287Y0166960D01*
X0101270Y0166691D01*
X0101247Y0166422D01*
X0101217Y0166153D01*
X0101181Y0165886D01*
X0101138Y0165619D01*
X0101089Y0165354D01*
X0101033Y0165090D01*
X0100970Y0164827D01*
X0100902Y0164566D01*
X0100826Y0164307D01*
X0100745Y0164050D01*
X0100657Y0163794D01*
X0100563Y0163541D01*
X0100463Y0163290D01*
X0100356Y0163042D01*
X0100244Y0162797D01*
X0100125Y0162554D01*
X0100001Y0162315D01*
X0099871Y0162078D01*
X0099735Y0161845D01*
X0099593Y0161615D01*
X0099446Y0161389D01*
X0099293Y0161166D01*
X0099135Y0160947D01*
X0098972Y0160732D01*
X0098803Y0160522D01*
X0098629Y0160315D01*
X0098450Y0160113D01*
X0098267Y0159915D01*
X0098078Y0159722D01*
X0097885Y0159533D01*
X0097687Y0159350D01*
X0097485Y0159171D01*
X0097278Y0158997D01*
X0097068Y0158828D01*
X0096853Y0158665D01*
X0096634Y0158507D01*
X0096411Y0158354D01*
X0096185Y0158207D01*
X0095955Y0158065D01*
X0095722Y0157929D01*
X0095485Y0157799D01*
X0095246Y0157675D01*
X0095003Y0157556D01*
X0094758Y0157444D01*
X0094510Y0157337D01*
X0094259Y0157237D01*
X0094006Y0157143D01*
X0093750Y0157055D01*
X0093493Y0156974D01*
X0093234Y0156898D01*
X0092973Y0156830D01*
X0092710Y0156767D01*
X0092446Y0156711D01*
X0092181Y0156662D01*
X0091914Y0156619D01*
X0091647Y0156583D01*
X0091378Y0156553D01*
X0091109Y0156530D01*
X0090840Y0156513D01*
X0090570Y0156503D01*
X0090300Y0156500D01*
X0090030Y0156503D01*
X0089760Y0156513D01*
X0089491Y0156530D01*
X0089222Y0156553D01*
X0088953Y0156583D01*
X0088686Y0156619D01*
X0088419Y0156662D01*
X0088154Y0156711D01*
X0087890Y0156767D01*
X0087627Y0156830D01*
X0087366Y0156898D01*
X0087107Y0156974D01*
X0086850Y0157055D01*
X0086594Y0157143D01*
X0086341Y0157237D01*
X0086090Y0157337D01*
X0085842Y0157444D01*
X0085597Y0157556D01*
X0085354Y0157675D01*
X0085115Y0157799D01*
X0084878Y0157929D01*
X0084645Y0158065D01*
X0084415Y0158207D01*
X0084189Y0158354D01*
X0083966Y0158507D01*
X0083747Y0158665D01*
X0083532Y0158828D01*
X0083322Y0158997D01*
X0083115Y0159171D01*
X0082913Y0159350D01*
X0082715Y0159533D01*
X0082522Y0159722D01*
X0082333Y0159915D01*
X0082150Y0160113D01*
X0081971Y0160315D01*
X0081797Y0160522D01*
X0081628Y0160732D01*
X0081465Y0160947D01*
X0081307Y0161166D01*
X0081154Y0161389D01*
X0081007Y0161615D01*
X0080865Y0161845D01*
X0080729Y0162078D01*
X0080599Y0162315D01*
X0080475Y0162554D01*
X0080356Y0162797D01*
X0080244Y0163042D01*
X0080137Y0163290D01*
X0080037Y0163541D01*
X0079943Y0163794D01*
X0079855Y0164050D01*
X0079774Y0164307D01*
X0079698Y0164566D01*
X0079630Y0164827D01*
X0079567Y0165090D01*
X0079511Y0165354D01*
X0079462Y0165619D01*
X0079419Y0165886D01*
X0079383Y0166153D01*
X0079353Y0166422D01*
X0079330Y0166691D01*
X0079313Y0166960D01*
X0079303Y0167230D01*
X0079300Y0167500D01*
X0085300Y0162500D02*
X0085300Y0161000D01*
X0083800Y0161000D01*
X0085300Y0161000D02*
X0085300Y0159500D01*
X0085300Y0161000D02*
X0086800Y0161000D01*
X0047300Y0168500D02*
X0047300Y0148500D01*
X0009300Y0148500D01*
X0009300Y0168500D01*
X0047300Y0168500D01*
X0028300Y0180000D02*
X0025800Y0177500D01*
X0020800Y0177500D01*
X0018300Y0180000D01*
X0018300Y0185000D01*
X0020800Y0187500D01*
X0018300Y0190000D01*
X0018300Y0195000D01*
X0020800Y0197500D01*
X0025800Y0197500D01*
X0028300Y0195000D01*
X0028300Y0190000D01*
X0025800Y0187500D01*
X0028300Y0185000D01*
X0028300Y0180000D01*
X0025800Y0187500D02*
X0020800Y0187500D01*
X0082300Y0224000D02*
X0082300Y0228000D01*
X0082300Y0237500D01*
X0082300Y0241000D01*
X0090300Y0244500D02*
X0091300Y0244500D01*
X0091300Y0245500D01*
X0097300Y0245500D01*
X0097300Y0244500D01*
X0098300Y0244500D01*
X0106300Y0241000D02*
X0106300Y0237500D01*
X0106300Y0227500D01*
X0106300Y0224000D01*
X0098300Y0220500D02*
X0097300Y0220500D01*
X0097300Y0219500D01*
X0091300Y0219500D01*
X0091300Y0220500D01*
X0090300Y0220500D01*
X0093300Y0232500D02*
X0093302Y0232563D01*
X0093308Y0232625D01*
X0093318Y0232687D01*
X0093331Y0232749D01*
X0093349Y0232809D01*
X0093370Y0232868D01*
X0093395Y0232926D01*
X0093424Y0232982D01*
X0093456Y0233036D01*
X0093491Y0233088D01*
X0093529Y0233137D01*
X0093571Y0233185D01*
X0093615Y0233229D01*
X0093663Y0233271D01*
X0093712Y0233309D01*
X0093764Y0233344D01*
X0093818Y0233376D01*
X0093874Y0233405D01*
X0093932Y0233430D01*
X0093991Y0233451D01*
X0094051Y0233469D01*
X0094113Y0233482D01*
X0094175Y0233492D01*
X0094237Y0233498D01*
X0094300Y0233500D01*
X0094363Y0233498D01*
X0094425Y0233492D01*
X0094487Y0233482D01*
X0094549Y0233469D01*
X0094609Y0233451D01*
X0094668Y0233430D01*
X0094726Y0233405D01*
X0094782Y0233376D01*
X0094836Y0233344D01*
X0094888Y0233309D01*
X0094937Y0233271D01*
X0094985Y0233229D01*
X0095029Y0233185D01*
X0095071Y0233137D01*
X0095109Y0233088D01*
X0095144Y0233036D01*
X0095176Y0232982D01*
X0095205Y0232926D01*
X0095230Y0232868D01*
X0095251Y0232809D01*
X0095269Y0232749D01*
X0095282Y0232687D01*
X0095292Y0232625D01*
X0095298Y0232563D01*
X0095300Y0232500D01*
X0095298Y0232437D01*
X0095292Y0232375D01*
X0095282Y0232313D01*
X0095269Y0232251D01*
X0095251Y0232191D01*
X0095230Y0232132D01*
X0095205Y0232074D01*
X0095176Y0232018D01*
X0095144Y0231964D01*
X0095109Y0231912D01*
X0095071Y0231863D01*
X0095029Y0231815D01*
X0094985Y0231771D01*
X0094937Y0231729D01*
X0094888Y0231691D01*
X0094836Y0231656D01*
X0094782Y0231624D01*
X0094726Y0231595D01*
X0094668Y0231570D01*
X0094609Y0231549D01*
X0094549Y0231531D01*
X0094487Y0231518D01*
X0094425Y0231508D01*
X0094363Y0231502D01*
X0094300Y0231500D01*
X0094237Y0231502D01*
X0094175Y0231508D01*
X0094113Y0231518D01*
X0094051Y0231531D01*
X0093991Y0231549D01*
X0093932Y0231570D01*
X0093874Y0231595D01*
X0093818Y0231624D01*
X0093764Y0231656D01*
X0093712Y0231691D01*
X0093663Y0231729D01*
X0093615Y0231771D01*
X0093571Y0231815D01*
X0093529Y0231863D01*
X0093491Y0231912D01*
X0093456Y0231964D01*
X0093424Y0232018D01*
X0093395Y0232074D01*
X0093370Y0232132D01*
X0093349Y0232191D01*
X0093331Y0232251D01*
X0093318Y0232313D01*
X0093308Y0232375D01*
X0093302Y0232437D01*
X0093300Y0232500D01*
X0087300Y0232500D02*
X0087302Y0232672D01*
X0087308Y0232843D01*
X0087319Y0233015D01*
X0087334Y0233186D01*
X0087353Y0233357D01*
X0087376Y0233527D01*
X0087403Y0233697D01*
X0087435Y0233866D01*
X0087470Y0234034D01*
X0087510Y0234201D01*
X0087554Y0234367D01*
X0087601Y0234532D01*
X0087653Y0234696D01*
X0087709Y0234858D01*
X0087769Y0235019D01*
X0087833Y0235179D01*
X0087901Y0235337D01*
X0087972Y0235493D01*
X0088047Y0235647D01*
X0088127Y0235800D01*
X0088209Y0235950D01*
X0088296Y0236099D01*
X0088386Y0236245D01*
X0088480Y0236389D01*
X0088577Y0236531D01*
X0088678Y0236670D01*
X0088782Y0236807D01*
X0088889Y0236941D01*
X0089000Y0237072D01*
X0089113Y0237201D01*
X0089230Y0237327D01*
X0089350Y0237450D01*
X0089473Y0237570D01*
X0089599Y0237687D01*
X0089728Y0237800D01*
X0089859Y0237911D01*
X0089993Y0238018D01*
X0090130Y0238122D01*
X0090269Y0238223D01*
X0090411Y0238320D01*
X0090555Y0238414D01*
X0090701Y0238504D01*
X0090850Y0238591D01*
X0091000Y0238673D01*
X0091153Y0238753D01*
X0091307Y0238828D01*
X0091463Y0238899D01*
X0091621Y0238967D01*
X0091781Y0239031D01*
X0091942Y0239091D01*
X0092104Y0239147D01*
X0092268Y0239199D01*
X0092433Y0239246D01*
X0092599Y0239290D01*
X0092766Y0239330D01*
X0092934Y0239365D01*
X0093103Y0239397D01*
X0093273Y0239424D01*
X0093443Y0239447D01*
X0093614Y0239466D01*
X0093785Y0239481D01*
X0093957Y0239492D01*
X0094128Y0239498D01*
X0094300Y0239500D01*
X0094472Y0239498D01*
X0094643Y0239492D01*
X0094815Y0239481D01*
X0094986Y0239466D01*
X0095157Y0239447D01*
X0095327Y0239424D01*
X0095497Y0239397D01*
X0095666Y0239365D01*
X0095834Y0239330D01*
X0096001Y0239290D01*
X0096167Y0239246D01*
X0096332Y0239199D01*
X0096496Y0239147D01*
X0096658Y0239091D01*
X0096819Y0239031D01*
X0096979Y0238967D01*
X0097137Y0238899D01*
X0097293Y0238828D01*
X0097447Y0238753D01*
X0097600Y0238673D01*
X0097750Y0238591D01*
X0097899Y0238504D01*
X0098045Y0238414D01*
X0098189Y0238320D01*
X0098331Y0238223D01*
X0098470Y0238122D01*
X0098607Y0238018D01*
X0098741Y0237911D01*
X0098872Y0237800D01*
X0099001Y0237687D01*
X0099127Y0237570D01*
X0099250Y0237450D01*
X0099370Y0237327D01*
X0099487Y0237201D01*
X0099600Y0237072D01*
X0099711Y0236941D01*
X0099818Y0236807D01*
X0099922Y0236670D01*
X0100023Y0236531D01*
X0100120Y0236389D01*
X0100214Y0236245D01*
X0100304Y0236099D01*
X0100391Y0235950D01*
X0100473Y0235800D01*
X0100553Y0235647D01*
X0100628Y0235493D01*
X0100699Y0235337D01*
X0100767Y0235179D01*
X0100831Y0235019D01*
X0100891Y0234858D01*
X0100947Y0234696D01*
X0100999Y0234532D01*
X0101046Y0234367D01*
X0101090Y0234201D01*
X0101130Y0234034D01*
X0101165Y0233866D01*
X0101197Y0233697D01*
X0101224Y0233527D01*
X0101247Y0233357D01*
X0101266Y0233186D01*
X0101281Y0233015D01*
X0101292Y0232843D01*
X0101298Y0232672D01*
X0101300Y0232500D01*
X0101298Y0232328D01*
X0101292Y0232157D01*
X0101281Y0231985D01*
X0101266Y0231814D01*
X0101247Y0231643D01*
X0101224Y0231473D01*
X0101197Y0231303D01*
X0101165Y0231134D01*
X0101130Y0230966D01*
X0101090Y0230799D01*
X0101046Y0230633D01*
X0100999Y0230468D01*
X0100947Y0230304D01*
X0100891Y0230142D01*
X0100831Y0229981D01*
X0100767Y0229821D01*
X0100699Y0229663D01*
X0100628Y0229507D01*
X0100553Y0229353D01*
X0100473Y0229200D01*
X0100391Y0229050D01*
X0100304Y0228901D01*
X0100214Y0228755D01*
X0100120Y0228611D01*
X0100023Y0228469D01*
X0099922Y0228330D01*
X0099818Y0228193D01*
X0099711Y0228059D01*
X0099600Y0227928D01*
X0099487Y0227799D01*
X0099370Y0227673D01*
X0099250Y0227550D01*
X0099127Y0227430D01*
X0099001Y0227313D01*
X0098872Y0227200D01*
X0098741Y0227089D01*
X0098607Y0226982D01*
X0098470Y0226878D01*
X0098331Y0226777D01*
X0098189Y0226680D01*
X0098045Y0226586D01*
X0097899Y0226496D01*
X0097750Y0226409D01*
X0097600Y0226327D01*
X0097447Y0226247D01*
X0097293Y0226172D01*
X0097137Y0226101D01*
X0096979Y0226033D01*
X0096819Y0225969D01*
X0096658Y0225909D01*
X0096496Y0225853D01*
X0096332Y0225801D01*
X0096167Y0225754D01*
X0096001Y0225710D01*
X0095834Y0225670D01*
X0095666Y0225635D01*
X0095497Y0225603D01*
X0095327Y0225576D01*
X0095157Y0225553D01*
X0094986Y0225534D01*
X0094815Y0225519D01*
X0094643Y0225508D01*
X0094472Y0225502D01*
X0094300Y0225500D01*
X0094128Y0225502D01*
X0093957Y0225508D01*
X0093785Y0225519D01*
X0093614Y0225534D01*
X0093443Y0225553D01*
X0093273Y0225576D01*
X0093103Y0225603D01*
X0092934Y0225635D01*
X0092766Y0225670D01*
X0092599Y0225710D01*
X0092433Y0225754D01*
X0092268Y0225801D01*
X0092104Y0225853D01*
X0091942Y0225909D01*
X0091781Y0225969D01*
X0091621Y0226033D01*
X0091463Y0226101D01*
X0091307Y0226172D01*
X0091153Y0226247D01*
X0091000Y0226327D01*
X0090850Y0226409D01*
X0090701Y0226496D01*
X0090555Y0226586D01*
X0090411Y0226680D01*
X0090269Y0226777D01*
X0090130Y0226878D01*
X0089993Y0226982D01*
X0089859Y0227089D01*
X0089728Y0227200D01*
X0089599Y0227313D01*
X0089473Y0227430D01*
X0089350Y0227550D01*
X0089230Y0227673D01*
X0089113Y0227799D01*
X0089000Y0227928D01*
X0088889Y0228059D01*
X0088782Y0228193D01*
X0088678Y0228330D01*
X0088577Y0228469D01*
X0088480Y0228611D01*
X0088386Y0228755D01*
X0088296Y0228901D01*
X0088209Y0229050D01*
X0088127Y0229200D01*
X0088047Y0229353D01*
X0087972Y0229507D01*
X0087901Y0229663D01*
X0087833Y0229821D01*
X0087769Y0229981D01*
X0087709Y0230142D01*
X0087653Y0230304D01*
X0087601Y0230468D01*
X0087554Y0230633D01*
X0087510Y0230799D01*
X0087470Y0230966D01*
X0087435Y0231134D01*
X0087403Y0231303D01*
X0087376Y0231473D01*
X0087353Y0231643D01*
X0087334Y0231814D01*
X0087319Y0231985D01*
X0087308Y0232157D01*
X0087302Y0232328D01*
X0087300Y0232500D01*
X0166300Y0235000D02*
X0166300Y0240000D01*
X0168800Y0242500D01*
X0173800Y0242500D01*
X0176300Y0240000D01*
X0178800Y0242500D01*
X0183800Y0242500D01*
X0186300Y0240000D01*
X0188800Y0242500D01*
X0193800Y0242500D01*
X0196300Y0240000D01*
X0198800Y0242500D01*
X0203800Y0242500D01*
X0206300Y0240000D01*
X0208800Y0242500D01*
X0213800Y0242500D01*
X0216300Y0240000D01*
X0218800Y0242500D01*
X0223800Y0242500D01*
X0226300Y0240000D01*
X0228800Y0242500D01*
X0233800Y0242500D01*
X0236300Y0240000D01*
X0238800Y0242500D01*
X0243800Y0242500D01*
X0246300Y0240000D01*
X0246300Y0235000D01*
X0243800Y0232500D01*
X0238800Y0232500D01*
X0236300Y0235000D01*
X0233800Y0232500D01*
X0228800Y0232500D01*
X0226300Y0235000D01*
X0226300Y0240000D01*
X0226300Y0235000D02*
X0223800Y0232500D01*
X0218800Y0232500D01*
X0216300Y0235000D01*
X0213800Y0232500D01*
X0208800Y0232500D01*
X0206300Y0235000D01*
X0203800Y0232500D01*
X0198800Y0232500D01*
X0196300Y0235000D01*
X0196300Y0240000D01*
X0196300Y0235000D02*
X0193800Y0232500D01*
X0188800Y0232500D01*
X0186300Y0235000D01*
X0183800Y0232500D01*
X0178800Y0232500D01*
X0176300Y0235000D01*
X0173800Y0232500D01*
X0168800Y0232500D01*
X0166300Y0235000D01*
X0176300Y0235000D02*
X0176300Y0240000D01*
X0186300Y0240000D02*
X0186300Y0235000D01*
X0206300Y0235000D02*
X0206300Y0240000D01*
X0216300Y0240000D02*
X0216300Y0235000D01*
X0236300Y0235000D02*
X0236300Y0240000D01*
D43*
X0256634Y0141650D02*
X0259770Y0138514D01*
X0259770Y0140082D02*
X0256634Y0140082D01*
X0256634Y0138514D02*
X0259770Y0141650D01*
X0258202Y0141650D02*
X0258202Y0138514D01*
D44*
X0042017Y0006736D02*
X0006583Y0006736D01*
X0006583Y0037839D01*
X0012489Y0037839D01*
X0012489Y0055161D01*
X0006583Y0055161D01*
X0006583Y0086264D01*
X0041623Y0086264D01*
X0042017Y0086264D02*
X0042017Y0006736D01*
X0006583Y0037839D02*
X0006583Y0055161D01*
X0013375Y0064000D02*
X0013375Y0069000D01*
X0017800Y0089600D02*
X0017800Y0115400D01*
X0030800Y0115400D01*
X0030800Y0089600D01*
X0017800Y0089600D01*
X0015200Y0118600D02*
X0038800Y0118598D01*
X0038800Y0144402D01*
X0015200Y0144400D01*
X0017111Y0214783D02*
X0017111Y0250217D01*
X0059237Y0250217D01*
X0059237Y0241949D01*
X0059237Y0223051D02*
X0059237Y0214783D01*
X0056481Y0214783D01*
X0037977Y0214783D02*
X0017111Y0214783D01*
X0146300Y0125938D02*
X0148769Y0128406D01*
X0151238Y0125938D01*
X0151238Y0121000D01*
X0151238Y0124703D02*
X0146300Y0124703D01*
X0146300Y0125938D02*
X0146300Y0121000D01*
X0156319Y0121000D02*
X0156319Y0128406D01*
X0153850Y0128406D02*
X0158788Y0128406D01*
X0161401Y0128406D02*
X0163870Y0125938D01*
X0166338Y0128406D01*
X0166338Y0121000D01*
X0168951Y0121000D02*
X0173889Y0121000D01*
X0176502Y0122234D02*
X0177736Y0121000D01*
X0180205Y0121000D01*
X0181439Y0122234D01*
X0181439Y0124703D01*
X0178971Y0124703D01*
X0181439Y0127172D02*
X0180205Y0128406D01*
X0177736Y0128406D01*
X0176502Y0127172D01*
X0176502Y0122234D01*
X0171420Y0124703D02*
X0168951Y0124703D01*
X0168951Y0128406D02*
X0168951Y0121000D01*
X0161401Y0121000D02*
X0161401Y0128406D01*
X0168951Y0128406D02*
X0173889Y0128406D01*
X0184052Y0125938D02*
X0184052Y0121000D01*
X0184052Y0124703D02*
X0188990Y0124703D01*
X0188990Y0125938D02*
X0188990Y0121000D01*
X0191603Y0122234D02*
X0192837Y0121000D01*
X0195306Y0121000D01*
X0196540Y0122234D01*
X0196540Y0123469D01*
X0195306Y0124703D01*
X0194071Y0124703D01*
X0195306Y0124703D02*
X0196540Y0125938D01*
X0196540Y0127172D01*
X0195306Y0128406D01*
X0192837Y0128406D01*
X0191603Y0127172D01*
X0188990Y0125938D02*
X0186521Y0128406D01*
X0184052Y0125938D01*
X0199153Y0127172D02*
X0200387Y0128406D01*
X0202856Y0128406D01*
X0204091Y0127172D01*
X0204091Y0125938D01*
X0199153Y0121000D01*
X0204091Y0121000D01*
X0206704Y0122234D02*
X0206704Y0123469D01*
X0207938Y0124703D01*
X0210407Y0124703D01*
X0211641Y0123469D01*
X0211641Y0122234D01*
X0210407Y0121000D01*
X0207938Y0121000D01*
X0206704Y0122234D01*
X0207938Y0124703D02*
X0206704Y0125938D01*
X0206704Y0127172D01*
X0207938Y0128406D01*
X0210407Y0128406D01*
X0211641Y0127172D01*
X0211641Y0125938D01*
X0210407Y0124703D01*
X0214254Y0123469D02*
X0217957Y0123469D01*
X0219192Y0124703D01*
X0219192Y0127172D01*
X0217957Y0128406D01*
X0214254Y0128406D01*
X0214254Y0121000D01*
X0278800Y0232500D02*
X0283800Y0232500D01*
X0286300Y0235000D01*
X0288800Y0232500D01*
X0293800Y0232500D01*
X0296300Y0235000D01*
X0298800Y0232500D01*
X0303800Y0232500D01*
X0306300Y0235000D01*
X0308800Y0232500D01*
X0313800Y0232500D01*
X0316300Y0235000D01*
X0318800Y0232500D01*
X0323800Y0232500D01*
X0326300Y0235000D01*
X0328800Y0232500D01*
X0333800Y0232500D01*
X0336300Y0235000D01*
X0336300Y0240000D01*
X0333800Y0242500D01*
X0328800Y0242500D01*
X0326300Y0240000D01*
X0323800Y0242500D01*
X0318800Y0242500D01*
X0316300Y0240000D01*
X0313800Y0242500D01*
X0308800Y0242500D01*
X0306300Y0240000D01*
X0303800Y0242500D01*
X0298800Y0242500D01*
X0296300Y0240000D01*
X0293800Y0242500D01*
X0288800Y0242500D01*
X0286300Y0240000D01*
X0283800Y0242500D01*
X0278800Y0242500D01*
X0276300Y0240000D01*
X0276300Y0235000D01*
X0278800Y0232500D01*
D45*
X0179300Y0165500D02*
X0155300Y0165500D01*
X0155056Y0165497D01*
X0154813Y0165488D01*
X0154570Y0165473D01*
X0154327Y0165453D01*
X0154085Y0165426D01*
X0153844Y0165393D01*
X0153604Y0165355D01*
X0153364Y0165311D01*
X0153126Y0165261D01*
X0152889Y0165205D01*
X0152653Y0165143D01*
X0152419Y0165076D01*
X0152187Y0165003D01*
X0151956Y0164924D01*
X0151728Y0164840D01*
X0151501Y0164750D01*
X0151277Y0164655D01*
X0151055Y0164554D01*
X0150836Y0164448D01*
X0150620Y0164337D01*
X0150406Y0164220D01*
X0150195Y0164099D01*
X0149987Y0163972D01*
X0149782Y0163840D01*
X0149581Y0163703D01*
X0149383Y0163561D01*
X0149188Y0163415D01*
X0148997Y0163264D01*
X0148810Y0163108D01*
X0148627Y0162948D01*
X0148447Y0162783D01*
X0148272Y0162614D01*
X0148101Y0162441D01*
X0147934Y0162263D01*
X0147772Y0162082D01*
X0147614Y0161897D01*
X0147460Y0161708D01*
X0147311Y0161515D01*
X0147167Y0161319D01*
X0147028Y0161119D01*
X0146893Y0160916D01*
X0146764Y0160709D01*
X0146640Y0160500D01*
X0146521Y0160288D01*
X0146407Y0160072D01*
X0146298Y0159855D01*
X0146195Y0159634D01*
X0146097Y0159411D01*
X0146004Y0159186D01*
X0145917Y0158958D01*
X0145836Y0158729D01*
X0145760Y0158497D01*
X0145690Y0158264D01*
X0145625Y0158029D01*
X0145566Y0157793D01*
X0145513Y0157555D01*
X0145466Y0157316D01*
X0145425Y0157076D01*
X0145390Y0156835D01*
X0145360Y0156594D01*
X0145336Y0156351D01*
X0145319Y0156108D01*
X0145307Y0155865D01*
X0145301Y0155622D01*
X0145301Y0155378D01*
X0145307Y0155135D01*
X0145319Y0154892D01*
X0145336Y0154649D01*
X0145360Y0154406D01*
X0145390Y0154165D01*
X0145425Y0153924D01*
X0145466Y0153684D01*
X0145513Y0153445D01*
X0145566Y0153207D01*
X0145625Y0152971D01*
X0145690Y0152736D01*
X0145760Y0152503D01*
X0145836Y0152271D01*
X0145917Y0152042D01*
X0146004Y0151814D01*
X0146097Y0151589D01*
X0146195Y0151366D01*
X0146298Y0151145D01*
X0146407Y0150928D01*
X0146521Y0150712D01*
X0146640Y0150500D01*
X0146764Y0150291D01*
X0146893Y0150084D01*
X0147028Y0149881D01*
X0147167Y0149681D01*
X0147311Y0149485D01*
X0147460Y0149292D01*
X0147614Y0149103D01*
X0147772Y0148918D01*
X0147934Y0148737D01*
X0148101Y0148559D01*
X0148272Y0148386D01*
X0148447Y0148217D01*
X0148627Y0148052D01*
X0148810Y0147892D01*
X0148997Y0147736D01*
X0149188Y0147585D01*
X0149383Y0147439D01*
X0149581Y0147297D01*
X0149782Y0147160D01*
X0149987Y0147028D01*
X0150195Y0146901D01*
X0150406Y0146780D01*
X0150620Y0146663D01*
X0150836Y0146552D01*
X0151055Y0146446D01*
X0151277Y0146345D01*
X0151501Y0146250D01*
X0151728Y0146160D01*
X0151956Y0146076D01*
X0152187Y0145997D01*
X0152419Y0145924D01*
X0152653Y0145857D01*
X0152889Y0145795D01*
X0153126Y0145739D01*
X0153364Y0145689D01*
X0153604Y0145645D01*
X0153844Y0145607D01*
X0154085Y0145574D01*
X0154327Y0145547D01*
X0154570Y0145527D01*
X0154813Y0145512D01*
X0155056Y0145503D01*
X0155300Y0145500D01*
X0179300Y0145500D01*
X0179544Y0145503D01*
X0179787Y0145512D01*
X0180030Y0145527D01*
X0180273Y0145547D01*
X0180515Y0145574D01*
X0180756Y0145607D01*
X0180996Y0145645D01*
X0181236Y0145689D01*
X0181474Y0145739D01*
X0181711Y0145795D01*
X0181947Y0145857D01*
X0182181Y0145924D01*
X0182413Y0145997D01*
X0182644Y0146076D01*
X0182872Y0146160D01*
X0183099Y0146250D01*
X0183323Y0146345D01*
X0183545Y0146446D01*
X0183764Y0146552D01*
X0183980Y0146663D01*
X0184194Y0146780D01*
X0184405Y0146901D01*
X0184613Y0147028D01*
X0184818Y0147160D01*
X0185019Y0147297D01*
X0185217Y0147439D01*
X0185412Y0147585D01*
X0185603Y0147736D01*
X0185790Y0147892D01*
X0185973Y0148052D01*
X0186153Y0148217D01*
X0186328Y0148386D01*
X0186499Y0148559D01*
X0186666Y0148737D01*
X0186828Y0148918D01*
X0186986Y0149103D01*
X0187140Y0149292D01*
X0187289Y0149485D01*
X0187433Y0149681D01*
X0187572Y0149881D01*
X0187707Y0150084D01*
X0187836Y0150291D01*
X0187960Y0150500D01*
X0188079Y0150712D01*
X0188193Y0150928D01*
X0188302Y0151145D01*
X0188405Y0151366D01*
X0188503Y0151589D01*
X0188596Y0151814D01*
X0188683Y0152042D01*
X0188764Y0152271D01*
X0188840Y0152503D01*
X0188910Y0152736D01*
X0188975Y0152971D01*
X0189034Y0153207D01*
X0189087Y0153445D01*
X0189134Y0153684D01*
X0189175Y0153924D01*
X0189210Y0154165D01*
X0189240Y0154406D01*
X0189264Y0154649D01*
X0189281Y0154892D01*
X0189293Y0155135D01*
X0189299Y0155378D01*
X0189299Y0155622D01*
X0189293Y0155865D01*
X0189281Y0156108D01*
X0189264Y0156351D01*
X0189240Y0156594D01*
X0189210Y0156835D01*
X0189175Y0157076D01*
X0189134Y0157316D01*
X0189087Y0157555D01*
X0189034Y0157793D01*
X0188975Y0158029D01*
X0188910Y0158264D01*
X0188840Y0158497D01*
X0188764Y0158729D01*
X0188683Y0158958D01*
X0188596Y0159186D01*
X0188503Y0159411D01*
X0188405Y0159634D01*
X0188302Y0159855D01*
X0188193Y0160072D01*
X0188079Y0160288D01*
X0187960Y0160500D01*
X0187836Y0160709D01*
X0187707Y0160916D01*
X0187572Y0161119D01*
X0187433Y0161319D01*
X0187289Y0161515D01*
X0187140Y0161708D01*
X0186986Y0161897D01*
X0186828Y0162082D01*
X0186666Y0162263D01*
X0186499Y0162441D01*
X0186328Y0162614D01*
X0186153Y0162783D01*
X0185973Y0162948D01*
X0185790Y0163108D01*
X0185603Y0163264D01*
X0185412Y0163415D01*
X0185217Y0163561D01*
X0185019Y0163703D01*
X0184818Y0163840D01*
X0184613Y0163972D01*
X0184405Y0164099D01*
X0184194Y0164220D01*
X0183980Y0164337D01*
X0183764Y0164448D01*
X0183545Y0164554D01*
X0183323Y0164655D01*
X0183099Y0164750D01*
X0182872Y0164840D01*
X0182644Y0164924D01*
X0182413Y0165003D01*
X0182181Y0165076D01*
X0181947Y0165143D01*
X0181711Y0165205D01*
X0181474Y0165261D01*
X0181236Y0165311D01*
X0180996Y0165355D01*
X0180756Y0165393D01*
X0180515Y0165426D01*
X0180273Y0165453D01*
X0180030Y0165473D01*
X0179787Y0165488D01*
X0179544Y0165497D01*
X0179300Y0165500D01*
D46*
X0106300Y0227500D02*
X0105300Y0227500D01*
X0105300Y0237500D01*
X0106300Y0237500D01*
X0083300Y0237500D02*
X0083300Y0228000D01*
X0082300Y0228000D01*
X0082300Y0237500D02*
X0083300Y0237500D01*
X0039800Y0153500D02*
X0039802Y0153599D01*
X0039808Y0153699D01*
X0039818Y0153798D01*
X0039832Y0153896D01*
X0039849Y0153994D01*
X0039871Y0154091D01*
X0039896Y0154187D01*
X0039925Y0154282D01*
X0039958Y0154376D01*
X0039995Y0154468D01*
X0040035Y0154559D01*
X0040079Y0154648D01*
X0040127Y0154736D01*
X0040178Y0154821D01*
X0040232Y0154904D01*
X0040289Y0154986D01*
X0040350Y0155064D01*
X0040414Y0155141D01*
X0040480Y0155214D01*
X0040550Y0155285D01*
X0040622Y0155353D01*
X0040697Y0155419D01*
X0040775Y0155481D01*
X0040855Y0155540D01*
X0040937Y0155596D01*
X0041021Y0155648D01*
X0041108Y0155697D01*
X0041196Y0155743D01*
X0041286Y0155785D01*
X0041378Y0155824D01*
X0041471Y0155859D01*
X0041565Y0155890D01*
X0041661Y0155917D01*
X0041758Y0155940D01*
X0041855Y0155960D01*
X0041953Y0155976D01*
X0042052Y0155988D01*
X0042151Y0155996D01*
X0042250Y0156000D01*
X0042350Y0156000D01*
X0042449Y0155996D01*
X0042548Y0155988D01*
X0042647Y0155976D01*
X0042745Y0155960D01*
X0042842Y0155940D01*
X0042939Y0155917D01*
X0043035Y0155890D01*
X0043129Y0155859D01*
X0043222Y0155824D01*
X0043314Y0155785D01*
X0043404Y0155743D01*
X0043492Y0155697D01*
X0043579Y0155648D01*
X0043663Y0155596D01*
X0043745Y0155540D01*
X0043825Y0155481D01*
X0043903Y0155419D01*
X0043978Y0155353D01*
X0044050Y0155285D01*
X0044120Y0155214D01*
X0044186Y0155141D01*
X0044250Y0155064D01*
X0044311Y0154986D01*
X0044368Y0154904D01*
X0044422Y0154821D01*
X0044473Y0154736D01*
X0044521Y0154648D01*
X0044565Y0154559D01*
X0044605Y0154468D01*
X0044642Y0154376D01*
X0044675Y0154282D01*
X0044704Y0154187D01*
X0044729Y0154091D01*
X0044751Y0153994D01*
X0044768Y0153896D01*
X0044782Y0153798D01*
X0044792Y0153699D01*
X0044798Y0153599D01*
X0044800Y0153500D01*
X0044798Y0153401D01*
X0044792Y0153301D01*
X0044782Y0153202D01*
X0044768Y0153104D01*
X0044751Y0153006D01*
X0044729Y0152909D01*
X0044704Y0152813D01*
X0044675Y0152718D01*
X0044642Y0152624D01*
X0044605Y0152532D01*
X0044565Y0152441D01*
X0044521Y0152352D01*
X0044473Y0152264D01*
X0044422Y0152179D01*
X0044368Y0152096D01*
X0044311Y0152014D01*
X0044250Y0151936D01*
X0044186Y0151859D01*
X0044120Y0151786D01*
X0044050Y0151715D01*
X0043978Y0151647D01*
X0043903Y0151581D01*
X0043825Y0151519D01*
X0043745Y0151460D01*
X0043663Y0151404D01*
X0043579Y0151352D01*
X0043492Y0151303D01*
X0043404Y0151257D01*
X0043314Y0151215D01*
X0043222Y0151176D01*
X0043129Y0151141D01*
X0043035Y0151110D01*
X0042939Y0151083D01*
X0042842Y0151060D01*
X0042745Y0151040D01*
X0042647Y0151024D01*
X0042548Y0151012D01*
X0042449Y0151004D01*
X0042350Y0151000D01*
X0042250Y0151000D01*
X0042151Y0151004D01*
X0042052Y0151012D01*
X0041953Y0151024D01*
X0041855Y0151040D01*
X0041758Y0151060D01*
X0041661Y0151083D01*
X0041565Y0151110D01*
X0041471Y0151141D01*
X0041378Y0151176D01*
X0041286Y0151215D01*
X0041196Y0151257D01*
X0041108Y0151303D01*
X0041021Y0151352D01*
X0040937Y0151404D01*
X0040855Y0151460D01*
X0040775Y0151519D01*
X0040697Y0151581D01*
X0040622Y0151647D01*
X0040550Y0151715D01*
X0040480Y0151786D01*
X0040414Y0151859D01*
X0040350Y0151936D01*
X0040289Y0152014D01*
X0040232Y0152096D01*
X0040178Y0152179D01*
X0040127Y0152264D01*
X0040079Y0152352D01*
X0040035Y0152441D01*
X0039995Y0152532D01*
X0039958Y0152624D01*
X0039925Y0152718D01*
X0039896Y0152813D01*
X0039871Y0152909D01*
X0039849Y0153006D01*
X0039832Y0153104D01*
X0039818Y0153202D01*
X0039808Y0153301D01*
X0039802Y0153401D01*
X0039800Y0153500D01*
D47*
X0040300Y0151500D02*
X0044300Y0155500D01*
D48*
X0040700Y0131500D03*
M02*
