%
M48
M72
T01C0.0197
T02C0.0320
T03C0.0400
T04C0.0440
T05C0.1102
T06C0.1180
%
T01
X3850Y3400
X5550Y4100
X7150Y4100
X7150Y2400
X6950Y1800
X5550Y2400
X5050Y6400
X4950Y10400
X6850Y13100
X8050Y13300
X10150Y14200
X11150Y15000
X10150Y10900
X17150Y4600
X14150Y3400
X27150Y4600
X29150Y4700
X28150Y13300
X34795Y24145
T02
X17700Y15700
X15800Y15700
X9050Y16400
X9050Y17400
X3850Y16000
X2850Y16000
X1850Y16000
X9050Y12600
X9050Y11600
X9050Y8700
X9050Y7700
T03
X1950Y2800
X2950Y2800
X2950Y3800
X1950Y3800
X1950Y4800
X2950Y4800
X2950Y5800
X1950Y5800
X1950Y6800
X2950Y6800
X11150Y1900
X12150Y1900
X13150Y1900
X14150Y1900
X15150Y1900
X16150Y1900
X17150Y1900
X18150Y1900
X19150Y1900
X20150Y1900
X21150Y1900
X22150Y1900
X23150Y1900
X24150Y1900
X25150Y1900
X25150Y900
X24150Y900
X23150Y900
X22150Y900
X21150Y900
X20150Y900
X19150Y900
X18150Y900
X17150Y900
X16150Y900
X15150Y900
X14150Y900
X13150Y900
X12150Y900
X11150Y900
X27150Y900
X28150Y900
X29150Y900
X30150Y900
X31150Y900
X32150Y900
X33150Y900
X33150Y1900
X32150Y1900
X31150Y1900
X30150Y1900
X29150Y1900
X28150Y1900
X27150Y1900
X24152Y18902
X23152Y18902
X22152Y18902
X21152Y18902
X20152Y18902
X19152Y18902
X18152Y18902
X17152Y18902
X16152Y18902
X15152Y18902
X14152Y18902
X13152Y18902
X12152Y18902
X11152Y18902
X10152Y18902
X9152Y18902
X8560Y22120
X10340Y22120
X10340Y24680
X8560Y24680
X2350Y19400
X2350Y18400
X17150Y23900
X18150Y23900
X19150Y23900
X20150Y23900
X21150Y23900
X22150Y23900
X23150Y23900
X24150Y23900
X24150Y24900
X23150Y24900
X22150Y24900
X21150Y24900
X20150Y24900
X19150Y24900
X18150Y24900
X17150Y24900
X28150Y23900
X29150Y23900
X30150Y23900
X31150Y23900
X32150Y23900
X33150Y23900
T04
X25150Y14100
X24150Y14100
X23150Y14100
X22150Y14100
X21150Y14100
X20150Y14100
X19150Y14100
X18150Y14100
X17150Y14100
X16150Y14100
X15150Y14100
X14150Y14100
X13150Y14100
X12150Y14100
X12150Y11100
X13150Y11100
X14150Y11100
X15150Y11100
X16150Y11100
X17150Y11100
X18150Y11100
X19150Y11100
X20150Y11100
X21150Y11100
X22150Y11100
X23150Y11100
X24150Y11100
X25150Y11100
T05
X36514Y6698
X36514Y18902
X6986Y18902
X6986Y6698
T06
X4763Y21550
X5944Y23400
X3581Y23400
M30
