G75*
%MOIN*%
%OFA0B0*%
%FSLAX25Y25*%
%IPPOS*%
%LPD*%
%AMOC8*
5,1,8,0,0,1.08239X$1,22.5*
%
%ADD10R,0.07400X0.07400*%
%ADD11C,0.07400*%
%ADD12C,0.06000*%
%ADD13C,0.06800*%
%ADD14OC8,0.07100*%
%ADD15C,0.07100*%
%ADD16C,0.06000*%
%ADD17R,0.08200X0.08200*%
%ADD18C,0.08200*%
%ADD19C,0.11824*%
%ADD20C,0.17800*%
%ADD21OC8,0.06800*%
D10*
X0251500Y0141000D03*
D11*
X0241500Y0141000D03*
X0231500Y0141000D03*
X0221500Y0141000D03*
X0211500Y0141000D03*
X0201500Y0141000D03*
X0191500Y0141000D03*
X0181500Y0141000D03*
X0171500Y0141000D03*
X0161500Y0141000D03*
X0151500Y0141000D03*
X0141500Y0141000D03*
X0131500Y0141000D03*
X0121500Y0141000D03*
X0121500Y0111000D03*
X0131500Y0111000D03*
X0141500Y0111000D03*
X0151500Y0111000D03*
X0161500Y0111000D03*
X0171500Y0111000D03*
X0181500Y0111000D03*
X0191500Y0111000D03*
X0201500Y0111000D03*
X0211500Y0111000D03*
X0221500Y0111000D03*
X0231500Y0111000D03*
X0241500Y0111000D03*
X0251500Y0111000D03*
D12*
X0177000Y0157000D03*
X0158000Y0157000D03*
D13*
X0103400Y0218200D02*
X0103400Y0224200D01*
X0085600Y0224200D02*
X0085600Y0218200D01*
X0085600Y0243800D02*
X0085600Y0249800D01*
X0103400Y0249800D02*
X0103400Y0243800D01*
X0026500Y0194000D02*
X0020500Y0194000D01*
X0020500Y0184000D02*
X0026500Y0184000D01*
D14*
X0090500Y0174000D03*
X0090500Y0126000D03*
X0090500Y0087000D03*
D15*
X0090500Y0077000D03*
X0090500Y0116000D03*
X0090500Y0164000D03*
D16*
X0038500Y0162600D02*
X0038500Y0157400D01*
X0028500Y0157400D02*
X0028500Y0162600D01*
X0018500Y0162600D02*
X0018500Y0157400D01*
D17*
X0091516Y0189024D03*
D18*
X0019500Y0028000D03*
X0029500Y0028000D03*
X0029500Y0038000D03*
X0019500Y0038000D03*
X0019500Y0048000D03*
X0029500Y0048000D03*
X0029500Y0058000D03*
X0019500Y0058000D03*
X0019500Y0068000D03*
X0029500Y0068000D03*
X0101516Y0189024D03*
X0111516Y0189024D03*
X0121516Y0189024D03*
X0131516Y0189024D03*
X0141516Y0189024D03*
X0151516Y0189024D03*
X0161516Y0189024D03*
X0171516Y0189024D03*
X0181516Y0189024D03*
X0191516Y0189024D03*
X0201516Y0189024D03*
X0211516Y0189024D03*
X0221516Y0189024D03*
X0231516Y0189024D03*
X0241516Y0189024D03*
X0281500Y0239000D03*
X0291500Y0239000D03*
X0301500Y0239000D03*
X0311500Y0239000D03*
X0321500Y0239000D03*
X0331500Y0239000D03*
D19*
X0365138Y0189024D03*
X0365138Y0066976D03*
X0069862Y0066976D03*
X0069862Y0189024D03*
D20*
X0047626Y0215496D03*
X0059437Y0234000D03*
X0035815Y0234000D03*
D21*
X0171500Y0239000D03*
X0181500Y0239000D03*
X0191500Y0239000D03*
X0201500Y0239000D03*
X0211500Y0239000D03*
X0221500Y0239000D03*
X0231500Y0239000D03*
X0241500Y0239000D03*
X0241500Y0249000D03*
X0231500Y0249000D03*
X0221500Y0249000D03*
X0211500Y0249000D03*
X0201500Y0249000D03*
X0191500Y0249000D03*
X0181500Y0249000D03*
X0171500Y0249000D03*
X0171500Y0019000D03*
X0181500Y0019000D03*
X0191500Y0019000D03*
X0201500Y0019000D03*
X0211500Y0019000D03*
X0221500Y0019000D03*
X0231500Y0019000D03*
X0241500Y0019000D03*
X0251500Y0019000D03*
X0251500Y0009000D03*
X0241500Y0009000D03*
X0231500Y0009000D03*
X0221500Y0009000D03*
X0211500Y0009000D03*
X0201500Y0009000D03*
X0191500Y0009000D03*
X0181500Y0009000D03*
X0171500Y0009000D03*
X0161500Y0009000D03*
X0151500Y0009000D03*
X0141500Y0009000D03*
X0131500Y0009000D03*
X0121500Y0009000D03*
X0111500Y0009000D03*
X0111500Y0019000D03*
X0121500Y0019000D03*
X0131500Y0019000D03*
X0141500Y0019000D03*
X0151500Y0019000D03*
X0161500Y0019000D03*
X0271500Y0019000D03*
X0281500Y0019000D03*
X0291500Y0019000D03*
X0301500Y0019000D03*
X0311500Y0019000D03*
X0321500Y0019000D03*
X0331500Y0019000D03*
X0331500Y0009000D03*
X0321500Y0009000D03*
X0311500Y0009000D03*
X0301500Y0009000D03*
X0291500Y0009000D03*
X0281500Y0009000D03*
X0271500Y0009000D03*
M02*
