G75*
%MOIN*%
%OFA0B0*%
%FSLAX25Y25*%
%IPPOS*%
%LPD*%
%AMOC8*
5,1,8,0,0,1.08239X$1,22.5*
%
%ADD10C,0.00500*%
%ADD11C,0.00400*%
%ADD12R,0.00900X0.00300*%
%ADD13R,0.01500X0.00300*%
%ADD14R,0.02100X0.00300*%
%ADD15R,0.02700X0.00300*%
%ADD16R,0.03000X0.00300*%
%ADD17R,0.03300X0.00300*%
%ADD18R,0.03600X0.00300*%
%ADD19R,0.03900X0.00300*%
%ADD20R,0.00300X0.00300*%
%ADD21R,0.04200X0.00300*%
%ADD22R,0.00600X0.00300*%
%ADD23R,0.04500X0.00300*%
%ADD24R,0.04800X0.00300*%
%ADD25R,0.05100X0.00300*%
%ADD26R,0.01200X0.00300*%
%ADD27R,0.05400X0.00300*%
%ADD28R,0.05700X0.00300*%
%ADD29R,0.01800X0.00300*%
%ADD30R,0.06000X0.00300*%
%ADD31R,0.06300X0.00300*%
%ADD32R,0.02400X0.00300*%
%ADD33R,0.06600X0.00300*%
%ADD34R,0.17400X0.00300*%
%ADD35R,0.13500X0.00300*%
%ADD36R,0.17700X0.00300*%
%ADD37R,0.13800X0.00300*%
%ADD38R,0.18000X0.00300*%
%ADD39R,0.14100X0.00300*%
%ADD40R,0.18300X0.00300*%
%ADD41R,0.14400X0.00300*%
%ADD42C,0.00600*%
%ADD43C,0.00300*%
%ADD44C,0.00800*%
%ADD45C,0.01600*%
%ADD46C,0.00200*%
%ADD47C,0.01200*%
%ADD48R,0.03000X0.03400*%
D10*
X0044746Y0033022D02*
X0048499Y0033022D01*
X0049250Y0033773D01*
X0049250Y0035274D01*
X0048499Y0036025D01*
X0044746Y0036025D01*
X0045497Y0037626D02*
X0046247Y0037626D01*
X0046998Y0038377D01*
X0046998Y0039878D01*
X0047749Y0040629D01*
X0048499Y0040629D01*
X0049250Y0039878D01*
X0049250Y0038377D01*
X0048499Y0037626D01*
X0045497Y0037626D02*
X0044746Y0038377D01*
X0044746Y0039878D01*
X0045497Y0040629D01*
X0044746Y0042230D02*
X0044746Y0044482D01*
X0045497Y0045233D01*
X0046247Y0045233D01*
X0046998Y0044482D01*
X0046998Y0042230D01*
X0049250Y0042230D02*
X0044746Y0042230D01*
X0046998Y0044482D02*
X0047749Y0045233D01*
X0048499Y0045233D01*
X0049250Y0044482D01*
X0049250Y0042230D01*
X0046998Y0046834D02*
X0046998Y0049837D01*
X0046998Y0051438D02*
X0046998Y0054441D01*
X0046247Y0054441D02*
X0049250Y0054441D01*
X0048499Y0056042D02*
X0049250Y0056793D01*
X0049250Y0058294D01*
X0048499Y0059045D01*
X0047749Y0059045D01*
X0046998Y0058294D01*
X0046998Y0056793D01*
X0046247Y0056042D01*
X0045497Y0056042D01*
X0044746Y0056793D01*
X0044746Y0058294D01*
X0045497Y0059045D01*
X0044746Y0060646D02*
X0044746Y0062898D01*
X0045497Y0063649D01*
X0046998Y0063649D01*
X0047749Y0062898D01*
X0047749Y0060646D01*
X0049250Y0060646D02*
X0044746Y0060646D01*
X0046247Y0054441D02*
X0044746Y0052939D01*
X0046247Y0051438D01*
X0049250Y0051438D01*
X0053250Y0019875D02*
X0053250Y0016125D01*
X0053844Y0013254D02*
X0056096Y0013254D01*
X0056847Y0012503D01*
X0056847Y0011002D01*
X0056096Y0010251D01*
X0053844Y0010251D01*
X0053844Y0008750D02*
X0053844Y0013254D01*
X0058448Y0012503D02*
X0058448Y0009501D01*
X0059199Y0008750D01*
X0060700Y0008750D01*
X0061451Y0009501D01*
X0061451Y0012503D01*
X0060700Y0013254D01*
X0059199Y0013254D01*
X0058448Y0012503D01*
X0063052Y0013254D02*
X0063052Y0008750D01*
X0064553Y0010251D01*
X0066055Y0008750D01*
X0066055Y0013254D01*
X0073250Y0016125D02*
X0073250Y0019875D01*
X0073844Y0013254D02*
X0076096Y0013254D01*
X0076847Y0012503D01*
X0076847Y0011002D01*
X0076096Y0010251D01*
X0073844Y0010251D01*
X0073844Y0008750D02*
X0073844Y0013254D01*
X0078448Y0013254D02*
X0080700Y0013254D01*
X0081451Y0012503D01*
X0081451Y0011753D01*
X0080700Y0011002D01*
X0078448Y0011002D01*
X0078448Y0008750D02*
X0078448Y0013254D01*
X0080700Y0011002D02*
X0081451Y0010251D01*
X0081451Y0009501D01*
X0080700Y0008750D01*
X0078448Y0008750D01*
X0083052Y0009501D02*
X0083803Y0008750D01*
X0085304Y0008750D01*
X0086055Y0009501D01*
X0086055Y0011002D01*
X0085304Y0011753D01*
X0084553Y0011753D01*
X0083052Y0011002D01*
X0083052Y0013254D01*
X0086055Y0013254D01*
X0108746Y0027250D02*
X0108746Y0029502D01*
X0109497Y0030253D01*
X0110998Y0030253D01*
X0111749Y0029502D01*
X0111749Y0027250D01*
X0113250Y0027250D02*
X0108746Y0027250D01*
X0108746Y0031854D02*
X0108746Y0034106D01*
X0109497Y0034856D01*
X0110247Y0034856D01*
X0110998Y0034106D01*
X0110998Y0031854D01*
X0113250Y0031854D02*
X0108746Y0031854D01*
X0110998Y0034106D02*
X0111749Y0034856D01*
X0112499Y0034856D01*
X0113250Y0034106D01*
X0113250Y0031854D01*
X0112499Y0036458D02*
X0109497Y0036458D01*
X0108746Y0037208D01*
X0108746Y0038710D01*
X0109497Y0039460D01*
X0112499Y0036458D01*
X0113250Y0037208D01*
X0113250Y0038710D01*
X0112499Y0039460D01*
X0109497Y0039460D01*
X0118746Y0037959D02*
X0120247Y0036458D01*
X0120247Y0034856D02*
X0120998Y0034106D01*
X0120998Y0031854D01*
X0120998Y0030253D02*
X0121749Y0029502D01*
X0121749Y0027250D01*
X0123250Y0027250D02*
X0118746Y0027250D01*
X0118746Y0029502D01*
X0119497Y0030253D01*
X0120998Y0030253D01*
X0118746Y0031854D02*
X0118746Y0034106D01*
X0119497Y0034856D01*
X0120247Y0034856D01*
X0120998Y0034106D02*
X0121749Y0034856D01*
X0122499Y0034856D01*
X0123250Y0034106D01*
X0123250Y0031854D01*
X0118746Y0031854D01*
X0123250Y0036458D02*
X0123250Y0039460D01*
X0123250Y0037959D02*
X0118746Y0037959D01*
X0128746Y0037208D02*
X0129497Y0036458D01*
X0128746Y0037208D02*
X0128746Y0038710D01*
X0129497Y0039460D01*
X0130247Y0039460D01*
X0133250Y0036458D01*
X0133250Y0039460D01*
X0138746Y0038710D02*
X0139497Y0039460D01*
X0140247Y0039460D01*
X0140998Y0038710D01*
X0141749Y0039460D01*
X0142499Y0039460D01*
X0143250Y0038710D01*
X0143250Y0037208D01*
X0142499Y0036458D01*
X0142499Y0034856D02*
X0143250Y0034106D01*
X0143250Y0031854D01*
X0138746Y0031854D01*
X0138746Y0034106D01*
X0139497Y0034856D01*
X0140247Y0034856D01*
X0140998Y0034106D01*
X0140998Y0031854D01*
X0140998Y0030253D02*
X0139497Y0030253D01*
X0138746Y0029502D01*
X0138746Y0027250D01*
X0143250Y0027250D01*
X0141749Y0027250D02*
X0141749Y0029502D01*
X0140998Y0030253D01*
X0140998Y0034106D02*
X0141749Y0034856D01*
X0142499Y0034856D01*
X0139497Y0036458D02*
X0138746Y0037208D01*
X0138746Y0038710D01*
X0140998Y0038710D02*
X0140998Y0037959D01*
X0148746Y0038710D02*
X0150998Y0036458D01*
X0150998Y0039460D01*
X0153250Y0038710D02*
X0148746Y0038710D01*
X0149497Y0034856D02*
X0150247Y0034856D01*
X0150998Y0034106D01*
X0150998Y0031854D01*
X0150998Y0030253D02*
X0151749Y0029502D01*
X0151749Y0027250D01*
X0153250Y0027250D02*
X0148746Y0027250D01*
X0148746Y0029502D01*
X0149497Y0030253D01*
X0150998Y0030253D01*
X0148746Y0031854D02*
X0148746Y0034106D01*
X0149497Y0034856D01*
X0150998Y0034106D02*
X0151749Y0034856D01*
X0152499Y0034856D01*
X0153250Y0034106D01*
X0153250Y0031854D01*
X0148746Y0031854D01*
X0158746Y0031854D02*
X0158746Y0034106D01*
X0159497Y0034856D01*
X0160247Y0034856D01*
X0160998Y0034106D01*
X0160998Y0031854D01*
X0160998Y0030253D02*
X0159497Y0030253D01*
X0158746Y0029502D01*
X0158746Y0027250D01*
X0163250Y0027250D01*
X0161749Y0027250D02*
X0161749Y0029502D01*
X0160998Y0030253D01*
X0163250Y0031854D02*
X0158746Y0031854D01*
X0160998Y0034106D02*
X0161749Y0034856D01*
X0162499Y0034856D01*
X0163250Y0034106D01*
X0163250Y0031854D01*
X0162499Y0036458D02*
X0163250Y0037208D01*
X0163250Y0038710D01*
X0162499Y0039460D01*
X0160998Y0039460D01*
X0160247Y0038710D01*
X0160247Y0037959D01*
X0160998Y0036458D01*
X0158746Y0036458D01*
X0158746Y0039460D01*
X0168746Y0034856D02*
X0171749Y0034856D01*
X0173250Y0033355D01*
X0171749Y0031854D01*
X0168746Y0031854D01*
X0168746Y0030253D02*
X0168746Y0027250D01*
X0170998Y0027250D01*
X0170247Y0028751D01*
X0170247Y0029502D01*
X0170998Y0030253D01*
X0172499Y0030253D01*
X0173250Y0029502D01*
X0173250Y0028001D01*
X0172499Y0027250D01*
X0178746Y0028751D02*
X0180247Y0030253D01*
X0183250Y0030253D01*
X0183250Y0031854D02*
X0178746Y0031854D01*
X0178746Y0034106D01*
X0179497Y0034856D01*
X0180998Y0034856D01*
X0181749Y0034106D01*
X0181749Y0031854D01*
X0181749Y0033355D02*
X0183250Y0034856D01*
X0183250Y0036458D02*
X0183250Y0039460D01*
X0183250Y0041062D02*
X0178746Y0041062D01*
X0178746Y0044064D01*
X0180998Y0042563D02*
X0180998Y0041062D01*
X0178746Y0039460D02*
X0178746Y0036458D01*
X0183250Y0036458D01*
X0180998Y0036458D02*
X0180998Y0037959D01*
X0188746Y0038710D02*
X0188746Y0036458D01*
X0193250Y0036458D01*
X0193250Y0038710D01*
X0192499Y0039460D01*
X0189497Y0039460D01*
X0188746Y0038710D01*
X0188746Y0034856D02*
X0193250Y0034856D01*
X0188746Y0031854D01*
X0193250Y0031854D01*
X0192499Y0030253D02*
X0190998Y0030253D01*
X0190998Y0028751D01*
X0189497Y0027250D02*
X0192499Y0027250D01*
X0193250Y0028001D01*
X0193250Y0029502D01*
X0192499Y0030253D01*
X0189497Y0030253D02*
X0188746Y0029502D01*
X0188746Y0028001D01*
X0189497Y0027250D01*
X0183250Y0027250D02*
X0180247Y0027250D01*
X0178746Y0028751D01*
X0180998Y0027250D02*
X0180998Y0030253D01*
X0198746Y0029502D02*
X0198746Y0027250D01*
X0203250Y0027250D01*
X0201749Y0027250D02*
X0201749Y0029502D01*
X0200998Y0030253D01*
X0199497Y0030253D01*
X0198746Y0029502D01*
X0199497Y0031854D02*
X0202499Y0031854D01*
X0203250Y0032605D01*
X0203250Y0034106D01*
X0202499Y0034856D01*
X0202499Y0036458D02*
X0199497Y0039460D01*
X0202499Y0039460D01*
X0203250Y0038710D01*
X0203250Y0037208D01*
X0202499Y0036458D01*
X0199497Y0036458D01*
X0198746Y0037208D01*
X0198746Y0038710D01*
X0199497Y0039460D01*
X0199497Y0034856D02*
X0198746Y0034106D01*
X0198746Y0032605D01*
X0199497Y0031854D01*
X0208746Y0032605D02*
X0209497Y0031854D01*
X0212499Y0031854D01*
X0213250Y0032605D01*
X0213250Y0034106D01*
X0212499Y0034856D01*
X0213250Y0036458D02*
X0213250Y0039460D01*
X0213250Y0037959D02*
X0208746Y0037959D01*
X0210247Y0036458D01*
X0209497Y0034856D02*
X0208746Y0034106D01*
X0208746Y0032605D01*
X0209497Y0030253D02*
X0208746Y0029502D01*
X0208746Y0027250D01*
X0213250Y0027250D01*
X0211749Y0027250D02*
X0211749Y0029502D01*
X0210998Y0030253D01*
X0209497Y0030253D01*
X0218746Y0029502D02*
X0218746Y0027250D01*
X0223250Y0027250D01*
X0221749Y0027250D02*
X0221749Y0029502D01*
X0220998Y0030253D01*
X0219497Y0030253D01*
X0218746Y0029502D01*
X0219497Y0031854D02*
X0222499Y0031854D01*
X0223250Y0032605D01*
X0223250Y0034106D01*
X0222499Y0034856D01*
X0223250Y0036458D02*
X0220247Y0039460D01*
X0219497Y0039460D01*
X0218746Y0038710D01*
X0218746Y0037208D01*
X0219497Y0036458D01*
X0219497Y0034856D02*
X0218746Y0034106D01*
X0218746Y0032605D01*
X0219497Y0031854D01*
X0223250Y0036458D02*
X0223250Y0039460D01*
X0228746Y0038710D02*
X0229497Y0039460D01*
X0230247Y0039460D01*
X0230998Y0038710D01*
X0231749Y0039460D01*
X0232499Y0039460D01*
X0233250Y0038710D01*
X0233250Y0037208D01*
X0232499Y0036458D01*
X0232499Y0034856D02*
X0233250Y0034106D01*
X0233250Y0032605D01*
X0232499Y0031854D01*
X0229497Y0031854D01*
X0228746Y0032605D01*
X0228746Y0034106D01*
X0229497Y0034856D01*
X0229497Y0036458D02*
X0228746Y0037208D01*
X0228746Y0038710D01*
X0230998Y0038710D02*
X0230998Y0037959D01*
X0238746Y0038710D02*
X0240998Y0036458D01*
X0240998Y0039460D01*
X0243250Y0038710D02*
X0238746Y0038710D01*
X0239497Y0034856D02*
X0238746Y0034106D01*
X0238746Y0032605D01*
X0239497Y0031854D01*
X0242499Y0031854D01*
X0243250Y0032605D01*
X0243250Y0034106D01*
X0242499Y0034856D01*
X0240998Y0030253D02*
X0241749Y0029502D01*
X0241749Y0027250D01*
X0243250Y0027250D02*
X0238746Y0027250D01*
X0238746Y0029502D01*
X0239497Y0030253D01*
X0240998Y0030253D01*
X0248746Y0029502D02*
X0248746Y0027250D01*
X0253250Y0027250D01*
X0251749Y0027250D02*
X0251749Y0029502D01*
X0250998Y0030253D01*
X0249497Y0030253D01*
X0248746Y0029502D01*
X0249497Y0031854D02*
X0252499Y0031854D01*
X0253250Y0032605D01*
X0253250Y0034106D01*
X0252499Y0034856D01*
X0252499Y0036458D02*
X0253250Y0037208D01*
X0253250Y0038710D01*
X0252499Y0039460D01*
X0250998Y0039460D01*
X0250247Y0038710D01*
X0250247Y0037959D01*
X0250998Y0036458D01*
X0248746Y0036458D01*
X0248746Y0039460D01*
X0249497Y0034856D02*
X0248746Y0034106D01*
X0248746Y0032605D01*
X0249497Y0031854D01*
X0233250Y0027250D02*
X0228746Y0027250D01*
X0228746Y0029502D01*
X0229497Y0030253D01*
X0230998Y0030253D01*
X0231749Y0029502D01*
X0231749Y0027250D01*
X0268746Y0027250D02*
X0270998Y0027250D01*
X0270247Y0028751D01*
X0270247Y0029502D01*
X0270998Y0030253D01*
X0272499Y0030253D01*
X0273250Y0029502D01*
X0273250Y0028001D01*
X0272499Y0027250D01*
X0268746Y0027250D02*
X0268746Y0030253D01*
X0268746Y0031854D02*
X0271749Y0031854D01*
X0273250Y0033355D01*
X0271749Y0034856D01*
X0268746Y0034856D01*
X0278746Y0034856D02*
X0283250Y0034856D01*
X0278746Y0031854D01*
X0283250Y0031854D01*
X0282499Y0030253D02*
X0280998Y0030253D01*
X0280998Y0028751D01*
X0279497Y0027250D02*
X0282499Y0027250D01*
X0283250Y0028001D01*
X0283250Y0029502D01*
X0282499Y0030253D01*
X0279497Y0030253D02*
X0278746Y0029502D01*
X0278746Y0028001D01*
X0279497Y0027250D01*
X0288746Y0028001D02*
X0288746Y0029502D01*
X0289497Y0030253D01*
X0290247Y0030253D01*
X0290998Y0029502D01*
X0291749Y0030253D01*
X0292499Y0030253D01*
X0293250Y0029502D01*
X0293250Y0028001D01*
X0292499Y0027250D01*
X0290998Y0028751D02*
X0290998Y0029502D01*
X0289497Y0027250D02*
X0288746Y0028001D01*
X0292499Y0031854D02*
X0292499Y0032605D01*
X0293250Y0032605D01*
X0293250Y0031854D01*
X0292499Y0031854D01*
X0292499Y0034156D02*
X0293250Y0034907D01*
X0293250Y0036408D01*
X0292499Y0037158D01*
X0291749Y0037158D01*
X0290998Y0036408D01*
X0290998Y0035657D01*
X0290998Y0036408D02*
X0290247Y0037158D01*
X0289497Y0037158D01*
X0288746Y0036408D01*
X0288746Y0034907D01*
X0289497Y0034156D01*
X0288746Y0038760D02*
X0291749Y0038760D01*
X0293250Y0040261D01*
X0291749Y0041762D01*
X0288746Y0041762D01*
X0283250Y0038710D02*
X0282499Y0039460D01*
X0279497Y0039460D01*
X0278746Y0038710D01*
X0278746Y0036458D01*
X0283250Y0036458D01*
X0283250Y0038710D01*
X0297746Y0039460D02*
X0297746Y0036458D01*
X0302250Y0036458D01*
X0302250Y0039460D01*
X0302250Y0041062D02*
X0297746Y0041062D01*
X0297746Y0044064D01*
X0299998Y0042563D02*
X0299998Y0041062D01*
X0299998Y0037959D02*
X0299998Y0036458D01*
X0299998Y0034856D02*
X0300749Y0034106D01*
X0300749Y0031854D01*
X0302250Y0031854D02*
X0297746Y0031854D01*
X0297746Y0034106D01*
X0298497Y0034856D01*
X0299998Y0034856D01*
X0300749Y0033355D02*
X0302250Y0034856D01*
X0302250Y0030253D02*
X0299247Y0030253D01*
X0297746Y0028751D01*
X0299247Y0027250D01*
X0302250Y0027250D01*
X0299998Y0027250D02*
X0299998Y0030253D01*
X0308746Y0029502D02*
X0308746Y0027250D01*
X0313250Y0027250D01*
X0311749Y0027250D02*
X0311749Y0029502D01*
X0310998Y0030253D01*
X0309497Y0030253D01*
X0308746Y0029502D01*
X0308746Y0031854D02*
X0313250Y0031854D01*
X0313250Y0034856D01*
X0312499Y0036458D02*
X0313250Y0037208D01*
X0313250Y0038710D01*
X0312499Y0039460D01*
X0311749Y0039460D01*
X0310998Y0038710D01*
X0310998Y0037208D01*
X0310247Y0036458D01*
X0309497Y0036458D01*
X0308746Y0037208D01*
X0308746Y0038710D01*
X0309497Y0039460D01*
X0308746Y0041062D02*
X0313250Y0041062D01*
X0313250Y0044064D01*
X0310998Y0042563D02*
X0310998Y0041062D01*
X0308746Y0041062D02*
X0308746Y0044064D01*
X0308746Y0045666D02*
X0308746Y0048668D01*
X0308746Y0047167D02*
X0313250Y0047167D01*
X0323250Y0039460D02*
X0323250Y0036458D01*
X0318746Y0036458D01*
X0319497Y0034856D02*
X0318746Y0034106D01*
X0318746Y0032605D01*
X0319497Y0031854D01*
X0322499Y0031854D01*
X0323250Y0032605D01*
X0323250Y0034106D01*
X0322499Y0034856D01*
X0322499Y0030253D02*
X0323250Y0029502D01*
X0323250Y0028001D01*
X0322499Y0027250D01*
X0320998Y0028001D02*
X0320998Y0029502D01*
X0321749Y0030253D01*
X0322499Y0030253D01*
X0320998Y0028001D02*
X0320247Y0027250D01*
X0319497Y0027250D01*
X0318746Y0028001D01*
X0318746Y0029502D01*
X0319497Y0030253D01*
X0313250Y0030253D02*
X0311749Y0028751D01*
X0310998Y0031854D02*
X0310998Y0033355D01*
X0308746Y0034856D02*
X0308746Y0031854D01*
X0328746Y0031854D02*
X0328746Y0034106D01*
X0329497Y0034856D01*
X0332499Y0034856D01*
X0333250Y0034106D01*
X0333250Y0031854D01*
X0328746Y0031854D01*
X0329497Y0030253D02*
X0328746Y0029502D01*
X0328746Y0028001D01*
X0329497Y0027250D01*
X0330247Y0027250D01*
X0330998Y0028001D01*
X0330998Y0029502D01*
X0331749Y0030253D01*
X0332499Y0030253D01*
X0333250Y0029502D01*
X0333250Y0028001D01*
X0332499Y0027250D01*
X0333250Y0036458D02*
X0330247Y0036458D01*
X0328746Y0037959D01*
X0330247Y0039460D01*
X0333250Y0039460D01*
X0330998Y0039460D02*
X0330998Y0036458D01*
X0133250Y0034106D02*
X0133250Y0031854D01*
X0128746Y0031854D01*
X0128746Y0034106D01*
X0129497Y0034856D01*
X0130247Y0034856D01*
X0130998Y0034106D01*
X0130998Y0031854D01*
X0130998Y0030253D02*
X0131749Y0029502D01*
X0131749Y0027250D01*
X0133250Y0027250D02*
X0128746Y0027250D01*
X0128746Y0029502D01*
X0129497Y0030253D01*
X0130998Y0030253D01*
X0130998Y0034106D02*
X0131749Y0034856D01*
X0132499Y0034856D01*
X0133250Y0034106D01*
X0045753Y0162750D02*
X0042750Y0162750D01*
X0044251Y0162750D02*
X0044251Y0167254D01*
X0042750Y0165753D01*
X0014253Y0165753D02*
X0013502Y0165002D01*
X0014253Y0164251D01*
X0014253Y0163501D01*
X0013502Y0162750D01*
X0012001Y0162750D01*
X0011250Y0163501D01*
X0012751Y0165002D02*
X0013502Y0165002D01*
X0014253Y0165753D02*
X0014253Y0166503D01*
X0013502Y0167254D01*
X0012001Y0167254D01*
X0011250Y0166503D01*
X0070946Y0222528D02*
X0075450Y0222528D01*
X0075450Y0224029D02*
X0075450Y0221026D01*
X0072447Y0221026D02*
X0070946Y0222528D01*
X0071697Y0225630D02*
X0070946Y0226381D01*
X0070946Y0227882D01*
X0071697Y0228633D01*
X0072447Y0228633D01*
X0075450Y0225630D01*
X0075450Y0228633D01*
X0073949Y0230234D02*
X0070946Y0230234D01*
X0073949Y0230234D02*
X0075450Y0231736D01*
X0073949Y0233237D01*
X0070946Y0233237D01*
X0076201Y0234838D02*
X0076201Y0237841D01*
X0075450Y0239442D02*
X0075450Y0241694D01*
X0074699Y0242445D01*
X0071697Y0242445D01*
X0070946Y0241694D01*
X0070946Y0239442D01*
X0075450Y0239442D01*
X0074699Y0244046D02*
X0071697Y0244046D01*
X0070946Y0244797D01*
X0070946Y0246298D01*
X0071697Y0247049D01*
X0074699Y0247049D02*
X0075450Y0246298D01*
X0075450Y0244797D01*
X0074699Y0244046D01*
X0109246Y0244649D02*
X0109246Y0241646D01*
X0109246Y0243147D02*
X0113750Y0243147D01*
X0113750Y0240045D02*
X0113750Y0237042D01*
X0109246Y0237042D01*
X0109246Y0240045D01*
X0111498Y0238543D02*
X0111498Y0237042D01*
X0112249Y0235441D02*
X0112999Y0235441D01*
X0113750Y0234690D01*
X0113750Y0233189D01*
X0112999Y0232438D01*
X0111498Y0233189D02*
X0111498Y0234690D01*
X0112249Y0235441D01*
X0109997Y0235441D02*
X0109246Y0234690D01*
X0109246Y0233189D01*
X0109997Y0232438D01*
X0110747Y0232438D01*
X0111498Y0233189D01*
X0109246Y0230837D02*
X0109246Y0227834D01*
X0113750Y0227834D01*
X0113750Y0230837D01*
X0111498Y0229336D02*
X0111498Y0227834D01*
X0111498Y0226233D02*
X0112249Y0225482D01*
X0112249Y0223230D01*
X0113750Y0223230D02*
X0109246Y0223230D01*
X0109246Y0225482D01*
X0109997Y0226233D01*
X0111498Y0226233D01*
X0112249Y0224732D02*
X0113750Y0226233D01*
X0169746Y0225106D02*
X0169746Y0222854D01*
X0174250Y0222854D01*
X0174250Y0225106D01*
X0173499Y0225856D01*
X0170497Y0225856D01*
X0169746Y0225106D01*
X0169746Y0227458D02*
X0169746Y0230460D01*
X0170497Y0230460D01*
X0173499Y0227458D01*
X0174250Y0227458D01*
X0179746Y0225106D02*
X0179746Y0222854D01*
X0184250Y0222854D01*
X0184250Y0225106D01*
X0183499Y0225856D01*
X0180497Y0225856D01*
X0179746Y0225106D01*
X0181998Y0227458D02*
X0181998Y0229710D01*
X0182749Y0230460D01*
X0183499Y0230460D01*
X0184250Y0229710D01*
X0184250Y0228208D01*
X0183499Y0227458D01*
X0181998Y0227458D01*
X0180497Y0228959D01*
X0179746Y0230460D01*
X0189746Y0230460D02*
X0189746Y0227458D01*
X0191998Y0227458D01*
X0191247Y0228959D01*
X0191247Y0229710D01*
X0191998Y0230460D01*
X0193499Y0230460D01*
X0194250Y0229710D01*
X0194250Y0228208D01*
X0193499Y0227458D01*
X0193499Y0225856D02*
X0190497Y0225856D01*
X0189746Y0225106D01*
X0189746Y0222854D01*
X0194250Y0222854D01*
X0194250Y0225106D01*
X0193499Y0225856D01*
X0191998Y0221253D02*
X0192749Y0220502D01*
X0192749Y0218250D01*
X0194250Y0218250D02*
X0189746Y0218250D01*
X0189746Y0220502D01*
X0190497Y0221253D01*
X0191998Y0221253D01*
X0199746Y0220502D02*
X0199746Y0218250D01*
X0204250Y0218250D01*
X0202749Y0218250D02*
X0202749Y0220502D01*
X0201998Y0221253D01*
X0200497Y0221253D01*
X0199746Y0220502D01*
X0199746Y0222854D02*
X0199746Y0225106D01*
X0200497Y0225856D01*
X0203499Y0225856D01*
X0204250Y0225106D01*
X0204250Y0222854D01*
X0199746Y0222854D01*
X0201998Y0227458D02*
X0201998Y0230460D01*
X0204250Y0229710D02*
X0199746Y0229710D01*
X0201998Y0227458D01*
X0209746Y0228208D02*
X0209746Y0229710D01*
X0210497Y0230460D01*
X0211247Y0230460D01*
X0211998Y0229710D01*
X0212749Y0230460D01*
X0213499Y0230460D01*
X0214250Y0229710D01*
X0214250Y0228208D01*
X0213499Y0227458D01*
X0213499Y0225856D02*
X0210497Y0225856D01*
X0209746Y0225106D01*
X0209746Y0222854D01*
X0214250Y0222854D01*
X0214250Y0225106D01*
X0213499Y0225856D01*
X0210497Y0227458D02*
X0209746Y0228208D01*
X0211998Y0228959D02*
X0211998Y0229710D01*
X0219746Y0229710D02*
X0219746Y0228208D01*
X0220497Y0227458D01*
X0220497Y0225856D02*
X0219746Y0225106D01*
X0219746Y0222854D01*
X0224250Y0222854D01*
X0224250Y0225106D01*
X0223499Y0225856D01*
X0220497Y0225856D01*
X0224250Y0227458D02*
X0221247Y0230460D01*
X0220497Y0230460D01*
X0219746Y0229710D01*
X0224250Y0230460D02*
X0224250Y0227458D01*
X0229746Y0228959D02*
X0234250Y0228959D01*
X0234250Y0227458D02*
X0234250Y0230460D01*
X0231247Y0227458D02*
X0229746Y0228959D01*
X0230497Y0225856D02*
X0229746Y0225106D01*
X0229746Y0222854D01*
X0234250Y0222854D01*
X0234250Y0225106D01*
X0233499Y0225856D01*
X0230497Y0225856D01*
X0230497Y0221253D02*
X0231998Y0221253D01*
X0232749Y0220502D01*
X0232749Y0218250D01*
X0234250Y0218250D02*
X0229746Y0218250D01*
X0229746Y0220502D01*
X0230497Y0221253D01*
X0224250Y0218250D02*
X0219746Y0218250D01*
X0219746Y0220502D01*
X0220497Y0221253D01*
X0221998Y0221253D01*
X0222749Y0220502D01*
X0222749Y0218250D01*
X0214250Y0218250D02*
X0209746Y0218250D01*
X0209746Y0220502D01*
X0210497Y0221253D01*
X0211998Y0221253D01*
X0212749Y0220502D01*
X0212749Y0218250D01*
X0184250Y0218250D02*
X0179746Y0218250D01*
X0179746Y0220502D01*
X0180497Y0221253D01*
X0181998Y0221253D01*
X0182749Y0220502D01*
X0182749Y0218250D01*
X0174250Y0218250D02*
X0169746Y0218250D01*
X0169746Y0220502D01*
X0170497Y0221253D01*
X0171998Y0221253D01*
X0172749Y0220502D01*
X0172749Y0218250D01*
X0239746Y0218250D02*
X0239746Y0220502D01*
X0240497Y0221253D01*
X0241998Y0221253D01*
X0242749Y0220502D01*
X0242749Y0218250D01*
X0244250Y0218250D02*
X0239746Y0218250D01*
X0239746Y0222854D02*
X0239746Y0225106D01*
X0240497Y0225856D01*
X0243499Y0225856D01*
X0244250Y0225106D01*
X0244250Y0222854D01*
X0239746Y0222854D01*
X0240497Y0227458D02*
X0239746Y0228208D01*
X0239746Y0229710D01*
X0240497Y0230460D01*
X0243499Y0227458D01*
X0244250Y0228208D01*
X0244250Y0229710D01*
X0243499Y0230460D01*
X0240497Y0230460D01*
X0240497Y0227458D02*
X0243499Y0227458D01*
X0279746Y0227458D02*
X0279746Y0229710D01*
X0280497Y0230460D01*
X0281998Y0230460D01*
X0282749Y0229710D01*
X0282749Y0227458D01*
X0284250Y0227458D02*
X0279746Y0227458D01*
X0279746Y0225856D02*
X0279746Y0222854D01*
X0279746Y0224355D02*
X0284250Y0224355D01*
X0283499Y0221253D02*
X0280497Y0221253D01*
X0279746Y0220502D01*
X0279746Y0218250D01*
X0284250Y0218250D01*
X0284250Y0220502D01*
X0283499Y0221253D01*
X0289746Y0221253D02*
X0289746Y0218250D01*
X0289746Y0219751D02*
X0294250Y0219751D01*
X0294250Y0222854D02*
X0289746Y0225856D01*
X0289746Y0222854D02*
X0294250Y0225856D01*
X0299746Y0225856D02*
X0304250Y0222854D01*
X0304250Y0221253D02*
X0302749Y0219751D01*
X0302749Y0220502D02*
X0302749Y0218250D01*
X0304250Y0218250D02*
X0299746Y0218250D01*
X0299746Y0220502D01*
X0300497Y0221253D01*
X0301998Y0221253D01*
X0302749Y0220502D01*
X0299746Y0222854D02*
X0304250Y0225856D01*
X0309746Y0225856D02*
X0312749Y0225856D01*
X0314250Y0224355D01*
X0312749Y0222854D01*
X0309746Y0222854D01*
X0309746Y0221253D02*
X0309746Y0218250D01*
X0311998Y0218250D01*
X0311247Y0219751D01*
X0311247Y0220502D01*
X0311998Y0221253D01*
X0313499Y0221253D01*
X0314250Y0220502D01*
X0314250Y0219001D01*
X0313499Y0218250D01*
X0319746Y0219001D02*
X0320497Y0218250D01*
X0323499Y0218250D01*
X0324250Y0219001D01*
X0324250Y0220502D01*
X0323499Y0221253D01*
X0320497Y0221253D02*
X0319746Y0220502D01*
X0319746Y0219001D01*
X0319746Y0222854D02*
X0319746Y0225856D01*
X0319746Y0224355D02*
X0324250Y0224355D01*
X0323499Y0227458D02*
X0324250Y0228208D01*
X0324250Y0229710D01*
X0323499Y0230460D01*
X0322749Y0230460D01*
X0321998Y0229710D01*
X0321998Y0228208D01*
X0321247Y0227458D01*
X0320497Y0227458D01*
X0319746Y0228208D01*
X0319746Y0229710D01*
X0320497Y0230460D01*
X0329746Y0229710D02*
X0329746Y0227458D01*
X0334250Y0227458D01*
X0334250Y0229710D01*
X0333499Y0230460D01*
X0330497Y0230460D01*
X0329746Y0229710D01*
X0329746Y0225856D02*
X0334250Y0225856D01*
X0329746Y0222854D01*
X0334250Y0222854D01*
X0333499Y0221253D02*
X0331998Y0221253D01*
X0331998Y0219751D01*
X0330497Y0218250D02*
X0333499Y0218250D01*
X0334250Y0219001D01*
X0334250Y0220502D01*
X0333499Y0221253D01*
X0330497Y0221253D02*
X0329746Y0220502D01*
X0329746Y0219001D01*
X0330497Y0218250D01*
X0350246Y0221646D02*
X0350246Y0224649D01*
X0350246Y0223147D02*
X0354750Y0223147D01*
X0354750Y0226250D02*
X0350246Y0229253D01*
X0350625Y0231750D02*
X0354375Y0231750D01*
X0354750Y0229253D02*
X0350246Y0226250D01*
X0364246Y0226250D02*
X0368750Y0229253D01*
X0368375Y0231750D02*
X0364625Y0231750D01*
X0364246Y0229253D02*
X0368750Y0226250D01*
X0368750Y0224649D02*
X0367249Y0223147D01*
X0367249Y0223898D02*
X0367249Y0221646D01*
X0368750Y0221646D02*
X0364246Y0221646D01*
X0364246Y0223898D01*
X0364997Y0224649D01*
X0366498Y0224649D01*
X0367249Y0223898D01*
X0368250Y0204856D02*
X0368250Y0201854D01*
X0365247Y0204856D01*
X0364497Y0204856D01*
X0363746Y0204106D01*
X0363746Y0202605D01*
X0364497Y0201854D01*
X0364497Y0200253D02*
X0365998Y0200253D01*
X0366749Y0199502D01*
X0366749Y0197250D01*
X0368250Y0197250D02*
X0363746Y0197250D01*
X0363746Y0199502D01*
X0364497Y0200253D01*
X0366749Y0198751D02*
X0368250Y0200253D01*
X0354250Y0200253D02*
X0352749Y0198751D01*
X0352749Y0199502D02*
X0352749Y0197250D01*
X0354250Y0197250D02*
X0349746Y0197250D01*
X0349746Y0199502D01*
X0350497Y0200253D01*
X0351998Y0200253D01*
X0352749Y0199502D01*
X0354250Y0201854D02*
X0354250Y0204856D01*
X0354250Y0203355D02*
X0349746Y0203355D01*
X0351247Y0201854D01*
X0319149Y0247750D02*
X0316146Y0247750D01*
X0316146Y0252254D01*
X0314545Y0250753D02*
X0314545Y0247750D01*
X0314545Y0250002D02*
X0311542Y0250002D01*
X0311542Y0250753D02*
X0313043Y0252254D01*
X0314545Y0250753D01*
X0311542Y0250753D02*
X0311542Y0247750D01*
X0309974Y0247750D02*
X0308473Y0247750D01*
X0309223Y0247750D02*
X0309223Y0252254D01*
X0308473Y0252254D02*
X0309974Y0252254D01*
X0306871Y0251503D02*
X0306871Y0250002D01*
X0306121Y0249251D01*
X0303869Y0249251D01*
X0303869Y0247750D02*
X0303869Y0252254D01*
X0306121Y0252254D01*
X0306871Y0251503D01*
X0305370Y0249251D02*
X0306871Y0247750D01*
X0302268Y0247750D02*
X0299265Y0247750D01*
X0299265Y0252254D01*
X0302268Y0252254D01*
X0300766Y0250002D02*
X0299265Y0250002D01*
X0297664Y0249251D02*
X0296913Y0250002D01*
X0295412Y0250002D01*
X0294661Y0250753D01*
X0294661Y0251503D01*
X0295412Y0252254D01*
X0296913Y0252254D01*
X0297664Y0251503D01*
X0297664Y0249251D02*
X0297664Y0248501D01*
X0296913Y0247750D01*
X0295412Y0247750D01*
X0294661Y0248501D01*
X0284250Y0230460D02*
X0282749Y0228959D01*
D11*
X0268297Y0187045D02*
X0270699Y0184643D01*
X0271300Y0184643D01*
X0271300Y0183362D02*
X0270099Y0182161D01*
X0270099Y0182761D02*
X0270099Y0180960D01*
X0271300Y0180960D02*
X0267697Y0180960D01*
X0267697Y0182761D01*
X0268297Y0183362D01*
X0269498Y0183362D01*
X0270099Y0182761D01*
X0267697Y0184643D02*
X0267697Y0187045D01*
X0268297Y0187045D01*
X0218855Y0163748D02*
X0218855Y0162547D01*
X0218255Y0161946D01*
X0218255Y0160665D02*
X0218855Y0160065D01*
X0218855Y0158863D01*
X0218255Y0158263D01*
X0215853Y0158263D01*
X0215252Y0158863D01*
X0215252Y0160065D01*
X0215853Y0160665D01*
X0215853Y0161946D02*
X0215252Y0162547D01*
X0215252Y0163748D01*
X0215853Y0164348D01*
X0216453Y0164348D01*
X0217054Y0163748D01*
X0217654Y0164348D01*
X0218255Y0164348D01*
X0218855Y0163748D01*
X0217054Y0163748D02*
X0217054Y0163147D01*
X0204745Y0163692D02*
X0204745Y0162491D01*
X0204144Y0161891D01*
X0202943Y0161891D02*
X0202343Y0163092D01*
X0202343Y0163692D01*
X0202943Y0164293D01*
X0204144Y0164293D01*
X0204745Y0163692D01*
X0202943Y0161891D02*
X0201142Y0161891D01*
X0201142Y0164293D01*
X0201742Y0160610D02*
X0201142Y0160009D01*
X0201142Y0158808D01*
X0201742Y0158208D01*
X0204144Y0158208D01*
X0204745Y0158808D01*
X0204745Y0160009D01*
X0204144Y0160610D01*
X0132745Y0160009D02*
X0132144Y0160610D01*
X0132745Y0160009D02*
X0132745Y0158808D01*
X0132144Y0158208D01*
X0129742Y0158208D01*
X0129142Y0158808D01*
X0129142Y0160009D01*
X0129742Y0160610D01*
X0130943Y0161891D02*
X0130943Y0163692D01*
X0131544Y0164293D01*
X0132144Y0164293D01*
X0132745Y0163692D01*
X0132745Y0162491D01*
X0132144Y0161891D01*
X0130943Y0161891D01*
X0129742Y0163092D01*
X0129142Y0164293D01*
X0106300Y0165934D02*
X0105699Y0165334D01*
X0103297Y0165334D01*
X0102697Y0165934D01*
X0102697Y0167135D01*
X0103297Y0167736D01*
X0103297Y0169017D02*
X0103898Y0169017D01*
X0104498Y0169617D01*
X0104498Y0171419D01*
X0103297Y0171419D02*
X0102697Y0170818D01*
X0102697Y0169617D01*
X0103297Y0169017D01*
X0103297Y0171419D02*
X0105699Y0171419D01*
X0106300Y0170818D01*
X0106300Y0169617D01*
X0105699Y0169017D01*
X0105699Y0167736D02*
X0106300Y0167135D01*
X0106300Y0165934D01*
X0047300Y0139051D02*
X0047300Y0137850D01*
X0046699Y0137249D01*
X0045498Y0137249D02*
X0044898Y0138450D01*
X0044898Y0139051D01*
X0045498Y0139651D01*
X0046699Y0139651D01*
X0047300Y0139051D01*
X0045498Y0137249D02*
X0043697Y0137249D01*
X0043697Y0139651D01*
X0044297Y0135968D02*
X0046699Y0133566D01*
X0047300Y0134167D01*
X0047300Y0135368D01*
X0046699Y0135968D01*
X0044297Y0135968D01*
X0043697Y0135368D01*
X0043697Y0134167D01*
X0044297Y0133566D01*
X0046699Y0133566D01*
X0046699Y0132285D02*
X0047300Y0131685D01*
X0047300Y0130484D01*
X0046699Y0129883D01*
X0046099Y0129883D01*
X0045498Y0130484D01*
X0045498Y0131685D01*
X0046099Y0132285D01*
X0046699Y0132285D01*
X0045498Y0131685D02*
X0044898Y0132285D01*
X0044297Y0132285D01*
X0043697Y0131685D01*
X0043697Y0130484D01*
X0044297Y0129883D01*
X0044898Y0129883D01*
X0045498Y0130484D01*
X0044297Y0128602D02*
X0046699Y0126200D01*
X0047300Y0126200D01*
X0043697Y0126200D02*
X0043697Y0128602D01*
X0044297Y0128602D01*
X0060142Y0123419D02*
X0060742Y0123419D01*
X0063144Y0121017D01*
X0063745Y0121017D01*
X0063144Y0119736D02*
X0063745Y0119135D01*
X0063745Y0117934D01*
X0063144Y0117334D01*
X0060742Y0117334D01*
X0060142Y0117934D01*
X0060142Y0119135D01*
X0060742Y0119736D01*
X0060142Y0121017D02*
X0060142Y0123419D01*
X0045949Y0108999D02*
X0043547Y0111401D01*
X0042947Y0111401D01*
X0042947Y0108999D01*
X0042947Y0106517D02*
X0046550Y0106517D01*
X0046550Y0105316D02*
X0046550Y0107718D01*
X0046550Y0108999D02*
X0045949Y0108999D01*
X0042947Y0106517D02*
X0044148Y0105316D01*
X0046550Y0104035D02*
X0046550Y0101633D01*
X0046550Y0102834D02*
X0042947Y0102834D01*
X0044148Y0101633D01*
X0046550Y0100352D02*
X0046550Y0097950D01*
X0046550Y0099151D02*
X0042947Y0099151D01*
X0044148Y0097950D01*
X0085697Y0101200D02*
X0085697Y0103002D01*
X0086297Y0103602D01*
X0087498Y0103602D01*
X0088099Y0103002D01*
X0088099Y0101200D01*
X0089300Y0101200D02*
X0085697Y0101200D01*
X0088099Y0102401D02*
X0089300Y0103602D01*
X0088699Y0104883D02*
X0089300Y0105484D01*
X0089300Y0106685D01*
X0088699Y0107285D01*
X0088099Y0107285D01*
X0087498Y0106685D01*
X0087498Y0106084D01*
X0087498Y0106685D02*
X0086898Y0107285D01*
X0086297Y0107285D01*
X0085697Y0106685D01*
X0085697Y0105484D01*
X0086297Y0104883D01*
X0102697Y0117934D02*
X0103297Y0117334D01*
X0105699Y0117334D01*
X0106300Y0117934D01*
X0106300Y0119135D01*
X0105699Y0119736D01*
X0106300Y0121017D02*
X0106300Y0123419D01*
X0106300Y0122218D02*
X0102697Y0122218D01*
X0103898Y0121017D01*
X0103297Y0119736D02*
X0102697Y0119135D01*
X0102697Y0117934D01*
X0103297Y0084785D02*
X0103898Y0084785D01*
X0104498Y0084185D01*
X0104498Y0082984D01*
X0103898Y0082383D01*
X0103297Y0082383D01*
X0102697Y0082984D01*
X0102697Y0084185D01*
X0103297Y0084785D01*
X0104498Y0084185D02*
X0105099Y0084785D01*
X0105699Y0084785D01*
X0106300Y0084185D01*
X0106300Y0082984D01*
X0105699Y0082383D01*
X0105099Y0082383D01*
X0104498Y0082984D01*
X0103297Y0081102D02*
X0102697Y0080502D01*
X0102697Y0079301D01*
X0103297Y0078700D01*
X0105699Y0078700D01*
X0106300Y0079301D01*
X0106300Y0080502D01*
X0105699Y0081102D01*
X0085498Y0047919D02*
X0085498Y0045517D01*
X0083697Y0047318D01*
X0087300Y0047318D01*
X0087300Y0044236D02*
X0086099Y0043035D01*
X0086099Y0043635D02*
X0086099Y0041834D01*
X0087300Y0041834D02*
X0083697Y0041834D01*
X0083697Y0043635D01*
X0084297Y0044236D01*
X0085498Y0044236D01*
X0086099Y0043635D01*
X0070300Y0044236D02*
X0069099Y0043035D01*
X0069099Y0043635D02*
X0069099Y0041834D01*
X0070300Y0041834D02*
X0066697Y0041834D01*
X0066697Y0043635D01*
X0067297Y0044236D01*
X0068498Y0044236D01*
X0069099Y0043635D01*
X0069699Y0045517D02*
X0070300Y0046117D01*
X0070300Y0047318D01*
X0069699Y0047919D01*
X0068498Y0047919D01*
X0067898Y0047318D01*
X0067898Y0046718D01*
X0068498Y0045517D01*
X0066697Y0045517D01*
X0066697Y0047919D01*
X0064235Y0024037D02*
X0064235Y0020967D01*
X0062700Y0022502D02*
X0065769Y0022502D01*
X0082700Y0022502D02*
X0085769Y0022502D01*
X0084235Y0024037D02*
X0084235Y0020967D01*
X0162142Y0094371D02*
X0162742Y0093771D01*
X0165144Y0093771D01*
X0165745Y0094371D01*
X0165745Y0095572D01*
X0165144Y0096173D01*
X0165745Y0097454D02*
X0163343Y0099856D01*
X0162742Y0099856D01*
X0162142Y0099255D01*
X0162142Y0098054D01*
X0162742Y0097454D01*
X0162742Y0096173D02*
X0162142Y0095572D01*
X0162142Y0094371D01*
X0165745Y0097454D02*
X0165745Y0099856D01*
X0187142Y0100054D02*
X0187742Y0099454D01*
X0190144Y0099454D01*
X0187742Y0101856D01*
X0190144Y0101856D01*
X0190745Y0101255D01*
X0190745Y0100054D01*
X0190144Y0099454D01*
X0190745Y0098173D02*
X0190745Y0095771D01*
X0190745Y0096972D02*
X0187142Y0096972D01*
X0188343Y0095771D01*
X0187742Y0094490D02*
X0187142Y0093889D01*
X0187142Y0092688D01*
X0187742Y0092088D01*
X0190144Y0092088D01*
X0190745Y0092688D01*
X0190745Y0093889D01*
X0190144Y0094490D01*
X0187142Y0100054D02*
X0187142Y0101255D01*
X0187742Y0101856D01*
X0278142Y0137371D02*
X0278742Y0136771D01*
X0281144Y0136771D01*
X0281745Y0137371D01*
X0281745Y0138572D01*
X0281144Y0139173D01*
X0279943Y0140454D02*
X0279943Y0142856D01*
X0278142Y0142255D02*
X0279943Y0140454D01*
X0278742Y0139173D02*
X0278142Y0138572D01*
X0278142Y0137371D01*
X0278142Y0142255D02*
X0281745Y0142255D01*
X0362697Y0053503D02*
X0366300Y0053503D01*
X0366300Y0051701D01*
X0365699Y0051101D01*
X0364498Y0051101D01*
X0363898Y0051701D01*
X0363898Y0053503D01*
X0363898Y0049833D02*
X0363898Y0049232D01*
X0365099Y0048031D01*
X0366300Y0048031D02*
X0363898Y0048031D01*
X0364498Y0046750D02*
X0366300Y0046750D01*
X0366300Y0044949D01*
X0365699Y0044348D01*
X0365099Y0044949D01*
X0365099Y0046750D01*
X0364498Y0046750D02*
X0363898Y0046150D01*
X0363898Y0044949D01*
X0364498Y0043067D02*
X0363898Y0042467D01*
X0363898Y0041266D01*
X0364498Y0040665D01*
X0365699Y0040665D01*
X0366300Y0041266D01*
X0366300Y0042467D01*
X0365699Y0043067D01*
X0364498Y0043067D01*
X0363898Y0039384D02*
X0364498Y0038784D01*
X0364498Y0036982D01*
X0362697Y0036982D02*
X0362697Y0038784D01*
X0363297Y0039384D01*
X0363898Y0039384D01*
X0364498Y0038784D02*
X0365099Y0039384D01*
X0365699Y0039384D01*
X0366300Y0038784D01*
X0366300Y0036982D01*
X0362697Y0036982D01*
X0360300Y0036969D02*
X0359699Y0036368D01*
X0359099Y0036368D01*
X0358498Y0036969D01*
X0358498Y0038170D01*
X0359099Y0038770D01*
X0359699Y0038770D01*
X0360300Y0038170D01*
X0360300Y0036969D01*
X0358498Y0036969D02*
X0357898Y0036368D01*
X0357297Y0036368D01*
X0356697Y0036969D01*
X0356697Y0038170D01*
X0357297Y0038770D01*
X0357898Y0038770D01*
X0358498Y0038170D01*
X0360300Y0035087D02*
X0360300Y0032685D01*
X0360300Y0033886D02*
X0356697Y0033886D01*
X0357898Y0032685D01*
X0356697Y0031404D02*
X0360300Y0029002D01*
X0357898Y0027734D02*
X0357898Y0027134D01*
X0359099Y0025933D01*
X0360300Y0025933D02*
X0357898Y0025933D01*
X0358498Y0024651D02*
X0359699Y0024651D01*
X0360300Y0024051D01*
X0360300Y0022249D01*
X0361501Y0022249D02*
X0357898Y0022249D01*
X0357898Y0024051D01*
X0358498Y0024651D01*
X0354300Y0024691D02*
X0354300Y0026493D01*
X0352498Y0026493D01*
X0351898Y0025893D01*
X0351898Y0024691D01*
X0353099Y0024691D02*
X0353099Y0026493D01*
X0352498Y0027774D02*
X0353699Y0027774D01*
X0354300Y0028375D01*
X0354300Y0030176D01*
X0354901Y0030176D02*
X0351898Y0030176D01*
X0351898Y0028375D01*
X0352498Y0027774D01*
X0353099Y0024691D02*
X0353699Y0024091D01*
X0354300Y0024691D01*
X0351898Y0022823D02*
X0351898Y0022223D01*
X0353099Y0021022D01*
X0354300Y0021022D02*
X0351898Y0021022D01*
X0351898Y0019167D02*
X0354300Y0019167D01*
X0354300Y0019767D02*
X0354300Y0018566D01*
X0354300Y0017285D02*
X0352498Y0017285D01*
X0351898Y0016685D01*
X0351898Y0015484D01*
X0352498Y0014883D01*
X0351297Y0013602D02*
X0350697Y0013002D01*
X0350697Y0011801D01*
X0351297Y0011200D01*
X0353699Y0011200D01*
X0354300Y0011801D01*
X0354300Y0013002D01*
X0353699Y0013602D01*
X0354300Y0014883D02*
X0350697Y0014883D01*
X0356697Y0013002D02*
X0356697Y0011801D01*
X0357297Y0011200D01*
X0356697Y0013002D02*
X0357297Y0013602D01*
X0357898Y0013602D01*
X0360300Y0011200D01*
X0360300Y0013602D01*
X0360300Y0014883D02*
X0356697Y0017285D01*
X0357898Y0018566D02*
X0356697Y0019767D01*
X0357898Y0020968D01*
X0360300Y0020968D01*
X0358498Y0020968D02*
X0358498Y0018566D01*
X0357898Y0018566D02*
X0360300Y0018566D01*
X0362697Y0017285D02*
X0362697Y0014883D01*
X0362697Y0016084D02*
X0366300Y0016084D01*
X0366300Y0013602D02*
X0363898Y0013602D01*
X0362697Y0012401D01*
X0363898Y0011200D01*
X0366300Y0011200D01*
X0364498Y0011200D02*
X0364498Y0013602D01*
X0363898Y0018566D02*
X0363898Y0019167D01*
X0364498Y0019767D01*
X0363898Y0020368D01*
X0364498Y0020968D01*
X0366300Y0020968D01*
X0366300Y0019767D02*
X0364498Y0019767D01*
X0363898Y0018566D02*
X0366300Y0018566D01*
X0365699Y0022249D02*
X0364498Y0022249D01*
X0363898Y0022850D01*
X0363898Y0024051D01*
X0364498Y0024651D01*
X0365099Y0024651D01*
X0365099Y0022249D01*
X0365699Y0022249D02*
X0366300Y0022850D01*
X0366300Y0024051D01*
X0365699Y0025933D02*
X0366300Y0026533D01*
X0366300Y0028335D01*
X0366901Y0028335D02*
X0363898Y0028335D01*
X0363898Y0026533D01*
X0364498Y0025933D01*
X0365699Y0025933D01*
X0367501Y0027134D02*
X0367501Y0027734D01*
X0366901Y0028335D01*
X0365699Y0029616D02*
X0365099Y0030216D01*
X0365099Y0032018D01*
X0364498Y0032018D02*
X0366300Y0032018D01*
X0366300Y0030216D01*
X0365699Y0029616D01*
X0363898Y0030216D02*
X0363898Y0031417D01*
X0364498Y0032018D01*
X0355501Y0029576D02*
X0354901Y0030176D01*
X0355501Y0029576D02*
X0355501Y0028975D01*
X0353699Y0035140D02*
X0354300Y0035741D01*
X0354300Y0036942D01*
X0353699Y0037542D01*
X0353099Y0037542D01*
X0352498Y0036942D01*
X0352498Y0035741D01*
X0351898Y0035140D01*
X0351297Y0035140D01*
X0350697Y0035741D01*
X0350697Y0036942D01*
X0351297Y0037542D01*
X0350697Y0038824D02*
X0354300Y0038824D01*
X0352498Y0038824D02*
X0351898Y0039424D01*
X0351898Y0040625D01*
X0352498Y0041226D01*
X0354300Y0041226D01*
X0353699Y0042507D02*
X0353099Y0043107D01*
X0353099Y0044909D01*
X0352498Y0044909D02*
X0354300Y0044909D01*
X0354300Y0043107D01*
X0353699Y0042507D01*
X0351898Y0043107D02*
X0351898Y0044308D01*
X0352498Y0044909D01*
X0352498Y0046190D02*
X0351898Y0046790D01*
X0351898Y0047991D01*
X0352498Y0048592D01*
X0354300Y0048592D01*
X0354300Y0046190D02*
X0350697Y0046190D01*
X0350697Y0019167D02*
X0350096Y0019167D01*
X0351898Y0019167D02*
X0351898Y0018566D01*
X0369697Y0016685D02*
X0369697Y0015484D01*
X0370297Y0014883D01*
X0369697Y0013602D02*
X0372099Y0013602D01*
X0373300Y0012401D01*
X0372099Y0011200D01*
X0369697Y0011200D01*
X0373300Y0014883D02*
X0370898Y0017285D01*
X0370297Y0017285D01*
X0369697Y0016685D01*
X0373300Y0017285D02*
X0373300Y0014883D01*
X0368235Y0244967D02*
X0368235Y0248037D01*
X0366700Y0246502D02*
X0369769Y0246502D01*
X0355769Y0246502D02*
X0352700Y0246502D01*
X0354235Y0248037D02*
X0354235Y0244967D01*
X0014419Y0194002D02*
X0014419Y0192200D01*
X0014419Y0194002D02*
X0013818Y0194602D01*
X0012017Y0194602D01*
X0012017Y0192200D01*
X0010762Y0192200D02*
X0009561Y0192200D01*
X0010162Y0192200D02*
X0010162Y0194602D01*
X0009561Y0194602D01*
X0010162Y0195803D02*
X0010162Y0196404D01*
X0008280Y0195803D02*
X0008280Y0193401D01*
X0007079Y0192200D01*
X0005878Y0193401D01*
X0005878Y0195803D01*
X0006452Y0185803D02*
X0005251Y0185803D01*
X0004651Y0185203D01*
X0004651Y0182801D01*
X0005251Y0182200D01*
X0006452Y0182200D01*
X0007053Y0182801D01*
X0007053Y0184002D01*
X0005852Y0184002D01*
X0007053Y0185203D02*
X0006452Y0185803D01*
X0008334Y0185803D02*
X0010736Y0182200D01*
X0010736Y0185803D01*
X0012017Y0185803D02*
X0012017Y0182200D01*
X0013818Y0182200D01*
X0014419Y0182801D01*
X0014419Y0185203D01*
X0013818Y0185803D01*
X0012017Y0185803D01*
X0008334Y0185803D02*
X0008334Y0182200D01*
X0004397Y0167651D02*
X0004397Y0165249D01*
X0004397Y0166450D02*
X0008000Y0166450D01*
X0008000Y0163968D02*
X0004397Y0163968D01*
X0004397Y0161566D02*
X0008000Y0163968D01*
X0008000Y0161566D02*
X0004397Y0161566D01*
X0004997Y0160285D02*
X0004397Y0159685D01*
X0004397Y0158484D01*
X0004997Y0157883D01*
X0007399Y0157883D01*
X0008000Y0158484D01*
X0008000Y0159685D01*
X0007399Y0160285D01*
X0004997Y0160285D01*
X0004997Y0156602D02*
X0004397Y0156002D01*
X0004397Y0154801D01*
X0004997Y0154200D01*
X0007399Y0154200D01*
X0008000Y0154801D01*
X0008000Y0156002D01*
X0007399Y0156602D01*
D12*
X0335800Y0132300D03*
X0337900Y0136500D03*
X0338500Y0137400D03*
X0338800Y0137700D03*
X0338800Y0138000D03*
X0339100Y0138300D03*
X0344200Y0136500D03*
X0344800Y0137400D03*
X0345100Y0137700D03*
X0345100Y0138000D03*
X0345400Y0138300D03*
X0342100Y0132300D03*
X0343000Y0116100D03*
X0343000Y0115800D03*
X0340000Y0109800D03*
D13*
X0340000Y0110100D03*
X0340000Y0110400D03*
X0343300Y0117000D03*
X0343300Y0117300D03*
X0345400Y0132000D03*
X0346000Y0132300D03*
X0346300Y0132600D03*
X0346600Y0133200D03*
X0346900Y0133500D03*
X0346900Y0133800D03*
X0347200Y0134400D03*
X0347200Y0134700D03*
X0347200Y0135000D03*
X0346900Y0135600D03*
X0346900Y0135900D03*
X0346600Y0136200D03*
X0340900Y0135000D03*
X0340900Y0134700D03*
X0340900Y0134400D03*
X0340600Y0133800D03*
X0340600Y0133500D03*
X0340300Y0133200D03*
X0340000Y0132600D03*
X0339700Y0132300D03*
X0339100Y0132000D03*
X0340600Y0135600D03*
X0340600Y0135900D03*
X0340300Y0136200D03*
D14*
X0337600Y0131400D03*
X0343900Y0131400D03*
X0343600Y0118500D03*
X0343600Y0118200D03*
X0340000Y0111000D03*
X0340000Y0110700D03*
D15*
X0340000Y0111300D03*
X0340000Y0111600D03*
X0343900Y0119400D03*
X0344200Y0120000D03*
X0344500Y0120600D03*
X0344500Y0120900D03*
X0344800Y0121200D03*
X0344800Y0121500D03*
X0345100Y0121800D03*
X0345100Y0122100D03*
X0345400Y0122400D03*
X0345400Y0122700D03*
X0345700Y0123000D03*
X0345700Y0123300D03*
X0346000Y0123600D03*
X0346000Y0123900D03*
X0346300Y0124200D03*
X0346300Y0124500D03*
X0346600Y0124800D03*
X0346600Y0125100D03*
X0346900Y0125700D03*
X0347200Y0126300D03*
X0347500Y0126900D03*
X0347800Y0127500D03*
X0348100Y0128100D03*
X0348100Y0128400D03*
X0348400Y0128700D03*
X0348400Y0129000D03*
X0348700Y0129300D03*
X0348700Y0129600D03*
X0349000Y0129900D03*
X0349000Y0130200D03*
X0349300Y0130500D03*
X0349300Y0130800D03*
X0349600Y0131100D03*
X0349600Y0131400D03*
X0349900Y0131700D03*
X0349900Y0132000D03*
X0350200Y0132300D03*
X0350200Y0132600D03*
X0350500Y0132900D03*
X0350500Y0133200D03*
X0350800Y0133500D03*
X0350800Y0133800D03*
X0351100Y0134100D03*
X0351100Y0134400D03*
X0351400Y0135000D03*
X0351700Y0135600D03*
X0351700Y0135900D03*
X0352000Y0136200D03*
X0352000Y0136500D03*
X0352300Y0136800D03*
X0352300Y0137100D03*
X0352600Y0137400D03*
X0352600Y0137700D03*
X0352900Y0138000D03*
X0352900Y0138300D03*
X0353200Y0138600D03*
X0353200Y0138900D03*
X0353500Y0139200D03*
X0353500Y0139500D03*
X0353800Y0139800D03*
X0353800Y0140100D03*
X0354100Y0140400D03*
X0354100Y0140700D03*
X0354400Y0141000D03*
X0354400Y0141300D03*
D16*
X0354550Y0141600D03*
X0345550Y0136800D03*
X0339250Y0136800D03*
X0339850Y0112200D03*
X0339850Y0111900D03*
D17*
X0339700Y0112500D03*
X0339700Y0112800D03*
D18*
X0339550Y0113100D03*
X0339550Y0113400D03*
X0339550Y0113700D03*
X0337750Y0131700D03*
X0344050Y0131700D03*
X0344350Y0138600D03*
X0338050Y0138600D03*
D19*
X0338200Y0138900D03*
X0344500Y0138900D03*
X0339400Y0114300D03*
X0339400Y0114000D03*
D20*
X0342700Y0114300D03*
X0342700Y0114600D03*
D21*
X0339250Y0114600D03*
X0339250Y0114900D03*
X0338350Y0139200D03*
X0344650Y0139200D03*
D22*
X0342850Y0138300D03*
X0341950Y0132600D03*
X0335650Y0132600D03*
X0336550Y0138300D03*
X0342850Y0115500D03*
X0342850Y0115200D03*
X0342850Y0114900D03*
D23*
X0339100Y0115200D03*
X0339100Y0115500D03*
D24*
X0338950Y0115800D03*
X0338950Y0116100D03*
D25*
X0338800Y0116400D03*
X0338800Y0116700D03*
D26*
X0343150Y0116700D03*
X0343150Y0116400D03*
X0342550Y0132000D03*
X0340150Y0132900D03*
X0340750Y0134100D03*
X0340750Y0135300D03*
X0336250Y0132000D03*
X0346450Y0132900D03*
X0347050Y0134100D03*
X0347050Y0135300D03*
D27*
X0338650Y0117300D03*
X0338650Y0117000D03*
D28*
X0338500Y0117600D03*
X0338500Y0117900D03*
D29*
X0343450Y0117900D03*
X0343450Y0117600D03*
X0346450Y0136500D03*
X0340150Y0136500D03*
D30*
X0330850Y0134100D03*
X0330550Y0134700D03*
X0330250Y0135300D03*
X0329950Y0135900D03*
X0333550Y0128400D03*
X0333850Y0127800D03*
X0334150Y0127200D03*
X0334450Y0126600D03*
X0334750Y0126000D03*
X0335050Y0125400D03*
X0335350Y0124800D03*
X0335650Y0124200D03*
X0335950Y0123600D03*
X0337450Y0120300D03*
X0337750Y0119700D03*
X0338050Y0119100D03*
X0338350Y0118500D03*
X0338350Y0118200D03*
D31*
X0338200Y0118800D03*
X0337900Y0119400D03*
X0337600Y0120000D03*
X0337300Y0120600D03*
X0337300Y0120900D03*
X0337000Y0121200D03*
X0337000Y0121500D03*
X0336700Y0121800D03*
X0336700Y0122100D03*
X0336400Y0122400D03*
X0336400Y0122700D03*
X0336100Y0123000D03*
X0336100Y0123300D03*
X0335800Y0123900D03*
X0335500Y0124500D03*
X0335200Y0125100D03*
X0334900Y0125700D03*
X0334600Y0126300D03*
X0334300Y0126900D03*
X0334000Y0127500D03*
X0333700Y0128100D03*
X0333400Y0128700D03*
X0333400Y0129000D03*
X0333100Y0129300D03*
X0333100Y0129600D03*
X0332800Y0129900D03*
X0332800Y0130200D03*
X0332500Y0130500D03*
X0332500Y0130800D03*
X0332200Y0131100D03*
X0332200Y0131400D03*
X0331900Y0131700D03*
X0331900Y0132000D03*
X0331600Y0132300D03*
X0331600Y0132600D03*
X0331300Y0132900D03*
X0331300Y0133200D03*
X0331000Y0133500D03*
X0331000Y0133800D03*
X0330700Y0134400D03*
X0330400Y0135000D03*
X0330100Y0135600D03*
X0329800Y0136200D03*
X0329800Y0136500D03*
X0329500Y0136800D03*
X0329500Y0137100D03*
X0329200Y0137400D03*
X0329200Y0137700D03*
X0328900Y0138000D03*
X0328900Y0138300D03*
X0328600Y0138600D03*
X0328600Y0138900D03*
X0328300Y0139200D03*
X0328300Y0139500D03*
X0328000Y0139800D03*
X0328000Y0140100D03*
X0327700Y0140400D03*
X0327700Y0140700D03*
X0327400Y0141000D03*
X0327400Y0141300D03*
D32*
X0338950Y0137100D03*
X0345250Y0137100D03*
X0351250Y0134700D03*
X0351550Y0135300D03*
X0347950Y0127800D03*
X0347650Y0127200D03*
X0347350Y0126600D03*
X0347050Y0126000D03*
X0346750Y0125400D03*
X0344350Y0120300D03*
X0344050Y0119700D03*
X0343750Y0119100D03*
X0343750Y0118800D03*
D33*
X0327250Y0141600D03*
D34*
X0332650Y0141900D03*
D35*
X0349300Y0141900D03*
D36*
X0332500Y0142200D03*
X0332500Y0142500D03*
D37*
X0349450Y0142500D03*
X0349450Y0142200D03*
D38*
X0332350Y0142800D03*
X0332350Y0143100D03*
D39*
X0349600Y0143100D03*
X0349600Y0142800D03*
D40*
X0332200Y0143400D03*
X0332200Y0143700D03*
D41*
X0349750Y0143700D03*
X0349750Y0143400D03*
D42*
X0255000Y0135800D02*
X0255000Y0127200D01*
X0255000Y0124800D01*
X0255000Y0114800D01*
X0255000Y0124800D02*
X0254931Y0124802D01*
X0254863Y0124808D01*
X0254795Y0124818D01*
X0254728Y0124831D01*
X0254662Y0124849D01*
X0254597Y0124870D01*
X0254533Y0124895D01*
X0254471Y0124923D01*
X0254410Y0124955D01*
X0254351Y0124990D01*
X0254295Y0125029D01*
X0254240Y0125071D01*
X0254189Y0125116D01*
X0254139Y0125164D01*
X0254093Y0125214D01*
X0254050Y0125267D01*
X0254009Y0125323D01*
X0253972Y0125380D01*
X0253939Y0125440D01*
X0253908Y0125502D01*
X0253882Y0125565D01*
X0253859Y0125629D01*
X0253839Y0125695D01*
X0253824Y0125762D01*
X0253812Y0125829D01*
X0253804Y0125897D01*
X0253800Y0125966D01*
X0253800Y0126034D01*
X0253804Y0126103D01*
X0253812Y0126171D01*
X0253824Y0126238D01*
X0253839Y0126305D01*
X0253859Y0126371D01*
X0253882Y0126435D01*
X0253908Y0126498D01*
X0253939Y0126560D01*
X0253972Y0126620D01*
X0254009Y0126677D01*
X0254050Y0126733D01*
X0254093Y0126786D01*
X0254139Y0126836D01*
X0254189Y0126884D01*
X0254240Y0126929D01*
X0254295Y0126971D01*
X0254351Y0127010D01*
X0254410Y0127045D01*
X0254471Y0127077D01*
X0254533Y0127105D01*
X0254597Y0127130D01*
X0254662Y0127151D01*
X0254728Y0127169D01*
X0254795Y0127182D01*
X0254863Y0127192D01*
X0254931Y0127198D01*
X0255000Y0127200D01*
X0179500Y0149000D02*
X0155500Y0149000D01*
X0155305Y0149002D01*
X0155110Y0149009D01*
X0154916Y0149021D01*
X0154722Y0149038D01*
X0154528Y0149059D01*
X0154335Y0149085D01*
X0154143Y0149116D01*
X0153951Y0149151D01*
X0153761Y0149191D01*
X0153571Y0149236D01*
X0153382Y0149285D01*
X0153195Y0149339D01*
X0153009Y0149398D01*
X0152825Y0149460D01*
X0152642Y0149528D01*
X0152461Y0149600D01*
X0152282Y0149676D01*
X0152104Y0149756D01*
X0151929Y0149841D01*
X0151756Y0149930D01*
X0151585Y0150024D01*
X0151416Y0150121D01*
X0151250Y0150223D01*
X0151086Y0150328D01*
X0150925Y0150437D01*
X0150766Y0150551D01*
X0150611Y0150668D01*
X0150458Y0150789D01*
X0150308Y0150914D01*
X0150161Y0151042D01*
X0150018Y0151174D01*
X0149878Y0151309D01*
X0149741Y0151447D01*
X0149607Y0151589D01*
X0149477Y0151734D01*
X0149351Y0151883D01*
X0149228Y0152034D01*
X0149109Y0152188D01*
X0148994Y0152345D01*
X0148882Y0152505D01*
X0148775Y0152667D01*
X0148671Y0152832D01*
X0148572Y0153000D01*
X0148476Y0153170D01*
X0148385Y0153342D01*
X0148298Y0153516D01*
X0148216Y0153693D01*
X0148137Y0153871D01*
X0148063Y0154051D01*
X0147994Y0154233D01*
X0147928Y0154417D01*
X0147868Y0154602D01*
X0147812Y0154789D01*
X0147760Y0154977D01*
X0147713Y0155166D01*
X0147671Y0155356D01*
X0147633Y0155547D01*
X0147600Y0155739D01*
X0147572Y0155932D01*
X0147548Y0156125D01*
X0147529Y0156319D01*
X0147515Y0156513D01*
X0147505Y0156708D01*
X0147501Y0156903D01*
X0147501Y0157097D01*
X0147505Y0157292D01*
X0147515Y0157487D01*
X0147529Y0157681D01*
X0147548Y0157875D01*
X0147572Y0158068D01*
X0147600Y0158261D01*
X0147633Y0158453D01*
X0147671Y0158644D01*
X0147713Y0158834D01*
X0147760Y0159023D01*
X0147812Y0159211D01*
X0147868Y0159398D01*
X0147928Y0159583D01*
X0147994Y0159767D01*
X0148063Y0159949D01*
X0148137Y0160129D01*
X0148216Y0160307D01*
X0148298Y0160484D01*
X0148385Y0160658D01*
X0148476Y0160830D01*
X0148572Y0161000D01*
X0148671Y0161168D01*
X0148775Y0161333D01*
X0148882Y0161495D01*
X0148994Y0161655D01*
X0149109Y0161812D01*
X0149228Y0161966D01*
X0149351Y0162117D01*
X0149477Y0162266D01*
X0149607Y0162411D01*
X0149741Y0162553D01*
X0149878Y0162691D01*
X0150018Y0162826D01*
X0150161Y0162958D01*
X0150308Y0163086D01*
X0150458Y0163211D01*
X0150611Y0163332D01*
X0150766Y0163449D01*
X0150925Y0163563D01*
X0151086Y0163672D01*
X0151250Y0163777D01*
X0151416Y0163879D01*
X0151585Y0163976D01*
X0151756Y0164070D01*
X0151929Y0164159D01*
X0152104Y0164244D01*
X0152282Y0164324D01*
X0152461Y0164400D01*
X0152642Y0164472D01*
X0152825Y0164540D01*
X0153009Y0164602D01*
X0153195Y0164661D01*
X0153382Y0164715D01*
X0153571Y0164764D01*
X0153761Y0164809D01*
X0153951Y0164849D01*
X0154143Y0164884D01*
X0154335Y0164915D01*
X0154528Y0164941D01*
X0154722Y0164962D01*
X0154916Y0164979D01*
X0155110Y0164991D01*
X0155305Y0164998D01*
X0155500Y0165000D01*
X0179500Y0165000D01*
X0179695Y0164998D01*
X0179890Y0164991D01*
X0180084Y0164979D01*
X0180278Y0164962D01*
X0180472Y0164941D01*
X0180665Y0164915D01*
X0180857Y0164884D01*
X0181049Y0164849D01*
X0181239Y0164809D01*
X0181429Y0164764D01*
X0181618Y0164715D01*
X0181805Y0164661D01*
X0181991Y0164602D01*
X0182175Y0164540D01*
X0182358Y0164472D01*
X0182539Y0164400D01*
X0182718Y0164324D01*
X0182896Y0164244D01*
X0183071Y0164159D01*
X0183244Y0164070D01*
X0183415Y0163976D01*
X0183584Y0163879D01*
X0183750Y0163777D01*
X0183914Y0163672D01*
X0184075Y0163563D01*
X0184234Y0163449D01*
X0184389Y0163332D01*
X0184542Y0163211D01*
X0184692Y0163086D01*
X0184839Y0162958D01*
X0184982Y0162826D01*
X0185122Y0162691D01*
X0185259Y0162553D01*
X0185393Y0162411D01*
X0185523Y0162266D01*
X0185649Y0162117D01*
X0185772Y0161966D01*
X0185891Y0161812D01*
X0186006Y0161655D01*
X0186118Y0161495D01*
X0186225Y0161333D01*
X0186329Y0161168D01*
X0186428Y0161000D01*
X0186524Y0160830D01*
X0186615Y0160658D01*
X0186702Y0160484D01*
X0186784Y0160307D01*
X0186863Y0160129D01*
X0186937Y0159949D01*
X0187006Y0159767D01*
X0187072Y0159583D01*
X0187132Y0159398D01*
X0187188Y0159211D01*
X0187240Y0159023D01*
X0187287Y0158834D01*
X0187329Y0158644D01*
X0187367Y0158453D01*
X0187400Y0158261D01*
X0187428Y0158068D01*
X0187452Y0157875D01*
X0187471Y0157681D01*
X0187485Y0157487D01*
X0187495Y0157292D01*
X0187499Y0157097D01*
X0187499Y0156903D01*
X0187495Y0156708D01*
X0187485Y0156513D01*
X0187471Y0156319D01*
X0187452Y0156125D01*
X0187428Y0155932D01*
X0187400Y0155739D01*
X0187367Y0155547D01*
X0187329Y0155356D01*
X0187287Y0155166D01*
X0187240Y0154977D01*
X0187188Y0154789D01*
X0187132Y0154602D01*
X0187072Y0154417D01*
X0187006Y0154233D01*
X0186937Y0154051D01*
X0186863Y0153871D01*
X0186784Y0153693D01*
X0186702Y0153516D01*
X0186615Y0153342D01*
X0186524Y0153170D01*
X0186428Y0153000D01*
X0186329Y0152832D01*
X0186225Y0152667D01*
X0186118Y0152505D01*
X0186006Y0152345D01*
X0185891Y0152188D01*
X0185772Y0152034D01*
X0185649Y0151883D01*
X0185523Y0151734D01*
X0185393Y0151589D01*
X0185259Y0151447D01*
X0185122Y0151309D01*
X0184982Y0151174D01*
X0184839Y0151042D01*
X0184692Y0150914D01*
X0184542Y0150789D01*
X0184389Y0150668D01*
X0184234Y0150551D01*
X0184075Y0150437D01*
X0183914Y0150328D01*
X0183750Y0150223D01*
X0183584Y0150121D01*
X0183415Y0150024D01*
X0183244Y0149930D01*
X0183071Y0149841D01*
X0182896Y0149756D01*
X0182718Y0149676D01*
X0182539Y0149600D01*
X0182358Y0149528D01*
X0182175Y0149460D01*
X0181991Y0149398D01*
X0181805Y0149339D01*
X0181618Y0149285D01*
X0181429Y0149236D01*
X0181239Y0149191D01*
X0181049Y0149151D01*
X0180857Y0149116D01*
X0180665Y0149085D01*
X0180472Y0149059D01*
X0180278Y0149038D01*
X0180084Y0149021D01*
X0179890Y0149009D01*
X0179695Y0149002D01*
X0179500Y0149000D01*
X0170200Y0153000D02*
X0170200Y0157000D01*
X0170200Y0161000D01*
X0168800Y0161000D02*
X0166300Y0161000D01*
X0166300Y0153000D01*
X0168800Y0153000D01*
X0168800Y0161000D01*
X0164800Y0161000D02*
X0164800Y0157000D01*
X0162000Y0157000D01*
X0164800Y0157000D02*
X0164800Y0153000D01*
X0170200Y0157000D02*
X0173000Y0157000D01*
X0118000Y0137200D02*
X0118000Y0114800D01*
X0079500Y0121000D02*
X0079503Y0121270D01*
X0079513Y0121540D01*
X0079530Y0121809D01*
X0079553Y0122078D01*
X0079583Y0122347D01*
X0079619Y0122614D01*
X0079662Y0122881D01*
X0079711Y0123146D01*
X0079767Y0123410D01*
X0079830Y0123673D01*
X0079898Y0123934D01*
X0079974Y0124193D01*
X0080055Y0124450D01*
X0080143Y0124706D01*
X0080237Y0124959D01*
X0080337Y0125210D01*
X0080444Y0125458D01*
X0080556Y0125703D01*
X0080675Y0125946D01*
X0080799Y0126185D01*
X0080929Y0126422D01*
X0081065Y0126655D01*
X0081207Y0126885D01*
X0081354Y0127111D01*
X0081507Y0127334D01*
X0081665Y0127553D01*
X0081828Y0127768D01*
X0081997Y0127978D01*
X0082171Y0128185D01*
X0082350Y0128387D01*
X0082533Y0128585D01*
X0082722Y0128778D01*
X0082915Y0128967D01*
X0083113Y0129150D01*
X0083315Y0129329D01*
X0083522Y0129503D01*
X0083732Y0129672D01*
X0083947Y0129835D01*
X0084166Y0129993D01*
X0084389Y0130146D01*
X0084615Y0130293D01*
X0084845Y0130435D01*
X0085078Y0130571D01*
X0085315Y0130701D01*
X0085554Y0130825D01*
X0085797Y0130944D01*
X0086042Y0131056D01*
X0086290Y0131163D01*
X0086541Y0131263D01*
X0086794Y0131357D01*
X0087050Y0131445D01*
X0087307Y0131526D01*
X0087566Y0131602D01*
X0087827Y0131670D01*
X0088090Y0131733D01*
X0088354Y0131789D01*
X0088619Y0131838D01*
X0088886Y0131881D01*
X0089153Y0131917D01*
X0089422Y0131947D01*
X0089691Y0131970D01*
X0089960Y0131987D01*
X0090230Y0131997D01*
X0090500Y0132000D01*
X0090770Y0131997D01*
X0091040Y0131987D01*
X0091309Y0131970D01*
X0091578Y0131947D01*
X0091847Y0131917D01*
X0092114Y0131881D01*
X0092381Y0131838D01*
X0092646Y0131789D01*
X0092910Y0131733D01*
X0093173Y0131670D01*
X0093434Y0131602D01*
X0093693Y0131526D01*
X0093950Y0131445D01*
X0094206Y0131357D01*
X0094459Y0131263D01*
X0094710Y0131163D01*
X0094958Y0131056D01*
X0095203Y0130944D01*
X0095446Y0130825D01*
X0095685Y0130701D01*
X0095922Y0130571D01*
X0096155Y0130435D01*
X0096385Y0130293D01*
X0096611Y0130146D01*
X0096834Y0129993D01*
X0097053Y0129835D01*
X0097268Y0129672D01*
X0097478Y0129503D01*
X0097685Y0129329D01*
X0097887Y0129150D01*
X0098085Y0128967D01*
X0098278Y0128778D01*
X0098467Y0128585D01*
X0098650Y0128387D01*
X0098829Y0128185D01*
X0099003Y0127978D01*
X0099172Y0127768D01*
X0099335Y0127553D01*
X0099493Y0127334D01*
X0099646Y0127111D01*
X0099793Y0126885D01*
X0099935Y0126655D01*
X0100071Y0126422D01*
X0100201Y0126185D01*
X0100325Y0125946D01*
X0100444Y0125703D01*
X0100556Y0125458D01*
X0100663Y0125210D01*
X0100763Y0124959D01*
X0100857Y0124706D01*
X0100945Y0124450D01*
X0101026Y0124193D01*
X0101102Y0123934D01*
X0101170Y0123673D01*
X0101233Y0123410D01*
X0101289Y0123146D01*
X0101338Y0122881D01*
X0101381Y0122614D01*
X0101417Y0122347D01*
X0101447Y0122078D01*
X0101470Y0121809D01*
X0101487Y0121540D01*
X0101497Y0121270D01*
X0101500Y0121000D01*
X0101497Y0120730D01*
X0101487Y0120460D01*
X0101470Y0120191D01*
X0101447Y0119922D01*
X0101417Y0119653D01*
X0101381Y0119386D01*
X0101338Y0119119D01*
X0101289Y0118854D01*
X0101233Y0118590D01*
X0101170Y0118327D01*
X0101102Y0118066D01*
X0101026Y0117807D01*
X0100945Y0117550D01*
X0100857Y0117294D01*
X0100763Y0117041D01*
X0100663Y0116790D01*
X0100556Y0116542D01*
X0100444Y0116297D01*
X0100325Y0116054D01*
X0100201Y0115815D01*
X0100071Y0115578D01*
X0099935Y0115345D01*
X0099793Y0115115D01*
X0099646Y0114889D01*
X0099493Y0114666D01*
X0099335Y0114447D01*
X0099172Y0114232D01*
X0099003Y0114022D01*
X0098829Y0113815D01*
X0098650Y0113613D01*
X0098467Y0113415D01*
X0098278Y0113222D01*
X0098085Y0113033D01*
X0097887Y0112850D01*
X0097685Y0112671D01*
X0097478Y0112497D01*
X0097268Y0112328D01*
X0097053Y0112165D01*
X0096834Y0112007D01*
X0096611Y0111854D01*
X0096385Y0111707D01*
X0096155Y0111565D01*
X0095922Y0111429D01*
X0095685Y0111299D01*
X0095446Y0111175D01*
X0095203Y0111056D01*
X0094958Y0110944D01*
X0094710Y0110837D01*
X0094459Y0110737D01*
X0094206Y0110643D01*
X0093950Y0110555D01*
X0093693Y0110474D01*
X0093434Y0110398D01*
X0093173Y0110330D01*
X0092910Y0110267D01*
X0092646Y0110211D01*
X0092381Y0110162D01*
X0092114Y0110119D01*
X0091847Y0110083D01*
X0091578Y0110053D01*
X0091309Y0110030D01*
X0091040Y0110013D01*
X0090770Y0110003D01*
X0090500Y0110000D01*
X0090230Y0110003D01*
X0089960Y0110013D01*
X0089691Y0110030D01*
X0089422Y0110053D01*
X0089153Y0110083D01*
X0088886Y0110119D01*
X0088619Y0110162D01*
X0088354Y0110211D01*
X0088090Y0110267D01*
X0087827Y0110330D01*
X0087566Y0110398D01*
X0087307Y0110474D01*
X0087050Y0110555D01*
X0086794Y0110643D01*
X0086541Y0110737D01*
X0086290Y0110837D01*
X0086042Y0110944D01*
X0085797Y0111056D01*
X0085554Y0111175D01*
X0085315Y0111299D01*
X0085078Y0111429D01*
X0084845Y0111565D01*
X0084615Y0111707D01*
X0084389Y0111854D01*
X0084166Y0112007D01*
X0083947Y0112165D01*
X0083732Y0112328D01*
X0083522Y0112497D01*
X0083315Y0112671D01*
X0083113Y0112850D01*
X0082915Y0113033D01*
X0082722Y0113222D01*
X0082533Y0113415D01*
X0082350Y0113613D01*
X0082171Y0113815D01*
X0081997Y0114022D01*
X0081828Y0114232D01*
X0081665Y0114447D01*
X0081507Y0114666D01*
X0081354Y0114889D01*
X0081207Y0115115D01*
X0081065Y0115345D01*
X0080929Y0115578D01*
X0080799Y0115815D01*
X0080675Y0116054D01*
X0080556Y0116297D01*
X0080444Y0116542D01*
X0080337Y0116790D01*
X0080237Y0117041D01*
X0080143Y0117294D01*
X0080055Y0117550D01*
X0079974Y0117807D01*
X0079898Y0118066D01*
X0079830Y0118327D01*
X0079767Y0118590D01*
X0079711Y0118854D01*
X0079662Y0119119D01*
X0079619Y0119386D01*
X0079583Y0119653D01*
X0079553Y0119922D01*
X0079530Y0120191D01*
X0079513Y0120460D01*
X0079503Y0120730D01*
X0079500Y0121000D01*
X0085500Y0116000D02*
X0085500Y0114500D01*
X0084000Y0114500D01*
X0085500Y0114500D02*
X0087000Y0114500D01*
X0085500Y0114500D02*
X0085500Y0113000D01*
X0079500Y0082000D02*
X0079503Y0082270D01*
X0079513Y0082540D01*
X0079530Y0082809D01*
X0079553Y0083078D01*
X0079583Y0083347D01*
X0079619Y0083614D01*
X0079662Y0083881D01*
X0079711Y0084146D01*
X0079767Y0084410D01*
X0079830Y0084673D01*
X0079898Y0084934D01*
X0079974Y0085193D01*
X0080055Y0085450D01*
X0080143Y0085706D01*
X0080237Y0085959D01*
X0080337Y0086210D01*
X0080444Y0086458D01*
X0080556Y0086703D01*
X0080675Y0086946D01*
X0080799Y0087185D01*
X0080929Y0087422D01*
X0081065Y0087655D01*
X0081207Y0087885D01*
X0081354Y0088111D01*
X0081507Y0088334D01*
X0081665Y0088553D01*
X0081828Y0088768D01*
X0081997Y0088978D01*
X0082171Y0089185D01*
X0082350Y0089387D01*
X0082533Y0089585D01*
X0082722Y0089778D01*
X0082915Y0089967D01*
X0083113Y0090150D01*
X0083315Y0090329D01*
X0083522Y0090503D01*
X0083732Y0090672D01*
X0083947Y0090835D01*
X0084166Y0090993D01*
X0084389Y0091146D01*
X0084615Y0091293D01*
X0084845Y0091435D01*
X0085078Y0091571D01*
X0085315Y0091701D01*
X0085554Y0091825D01*
X0085797Y0091944D01*
X0086042Y0092056D01*
X0086290Y0092163D01*
X0086541Y0092263D01*
X0086794Y0092357D01*
X0087050Y0092445D01*
X0087307Y0092526D01*
X0087566Y0092602D01*
X0087827Y0092670D01*
X0088090Y0092733D01*
X0088354Y0092789D01*
X0088619Y0092838D01*
X0088886Y0092881D01*
X0089153Y0092917D01*
X0089422Y0092947D01*
X0089691Y0092970D01*
X0089960Y0092987D01*
X0090230Y0092997D01*
X0090500Y0093000D01*
X0090770Y0092997D01*
X0091040Y0092987D01*
X0091309Y0092970D01*
X0091578Y0092947D01*
X0091847Y0092917D01*
X0092114Y0092881D01*
X0092381Y0092838D01*
X0092646Y0092789D01*
X0092910Y0092733D01*
X0093173Y0092670D01*
X0093434Y0092602D01*
X0093693Y0092526D01*
X0093950Y0092445D01*
X0094206Y0092357D01*
X0094459Y0092263D01*
X0094710Y0092163D01*
X0094958Y0092056D01*
X0095203Y0091944D01*
X0095446Y0091825D01*
X0095685Y0091701D01*
X0095922Y0091571D01*
X0096155Y0091435D01*
X0096385Y0091293D01*
X0096611Y0091146D01*
X0096834Y0090993D01*
X0097053Y0090835D01*
X0097268Y0090672D01*
X0097478Y0090503D01*
X0097685Y0090329D01*
X0097887Y0090150D01*
X0098085Y0089967D01*
X0098278Y0089778D01*
X0098467Y0089585D01*
X0098650Y0089387D01*
X0098829Y0089185D01*
X0099003Y0088978D01*
X0099172Y0088768D01*
X0099335Y0088553D01*
X0099493Y0088334D01*
X0099646Y0088111D01*
X0099793Y0087885D01*
X0099935Y0087655D01*
X0100071Y0087422D01*
X0100201Y0087185D01*
X0100325Y0086946D01*
X0100444Y0086703D01*
X0100556Y0086458D01*
X0100663Y0086210D01*
X0100763Y0085959D01*
X0100857Y0085706D01*
X0100945Y0085450D01*
X0101026Y0085193D01*
X0101102Y0084934D01*
X0101170Y0084673D01*
X0101233Y0084410D01*
X0101289Y0084146D01*
X0101338Y0083881D01*
X0101381Y0083614D01*
X0101417Y0083347D01*
X0101447Y0083078D01*
X0101470Y0082809D01*
X0101487Y0082540D01*
X0101497Y0082270D01*
X0101500Y0082000D01*
X0101497Y0081730D01*
X0101487Y0081460D01*
X0101470Y0081191D01*
X0101447Y0080922D01*
X0101417Y0080653D01*
X0101381Y0080386D01*
X0101338Y0080119D01*
X0101289Y0079854D01*
X0101233Y0079590D01*
X0101170Y0079327D01*
X0101102Y0079066D01*
X0101026Y0078807D01*
X0100945Y0078550D01*
X0100857Y0078294D01*
X0100763Y0078041D01*
X0100663Y0077790D01*
X0100556Y0077542D01*
X0100444Y0077297D01*
X0100325Y0077054D01*
X0100201Y0076815D01*
X0100071Y0076578D01*
X0099935Y0076345D01*
X0099793Y0076115D01*
X0099646Y0075889D01*
X0099493Y0075666D01*
X0099335Y0075447D01*
X0099172Y0075232D01*
X0099003Y0075022D01*
X0098829Y0074815D01*
X0098650Y0074613D01*
X0098467Y0074415D01*
X0098278Y0074222D01*
X0098085Y0074033D01*
X0097887Y0073850D01*
X0097685Y0073671D01*
X0097478Y0073497D01*
X0097268Y0073328D01*
X0097053Y0073165D01*
X0096834Y0073007D01*
X0096611Y0072854D01*
X0096385Y0072707D01*
X0096155Y0072565D01*
X0095922Y0072429D01*
X0095685Y0072299D01*
X0095446Y0072175D01*
X0095203Y0072056D01*
X0094958Y0071944D01*
X0094710Y0071837D01*
X0094459Y0071737D01*
X0094206Y0071643D01*
X0093950Y0071555D01*
X0093693Y0071474D01*
X0093434Y0071398D01*
X0093173Y0071330D01*
X0092910Y0071267D01*
X0092646Y0071211D01*
X0092381Y0071162D01*
X0092114Y0071119D01*
X0091847Y0071083D01*
X0091578Y0071053D01*
X0091309Y0071030D01*
X0091040Y0071013D01*
X0090770Y0071003D01*
X0090500Y0071000D01*
X0090230Y0071003D01*
X0089960Y0071013D01*
X0089691Y0071030D01*
X0089422Y0071053D01*
X0089153Y0071083D01*
X0088886Y0071119D01*
X0088619Y0071162D01*
X0088354Y0071211D01*
X0088090Y0071267D01*
X0087827Y0071330D01*
X0087566Y0071398D01*
X0087307Y0071474D01*
X0087050Y0071555D01*
X0086794Y0071643D01*
X0086541Y0071737D01*
X0086290Y0071837D01*
X0086042Y0071944D01*
X0085797Y0072056D01*
X0085554Y0072175D01*
X0085315Y0072299D01*
X0085078Y0072429D01*
X0084845Y0072565D01*
X0084615Y0072707D01*
X0084389Y0072854D01*
X0084166Y0073007D01*
X0083947Y0073165D01*
X0083732Y0073328D01*
X0083522Y0073497D01*
X0083315Y0073671D01*
X0083113Y0073850D01*
X0082915Y0074033D01*
X0082722Y0074222D01*
X0082533Y0074415D01*
X0082350Y0074613D01*
X0082171Y0074815D01*
X0081997Y0075022D01*
X0081828Y0075232D01*
X0081665Y0075447D01*
X0081507Y0075666D01*
X0081354Y0075889D01*
X0081207Y0076115D01*
X0081065Y0076345D01*
X0080929Y0076578D01*
X0080799Y0076815D01*
X0080675Y0077054D01*
X0080556Y0077297D01*
X0080444Y0077542D01*
X0080337Y0077790D01*
X0080237Y0078041D01*
X0080143Y0078294D01*
X0080055Y0078550D01*
X0079974Y0078807D01*
X0079898Y0079066D01*
X0079830Y0079327D01*
X0079767Y0079590D01*
X0079711Y0079854D01*
X0079662Y0080119D01*
X0079619Y0080386D01*
X0079583Y0080653D01*
X0079553Y0080922D01*
X0079530Y0081191D01*
X0079513Y0081460D01*
X0079503Y0081730D01*
X0079500Y0082000D01*
X0085500Y0077000D02*
X0085500Y0075500D01*
X0084000Y0075500D01*
X0085500Y0075500D02*
X0087000Y0075500D01*
X0085500Y0075500D02*
X0085500Y0074000D01*
X0109000Y0024000D02*
X0114000Y0024000D01*
X0116500Y0021500D01*
X0116500Y0006500D01*
X0119000Y0004000D01*
X0124000Y0004000D01*
X0126500Y0006500D01*
X0126500Y0021500D01*
X0129000Y0024000D01*
X0134000Y0024000D01*
X0136500Y0021500D01*
X0136500Y0006500D01*
X0139000Y0004000D01*
X0144000Y0004000D01*
X0146500Y0006500D01*
X0146500Y0021500D01*
X0149000Y0024000D01*
X0154000Y0024000D01*
X0156500Y0021500D01*
X0159000Y0024000D01*
X0164000Y0024000D01*
X0166500Y0021500D01*
X0169000Y0024000D01*
X0174000Y0024000D01*
X0176500Y0021500D01*
X0176500Y0006500D01*
X0179000Y0004000D01*
X0184000Y0004000D01*
X0186500Y0006500D01*
X0189000Y0004000D01*
X0194000Y0004000D01*
X0196500Y0006500D01*
X0196500Y0021500D01*
X0194000Y0024000D01*
X0189000Y0024000D01*
X0186500Y0021500D01*
X0186500Y0006500D01*
X0196500Y0006500D02*
X0196500Y0021500D01*
X0199000Y0024000D01*
X0204000Y0024000D01*
X0206500Y0021500D01*
X0206500Y0006500D01*
X0209000Y0004000D01*
X0214000Y0004000D01*
X0216500Y0006500D01*
X0216500Y0021500D01*
X0219000Y0024000D01*
X0224000Y0024000D01*
X0226500Y0021500D01*
X0226500Y0006500D01*
X0229000Y0004000D01*
X0234000Y0004000D01*
X0236500Y0006500D01*
X0236500Y0021500D01*
X0239000Y0024000D01*
X0244000Y0024000D01*
X0246500Y0021500D01*
X0249000Y0024000D01*
X0254000Y0024000D01*
X0256500Y0021500D01*
X0256500Y0006500D01*
X0254000Y0004000D01*
X0249000Y0004000D01*
X0246500Y0006500D01*
X0246500Y0021500D01*
X0236500Y0021500D02*
X0234000Y0024000D01*
X0229000Y0024000D01*
X0226500Y0021500D01*
X0216500Y0021500D02*
X0214000Y0024000D01*
X0209000Y0024000D01*
X0206500Y0021500D01*
X0186500Y0021500D02*
X0184000Y0024000D01*
X0179000Y0024000D01*
X0176500Y0021500D01*
X0166500Y0021500D02*
X0166500Y0006500D01*
X0169000Y0004000D01*
X0174000Y0004000D01*
X0176500Y0006500D01*
X0166500Y0006500D02*
X0164000Y0004000D01*
X0159000Y0004000D01*
X0156500Y0006500D01*
X0156500Y0021500D01*
X0166500Y0021500D02*
X0166500Y0006500D01*
X0156500Y0006500D02*
X0154000Y0004000D01*
X0149000Y0004000D01*
X0146500Y0006500D01*
X0136500Y0006500D02*
X0134000Y0004000D01*
X0129000Y0004000D01*
X0126500Y0006500D01*
X0116500Y0006500D02*
X0114000Y0004000D01*
X0109000Y0004000D01*
X0106500Y0006500D01*
X0106500Y0021500D01*
X0109000Y0024000D01*
X0116500Y0021500D02*
X0119000Y0024000D01*
X0124000Y0024000D01*
X0126500Y0021500D01*
X0136500Y0021500D02*
X0139000Y0024000D01*
X0144000Y0024000D01*
X0146500Y0021500D01*
X0196500Y0006500D02*
X0199000Y0004000D01*
X0204000Y0004000D01*
X0206500Y0006500D01*
X0216500Y0006500D02*
X0219000Y0004000D01*
X0224000Y0004000D01*
X0226500Y0006500D01*
X0236500Y0006500D02*
X0239000Y0004000D01*
X0244000Y0004000D01*
X0246500Y0006500D01*
X0266500Y0006500D02*
X0266500Y0021500D01*
X0269000Y0024000D01*
X0274000Y0024000D01*
X0276500Y0021500D01*
X0276500Y0006500D01*
X0279000Y0004000D01*
X0284000Y0004000D01*
X0286500Y0006500D01*
X0286500Y0021500D01*
X0289000Y0024000D01*
X0294000Y0024000D01*
X0296500Y0021500D01*
X0296500Y0006500D01*
X0299000Y0004000D01*
X0304000Y0004000D01*
X0306500Y0006500D01*
X0306500Y0021500D01*
X0309000Y0024000D01*
X0314000Y0024000D01*
X0316500Y0021500D01*
X0316500Y0006500D01*
X0319000Y0004000D01*
X0324000Y0004000D01*
X0326500Y0006500D01*
X0329000Y0004000D01*
X0334000Y0004000D01*
X0336500Y0006500D01*
X0336500Y0021500D01*
X0334000Y0024000D01*
X0329000Y0024000D01*
X0326500Y0021500D01*
X0326500Y0006500D01*
X0316500Y0006500D02*
X0314000Y0004000D01*
X0309000Y0004000D01*
X0306500Y0006500D01*
X0296500Y0006500D02*
X0294000Y0004000D01*
X0289000Y0004000D01*
X0286500Y0006500D01*
X0276500Y0006500D02*
X0274000Y0004000D01*
X0269000Y0004000D01*
X0266500Y0006500D01*
X0276500Y0021500D02*
X0279000Y0024000D01*
X0284000Y0024000D01*
X0286500Y0021500D01*
X0296500Y0021500D02*
X0299000Y0024000D01*
X0304000Y0024000D01*
X0306500Y0021500D01*
X0316500Y0021500D02*
X0319000Y0024000D01*
X0324000Y0024000D01*
X0326500Y0021500D01*
X0079500Y0169000D02*
X0079503Y0169270D01*
X0079513Y0169540D01*
X0079530Y0169809D01*
X0079553Y0170078D01*
X0079583Y0170347D01*
X0079619Y0170614D01*
X0079662Y0170881D01*
X0079711Y0171146D01*
X0079767Y0171410D01*
X0079830Y0171673D01*
X0079898Y0171934D01*
X0079974Y0172193D01*
X0080055Y0172450D01*
X0080143Y0172706D01*
X0080237Y0172959D01*
X0080337Y0173210D01*
X0080444Y0173458D01*
X0080556Y0173703D01*
X0080675Y0173946D01*
X0080799Y0174185D01*
X0080929Y0174422D01*
X0081065Y0174655D01*
X0081207Y0174885D01*
X0081354Y0175111D01*
X0081507Y0175334D01*
X0081665Y0175553D01*
X0081828Y0175768D01*
X0081997Y0175978D01*
X0082171Y0176185D01*
X0082350Y0176387D01*
X0082533Y0176585D01*
X0082722Y0176778D01*
X0082915Y0176967D01*
X0083113Y0177150D01*
X0083315Y0177329D01*
X0083522Y0177503D01*
X0083732Y0177672D01*
X0083947Y0177835D01*
X0084166Y0177993D01*
X0084389Y0178146D01*
X0084615Y0178293D01*
X0084845Y0178435D01*
X0085078Y0178571D01*
X0085315Y0178701D01*
X0085554Y0178825D01*
X0085797Y0178944D01*
X0086042Y0179056D01*
X0086290Y0179163D01*
X0086541Y0179263D01*
X0086794Y0179357D01*
X0087050Y0179445D01*
X0087307Y0179526D01*
X0087566Y0179602D01*
X0087827Y0179670D01*
X0088090Y0179733D01*
X0088354Y0179789D01*
X0088619Y0179838D01*
X0088886Y0179881D01*
X0089153Y0179917D01*
X0089422Y0179947D01*
X0089691Y0179970D01*
X0089960Y0179987D01*
X0090230Y0179997D01*
X0090500Y0180000D01*
X0090770Y0179997D01*
X0091040Y0179987D01*
X0091309Y0179970D01*
X0091578Y0179947D01*
X0091847Y0179917D01*
X0092114Y0179881D01*
X0092381Y0179838D01*
X0092646Y0179789D01*
X0092910Y0179733D01*
X0093173Y0179670D01*
X0093434Y0179602D01*
X0093693Y0179526D01*
X0093950Y0179445D01*
X0094206Y0179357D01*
X0094459Y0179263D01*
X0094710Y0179163D01*
X0094958Y0179056D01*
X0095203Y0178944D01*
X0095446Y0178825D01*
X0095685Y0178701D01*
X0095922Y0178571D01*
X0096155Y0178435D01*
X0096385Y0178293D01*
X0096611Y0178146D01*
X0096834Y0177993D01*
X0097053Y0177835D01*
X0097268Y0177672D01*
X0097478Y0177503D01*
X0097685Y0177329D01*
X0097887Y0177150D01*
X0098085Y0176967D01*
X0098278Y0176778D01*
X0098467Y0176585D01*
X0098650Y0176387D01*
X0098829Y0176185D01*
X0099003Y0175978D01*
X0099172Y0175768D01*
X0099335Y0175553D01*
X0099493Y0175334D01*
X0099646Y0175111D01*
X0099793Y0174885D01*
X0099935Y0174655D01*
X0100071Y0174422D01*
X0100201Y0174185D01*
X0100325Y0173946D01*
X0100444Y0173703D01*
X0100556Y0173458D01*
X0100663Y0173210D01*
X0100763Y0172959D01*
X0100857Y0172706D01*
X0100945Y0172450D01*
X0101026Y0172193D01*
X0101102Y0171934D01*
X0101170Y0171673D01*
X0101233Y0171410D01*
X0101289Y0171146D01*
X0101338Y0170881D01*
X0101381Y0170614D01*
X0101417Y0170347D01*
X0101447Y0170078D01*
X0101470Y0169809D01*
X0101487Y0169540D01*
X0101497Y0169270D01*
X0101500Y0169000D01*
X0101497Y0168730D01*
X0101487Y0168460D01*
X0101470Y0168191D01*
X0101447Y0167922D01*
X0101417Y0167653D01*
X0101381Y0167386D01*
X0101338Y0167119D01*
X0101289Y0166854D01*
X0101233Y0166590D01*
X0101170Y0166327D01*
X0101102Y0166066D01*
X0101026Y0165807D01*
X0100945Y0165550D01*
X0100857Y0165294D01*
X0100763Y0165041D01*
X0100663Y0164790D01*
X0100556Y0164542D01*
X0100444Y0164297D01*
X0100325Y0164054D01*
X0100201Y0163815D01*
X0100071Y0163578D01*
X0099935Y0163345D01*
X0099793Y0163115D01*
X0099646Y0162889D01*
X0099493Y0162666D01*
X0099335Y0162447D01*
X0099172Y0162232D01*
X0099003Y0162022D01*
X0098829Y0161815D01*
X0098650Y0161613D01*
X0098467Y0161415D01*
X0098278Y0161222D01*
X0098085Y0161033D01*
X0097887Y0160850D01*
X0097685Y0160671D01*
X0097478Y0160497D01*
X0097268Y0160328D01*
X0097053Y0160165D01*
X0096834Y0160007D01*
X0096611Y0159854D01*
X0096385Y0159707D01*
X0096155Y0159565D01*
X0095922Y0159429D01*
X0095685Y0159299D01*
X0095446Y0159175D01*
X0095203Y0159056D01*
X0094958Y0158944D01*
X0094710Y0158837D01*
X0094459Y0158737D01*
X0094206Y0158643D01*
X0093950Y0158555D01*
X0093693Y0158474D01*
X0093434Y0158398D01*
X0093173Y0158330D01*
X0092910Y0158267D01*
X0092646Y0158211D01*
X0092381Y0158162D01*
X0092114Y0158119D01*
X0091847Y0158083D01*
X0091578Y0158053D01*
X0091309Y0158030D01*
X0091040Y0158013D01*
X0090770Y0158003D01*
X0090500Y0158000D01*
X0090230Y0158003D01*
X0089960Y0158013D01*
X0089691Y0158030D01*
X0089422Y0158053D01*
X0089153Y0158083D01*
X0088886Y0158119D01*
X0088619Y0158162D01*
X0088354Y0158211D01*
X0088090Y0158267D01*
X0087827Y0158330D01*
X0087566Y0158398D01*
X0087307Y0158474D01*
X0087050Y0158555D01*
X0086794Y0158643D01*
X0086541Y0158737D01*
X0086290Y0158837D01*
X0086042Y0158944D01*
X0085797Y0159056D01*
X0085554Y0159175D01*
X0085315Y0159299D01*
X0085078Y0159429D01*
X0084845Y0159565D01*
X0084615Y0159707D01*
X0084389Y0159854D01*
X0084166Y0160007D01*
X0083947Y0160165D01*
X0083732Y0160328D01*
X0083522Y0160497D01*
X0083315Y0160671D01*
X0083113Y0160850D01*
X0082915Y0161033D01*
X0082722Y0161222D01*
X0082533Y0161415D01*
X0082350Y0161613D01*
X0082171Y0161815D01*
X0081997Y0162022D01*
X0081828Y0162232D01*
X0081665Y0162447D01*
X0081507Y0162666D01*
X0081354Y0162889D01*
X0081207Y0163115D01*
X0081065Y0163345D01*
X0080929Y0163578D01*
X0080799Y0163815D01*
X0080675Y0164054D01*
X0080556Y0164297D01*
X0080444Y0164542D01*
X0080337Y0164790D01*
X0080237Y0165041D01*
X0080143Y0165294D01*
X0080055Y0165550D01*
X0079974Y0165807D01*
X0079898Y0166066D01*
X0079830Y0166327D01*
X0079767Y0166590D01*
X0079711Y0166854D01*
X0079662Y0167119D01*
X0079619Y0167386D01*
X0079583Y0167653D01*
X0079553Y0167922D01*
X0079530Y0168191D01*
X0079513Y0168460D01*
X0079503Y0168730D01*
X0079500Y0169000D01*
X0085500Y0164000D02*
X0085500Y0162500D01*
X0084000Y0162500D01*
X0085500Y0162500D02*
X0087000Y0162500D01*
X0085500Y0162500D02*
X0085500Y0161000D01*
X0047500Y0170000D02*
X0047500Y0150000D01*
X0009500Y0150000D01*
X0009500Y0170000D01*
X0047500Y0170000D01*
X0028500Y0181500D02*
X0026000Y0179000D01*
X0021000Y0179000D01*
X0018500Y0181500D01*
X0018500Y0186500D01*
X0021000Y0189000D01*
X0018500Y0191500D01*
X0018500Y0196500D01*
X0021000Y0199000D01*
X0026000Y0199000D01*
X0028500Y0196500D01*
X0028500Y0191500D01*
X0026000Y0189000D01*
X0028500Y0186500D01*
X0028500Y0181500D01*
X0026000Y0189000D02*
X0021000Y0189000D01*
X0082500Y0225500D02*
X0082500Y0229500D01*
X0082500Y0239000D01*
X0082500Y0242500D01*
X0090500Y0246000D02*
X0091500Y0246000D01*
X0091500Y0247000D01*
X0097500Y0247000D01*
X0097500Y0246000D01*
X0098500Y0246000D01*
X0106500Y0242500D02*
X0106500Y0239000D01*
X0106500Y0229000D01*
X0106500Y0225500D01*
X0098500Y0222000D02*
X0097500Y0222000D01*
X0097500Y0221000D01*
X0091500Y0221000D01*
X0091500Y0222000D01*
X0090500Y0222000D01*
X0093500Y0234000D02*
X0093502Y0234063D01*
X0093508Y0234125D01*
X0093518Y0234187D01*
X0093531Y0234249D01*
X0093549Y0234309D01*
X0093570Y0234368D01*
X0093595Y0234426D01*
X0093624Y0234482D01*
X0093656Y0234536D01*
X0093691Y0234588D01*
X0093729Y0234637D01*
X0093771Y0234685D01*
X0093815Y0234729D01*
X0093863Y0234771D01*
X0093912Y0234809D01*
X0093964Y0234844D01*
X0094018Y0234876D01*
X0094074Y0234905D01*
X0094132Y0234930D01*
X0094191Y0234951D01*
X0094251Y0234969D01*
X0094313Y0234982D01*
X0094375Y0234992D01*
X0094437Y0234998D01*
X0094500Y0235000D01*
X0094563Y0234998D01*
X0094625Y0234992D01*
X0094687Y0234982D01*
X0094749Y0234969D01*
X0094809Y0234951D01*
X0094868Y0234930D01*
X0094926Y0234905D01*
X0094982Y0234876D01*
X0095036Y0234844D01*
X0095088Y0234809D01*
X0095137Y0234771D01*
X0095185Y0234729D01*
X0095229Y0234685D01*
X0095271Y0234637D01*
X0095309Y0234588D01*
X0095344Y0234536D01*
X0095376Y0234482D01*
X0095405Y0234426D01*
X0095430Y0234368D01*
X0095451Y0234309D01*
X0095469Y0234249D01*
X0095482Y0234187D01*
X0095492Y0234125D01*
X0095498Y0234063D01*
X0095500Y0234000D01*
X0095498Y0233937D01*
X0095492Y0233875D01*
X0095482Y0233813D01*
X0095469Y0233751D01*
X0095451Y0233691D01*
X0095430Y0233632D01*
X0095405Y0233574D01*
X0095376Y0233518D01*
X0095344Y0233464D01*
X0095309Y0233412D01*
X0095271Y0233363D01*
X0095229Y0233315D01*
X0095185Y0233271D01*
X0095137Y0233229D01*
X0095088Y0233191D01*
X0095036Y0233156D01*
X0094982Y0233124D01*
X0094926Y0233095D01*
X0094868Y0233070D01*
X0094809Y0233049D01*
X0094749Y0233031D01*
X0094687Y0233018D01*
X0094625Y0233008D01*
X0094563Y0233002D01*
X0094500Y0233000D01*
X0094437Y0233002D01*
X0094375Y0233008D01*
X0094313Y0233018D01*
X0094251Y0233031D01*
X0094191Y0233049D01*
X0094132Y0233070D01*
X0094074Y0233095D01*
X0094018Y0233124D01*
X0093964Y0233156D01*
X0093912Y0233191D01*
X0093863Y0233229D01*
X0093815Y0233271D01*
X0093771Y0233315D01*
X0093729Y0233363D01*
X0093691Y0233412D01*
X0093656Y0233464D01*
X0093624Y0233518D01*
X0093595Y0233574D01*
X0093570Y0233632D01*
X0093549Y0233691D01*
X0093531Y0233751D01*
X0093518Y0233813D01*
X0093508Y0233875D01*
X0093502Y0233937D01*
X0093500Y0234000D01*
X0087500Y0234000D02*
X0087502Y0234172D01*
X0087508Y0234343D01*
X0087519Y0234515D01*
X0087534Y0234686D01*
X0087553Y0234857D01*
X0087576Y0235027D01*
X0087603Y0235197D01*
X0087635Y0235366D01*
X0087670Y0235534D01*
X0087710Y0235701D01*
X0087754Y0235867D01*
X0087801Y0236032D01*
X0087853Y0236196D01*
X0087909Y0236358D01*
X0087969Y0236519D01*
X0088033Y0236679D01*
X0088101Y0236837D01*
X0088172Y0236993D01*
X0088247Y0237147D01*
X0088327Y0237300D01*
X0088409Y0237450D01*
X0088496Y0237599D01*
X0088586Y0237745D01*
X0088680Y0237889D01*
X0088777Y0238031D01*
X0088878Y0238170D01*
X0088982Y0238307D01*
X0089089Y0238441D01*
X0089200Y0238572D01*
X0089313Y0238701D01*
X0089430Y0238827D01*
X0089550Y0238950D01*
X0089673Y0239070D01*
X0089799Y0239187D01*
X0089928Y0239300D01*
X0090059Y0239411D01*
X0090193Y0239518D01*
X0090330Y0239622D01*
X0090469Y0239723D01*
X0090611Y0239820D01*
X0090755Y0239914D01*
X0090901Y0240004D01*
X0091050Y0240091D01*
X0091200Y0240173D01*
X0091353Y0240253D01*
X0091507Y0240328D01*
X0091663Y0240399D01*
X0091821Y0240467D01*
X0091981Y0240531D01*
X0092142Y0240591D01*
X0092304Y0240647D01*
X0092468Y0240699D01*
X0092633Y0240746D01*
X0092799Y0240790D01*
X0092966Y0240830D01*
X0093134Y0240865D01*
X0093303Y0240897D01*
X0093473Y0240924D01*
X0093643Y0240947D01*
X0093814Y0240966D01*
X0093985Y0240981D01*
X0094157Y0240992D01*
X0094328Y0240998D01*
X0094500Y0241000D01*
X0094672Y0240998D01*
X0094843Y0240992D01*
X0095015Y0240981D01*
X0095186Y0240966D01*
X0095357Y0240947D01*
X0095527Y0240924D01*
X0095697Y0240897D01*
X0095866Y0240865D01*
X0096034Y0240830D01*
X0096201Y0240790D01*
X0096367Y0240746D01*
X0096532Y0240699D01*
X0096696Y0240647D01*
X0096858Y0240591D01*
X0097019Y0240531D01*
X0097179Y0240467D01*
X0097337Y0240399D01*
X0097493Y0240328D01*
X0097647Y0240253D01*
X0097800Y0240173D01*
X0097950Y0240091D01*
X0098099Y0240004D01*
X0098245Y0239914D01*
X0098389Y0239820D01*
X0098531Y0239723D01*
X0098670Y0239622D01*
X0098807Y0239518D01*
X0098941Y0239411D01*
X0099072Y0239300D01*
X0099201Y0239187D01*
X0099327Y0239070D01*
X0099450Y0238950D01*
X0099570Y0238827D01*
X0099687Y0238701D01*
X0099800Y0238572D01*
X0099911Y0238441D01*
X0100018Y0238307D01*
X0100122Y0238170D01*
X0100223Y0238031D01*
X0100320Y0237889D01*
X0100414Y0237745D01*
X0100504Y0237599D01*
X0100591Y0237450D01*
X0100673Y0237300D01*
X0100753Y0237147D01*
X0100828Y0236993D01*
X0100899Y0236837D01*
X0100967Y0236679D01*
X0101031Y0236519D01*
X0101091Y0236358D01*
X0101147Y0236196D01*
X0101199Y0236032D01*
X0101246Y0235867D01*
X0101290Y0235701D01*
X0101330Y0235534D01*
X0101365Y0235366D01*
X0101397Y0235197D01*
X0101424Y0235027D01*
X0101447Y0234857D01*
X0101466Y0234686D01*
X0101481Y0234515D01*
X0101492Y0234343D01*
X0101498Y0234172D01*
X0101500Y0234000D01*
X0101498Y0233828D01*
X0101492Y0233657D01*
X0101481Y0233485D01*
X0101466Y0233314D01*
X0101447Y0233143D01*
X0101424Y0232973D01*
X0101397Y0232803D01*
X0101365Y0232634D01*
X0101330Y0232466D01*
X0101290Y0232299D01*
X0101246Y0232133D01*
X0101199Y0231968D01*
X0101147Y0231804D01*
X0101091Y0231642D01*
X0101031Y0231481D01*
X0100967Y0231321D01*
X0100899Y0231163D01*
X0100828Y0231007D01*
X0100753Y0230853D01*
X0100673Y0230700D01*
X0100591Y0230550D01*
X0100504Y0230401D01*
X0100414Y0230255D01*
X0100320Y0230111D01*
X0100223Y0229969D01*
X0100122Y0229830D01*
X0100018Y0229693D01*
X0099911Y0229559D01*
X0099800Y0229428D01*
X0099687Y0229299D01*
X0099570Y0229173D01*
X0099450Y0229050D01*
X0099327Y0228930D01*
X0099201Y0228813D01*
X0099072Y0228700D01*
X0098941Y0228589D01*
X0098807Y0228482D01*
X0098670Y0228378D01*
X0098531Y0228277D01*
X0098389Y0228180D01*
X0098245Y0228086D01*
X0098099Y0227996D01*
X0097950Y0227909D01*
X0097800Y0227827D01*
X0097647Y0227747D01*
X0097493Y0227672D01*
X0097337Y0227601D01*
X0097179Y0227533D01*
X0097019Y0227469D01*
X0096858Y0227409D01*
X0096696Y0227353D01*
X0096532Y0227301D01*
X0096367Y0227254D01*
X0096201Y0227210D01*
X0096034Y0227170D01*
X0095866Y0227135D01*
X0095697Y0227103D01*
X0095527Y0227076D01*
X0095357Y0227053D01*
X0095186Y0227034D01*
X0095015Y0227019D01*
X0094843Y0227008D01*
X0094672Y0227002D01*
X0094500Y0227000D01*
X0094328Y0227002D01*
X0094157Y0227008D01*
X0093985Y0227019D01*
X0093814Y0227034D01*
X0093643Y0227053D01*
X0093473Y0227076D01*
X0093303Y0227103D01*
X0093134Y0227135D01*
X0092966Y0227170D01*
X0092799Y0227210D01*
X0092633Y0227254D01*
X0092468Y0227301D01*
X0092304Y0227353D01*
X0092142Y0227409D01*
X0091981Y0227469D01*
X0091821Y0227533D01*
X0091663Y0227601D01*
X0091507Y0227672D01*
X0091353Y0227747D01*
X0091200Y0227827D01*
X0091050Y0227909D01*
X0090901Y0227996D01*
X0090755Y0228086D01*
X0090611Y0228180D01*
X0090469Y0228277D01*
X0090330Y0228378D01*
X0090193Y0228482D01*
X0090059Y0228589D01*
X0089928Y0228700D01*
X0089799Y0228813D01*
X0089673Y0228930D01*
X0089550Y0229050D01*
X0089430Y0229173D01*
X0089313Y0229299D01*
X0089200Y0229428D01*
X0089089Y0229559D01*
X0088982Y0229693D01*
X0088878Y0229830D01*
X0088777Y0229969D01*
X0088680Y0230111D01*
X0088586Y0230255D01*
X0088496Y0230401D01*
X0088409Y0230550D01*
X0088327Y0230700D01*
X0088247Y0230853D01*
X0088172Y0231007D01*
X0088101Y0231163D01*
X0088033Y0231321D01*
X0087969Y0231481D01*
X0087909Y0231642D01*
X0087853Y0231804D01*
X0087801Y0231968D01*
X0087754Y0232133D01*
X0087710Y0232299D01*
X0087670Y0232466D01*
X0087635Y0232634D01*
X0087603Y0232803D01*
X0087576Y0232973D01*
X0087553Y0233143D01*
X0087534Y0233314D01*
X0087519Y0233485D01*
X0087508Y0233657D01*
X0087502Y0233828D01*
X0087500Y0234000D01*
X0166500Y0236500D02*
X0166500Y0251500D01*
X0169000Y0254000D01*
X0174000Y0254000D01*
X0176500Y0251500D01*
X0176500Y0236500D01*
X0174000Y0234000D01*
X0169000Y0234000D01*
X0166500Y0236500D01*
X0176500Y0236500D02*
X0179000Y0234000D01*
X0184000Y0234000D01*
X0186500Y0236500D01*
X0186500Y0251500D01*
X0184000Y0254000D01*
X0179000Y0254000D01*
X0176500Y0251500D01*
X0186500Y0251500D02*
X0189000Y0254000D01*
X0194000Y0254000D01*
X0196500Y0251500D01*
X0196500Y0236500D01*
X0194000Y0234000D01*
X0189000Y0234000D01*
X0186500Y0236500D01*
X0196500Y0236500D02*
X0199000Y0234000D01*
X0204000Y0234000D01*
X0206500Y0236500D01*
X0206500Y0251500D01*
X0204000Y0254000D01*
X0199000Y0254000D01*
X0196500Y0251500D01*
X0206500Y0251500D02*
X0209000Y0254000D01*
X0214000Y0254000D01*
X0216500Y0251500D01*
X0216500Y0236500D01*
X0214000Y0234000D01*
X0209000Y0234000D01*
X0206500Y0236500D01*
X0216500Y0236500D02*
X0219000Y0234000D01*
X0224000Y0234000D01*
X0226500Y0236500D01*
X0226500Y0251500D01*
X0224000Y0254000D01*
X0219000Y0254000D01*
X0216500Y0251500D01*
X0226500Y0251500D02*
X0229000Y0254000D01*
X0234000Y0254000D01*
X0236500Y0251500D01*
X0236500Y0236500D01*
X0234000Y0234000D01*
X0229000Y0234000D01*
X0226500Y0236500D01*
X0236500Y0236500D02*
X0239000Y0234000D01*
X0244000Y0234000D01*
X0246500Y0236500D01*
X0246500Y0251500D01*
X0244000Y0254000D01*
X0239000Y0254000D01*
X0236500Y0251500D01*
D43*
X0256834Y0143150D02*
X0259970Y0140014D01*
X0259970Y0141582D02*
X0256834Y0141582D01*
X0256834Y0140014D02*
X0259970Y0143150D01*
X0258402Y0143150D02*
X0258402Y0140014D01*
D44*
X0042217Y0008236D02*
X0006783Y0008236D01*
X0006783Y0039339D01*
X0012689Y0039339D01*
X0012689Y0056661D01*
X0006783Y0056661D01*
X0006783Y0087764D01*
X0041823Y0087764D01*
X0042217Y0087764D02*
X0042217Y0008236D01*
X0006783Y0039339D02*
X0006783Y0056661D01*
X0013575Y0065500D02*
X0013575Y0070500D01*
X0018000Y0091100D02*
X0018000Y0116900D01*
X0031000Y0116900D01*
X0031000Y0091100D01*
X0018000Y0091100D01*
X0015400Y0120100D02*
X0039000Y0120098D01*
X0039000Y0145902D01*
X0015400Y0145900D01*
X0017311Y0216283D02*
X0017311Y0251717D01*
X0059437Y0251717D01*
X0059437Y0243449D01*
X0059437Y0224551D02*
X0059437Y0216283D01*
X0056681Y0216283D01*
X0038177Y0216283D02*
X0017311Y0216283D01*
X0146500Y0127438D02*
X0148969Y0129906D01*
X0151438Y0127438D01*
X0151438Y0122500D01*
X0151438Y0126203D02*
X0146500Y0126203D01*
X0146500Y0127438D02*
X0146500Y0122500D01*
X0156519Y0122500D02*
X0156519Y0129906D01*
X0154050Y0129906D02*
X0158988Y0129906D01*
X0161601Y0129906D02*
X0164070Y0127438D01*
X0166538Y0129906D01*
X0166538Y0122500D01*
X0169151Y0122500D02*
X0174089Y0122500D01*
X0176702Y0123734D02*
X0177936Y0122500D01*
X0180405Y0122500D01*
X0181639Y0123734D01*
X0181639Y0126203D01*
X0179171Y0126203D01*
X0181639Y0128672D02*
X0180405Y0129906D01*
X0177936Y0129906D01*
X0176702Y0128672D01*
X0176702Y0123734D01*
X0171620Y0126203D02*
X0169151Y0126203D01*
X0169151Y0129906D02*
X0169151Y0122500D01*
X0161601Y0122500D02*
X0161601Y0129906D01*
X0169151Y0129906D02*
X0174089Y0129906D01*
X0184252Y0127438D02*
X0184252Y0122500D01*
X0184252Y0126203D02*
X0189190Y0126203D01*
X0189190Y0127438D02*
X0189190Y0122500D01*
X0191803Y0123734D02*
X0193037Y0122500D01*
X0195506Y0122500D01*
X0196740Y0123734D01*
X0196740Y0124969D01*
X0195506Y0126203D01*
X0194271Y0126203D01*
X0195506Y0126203D02*
X0196740Y0127438D01*
X0196740Y0128672D01*
X0195506Y0129906D01*
X0193037Y0129906D01*
X0191803Y0128672D01*
X0189190Y0127438D02*
X0186721Y0129906D01*
X0184252Y0127438D01*
X0199353Y0128672D02*
X0200587Y0129906D01*
X0203056Y0129906D01*
X0204291Y0128672D01*
X0204291Y0127438D01*
X0199353Y0122500D01*
X0204291Y0122500D01*
X0206904Y0123734D02*
X0206904Y0124969D01*
X0208138Y0126203D01*
X0210607Y0126203D01*
X0211841Y0124969D01*
X0211841Y0123734D01*
X0210607Y0122500D01*
X0208138Y0122500D01*
X0206904Y0123734D01*
X0208138Y0126203D02*
X0206904Y0127438D01*
X0206904Y0128672D01*
X0208138Y0129906D01*
X0210607Y0129906D01*
X0211841Y0128672D01*
X0211841Y0127438D01*
X0210607Y0126203D01*
X0214454Y0124969D02*
X0218157Y0124969D01*
X0219392Y0126203D01*
X0219392Y0128672D01*
X0218157Y0129906D01*
X0214454Y0129906D01*
X0214454Y0122500D01*
X0279000Y0234000D02*
X0284000Y0234000D01*
X0286500Y0236500D01*
X0289000Y0234000D01*
X0294000Y0234000D01*
X0296500Y0236500D01*
X0299000Y0234000D01*
X0304000Y0234000D01*
X0306500Y0236500D01*
X0309000Y0234000D01*
X0314000Y0234000D01*
X0316500Y0236500D01*
X0319000Y0234000D01*
X0324000Y0234000D01*
X0326500Y0236500D01*
X0329000Y0234000D01*
X0334000Y0234000D01*
X0336500Y0236500D01*
X0336500Y0241500D01*
X0334000Y0244000D01*
X0329000Y0244000D01*
X0326500Y0241500D01*
X0324000Y0244000D01*
X0319000Y0244000D01*
X0316500Y0241500D01*
X0314000Y0244000D01*
X0309000Y0244000D01*
X0306500Y0241500D01*
X0304000Y0244000D01*
X0299000Y0244000D01*
X0296500Y0241500D01*
X0294000Y0244000D01*
X0289000Y0244000D01*
X0286500Y0241500D01*
X0284000Y0244000D01*
X0279000Y0244000D01*
X0276500Y0241500D01*
X0276500Y0236500D01*
X0279000Y0234000D01*
D45*
X0179500Y0167000D02*
X0155500Y0167000D01*
X0155256Y0166997D01*
X0155013Y0166988D01*
X0154770Y0166973D01*
X0154527Y0166953D01*
X0154285Y0166926D01*
X0154044Y0166893D01*
X0153804Y0166855D01*
X0153564Y0166811D01*
X0153326Y0166761D01*
X0153089Y0166705D01*
X0152853Y0166643D01*
X0152619Y0166576D01*
X0152387Y0166503D01*
X0152156Y0166424D01*
X0151928Y0166340D01*
X0151701Y0166250D01*
X0151477Y0166155D01*
X0151255Y0166054D01*
X0151036Y0165948D01*
X0150820Y0165837D01*
X0150606Y0165720D01*
X0150395Y0165599D01*
X0150187Y0165472D01*
X0149982Y0165340D01*
X0149781Y0165203D01*
X0149583Y0165061D01*
X0149388Y0164915D01*
X0149197Y0164764D01*
X0149010Y0164608D01*
X0148827Y0164448D01*
X0148647Y0164283D01*
X0148472Y0164114D01*
X0148301Y0163941D01*
X0148134Y0163763D01*
X0147972Y0163582D01*
X0147814Y0163397D01*
X0147660Y0163208D01*
X0147511Y0163015D01*
X0147367Y0162819D01*
X0147228Y0162619D01*
X0147093Y0162416D01*
X0146964Y0162209D01*
X0146840Y0162000D01*
X0146721Y0161788D01*
X0146607Y0161572D01*
X0146498Y0161355D01*
X0146395Y0161134D01*
X0146297Y0160911D01*
X0146204Y0160686D01*
X0146117Y0160458D01*
X0146036Y0160229D01*
X0145960Y0159997D01*
X0145890Y0159764D01*
X0145825Y0159529D01*
X0145766Y0159293D01*
X0145713Y0159055D01*
X0145666Y0158816D01*
X0145625Y0158576D01*
X0145590Y0158335D01*
X0145560Y0158094D01*
X0145536Y0157851D01*
X0145519Y0157608D01*
X0145507Y0157365D01*
X0145501Y0157122D01*
X0145501Y0156878D01*
X0145507Y0156635D01*
X0145519Y0156392D01*
X0145536Y0156149D01*
X0145560Y0155906D01*
X0145590Y0155665D01*
X0145625Y0155424D01*
X0145666Y0155184D01*
X0145713Y0154945D01*
X0145766Y0154707D01*
X0145825Y0154471D01*
X0145890Y0154236D01*
X0145960Y0154003D01*
X0146036Y0153771D01*
X0146117Y0153542D01*
X0146204Y0153314D01*
X0146297Y0153089D01*
X0146395Y0152866D01*
X0146498Y0152645D01*
X0146607Y0152428D01*
X0146721Y0152212D01*
X0146840Y0152000D01*
X0146964Y0151791D01*
X0147093Y0151584D01*
X0147228Y0151381D01*
X0147367Y0151181D01*
X0147511Y0150985D01*
X0147660Y0150792D01*
X0147814Y0150603D01*
X0147972Y0150418D01*
X0148134Y0150237D01*
X0148301Y0150059D01*
X0148472Y0149886D01*
X0148647Y0149717D01*
X0148827Y0149552D01*
X0149010Y0149392D01*
X0149197Y0149236D01*
X0149388Y0149085D01*
X0149583Y0148939D01*
X0149781Y0148797D01*
X0149982Y0148660D01*
X0150187Y0148528D01*
X0150395Y0148401D01*
X0150606Y0148280D01*
X0150820Y0148163D01*
X0151036Y0148052D01*
X0151255Y0147946D01*
X0151477Y0147845D01*
X0151701Y0147750D01*
X0151928Y0147660D01*
X0152156Y0147576D01*
X0152387Y0147497D01*
X0152619Y0147424D01*
X0152853Y0147357D01*
X0153089Y0147295D01*
X0153326Y0147239D01*
X0153564Y0147189D01*
X0153804Y0147145D01*
X0154044Y0147107D01*
X0154285Y0147074D01*
X0154527Y0147047D01*
X0154770Y0147027D01*
X0155013Y0147012D01*
X0155256Y0147003D01*
X0155500Y0147000D01*
X0179500Y0147000D01*
X0179744Y0147003D01*
X0179987Y0147012D01*
X0180230Y0147027D01*
X0180473Y0147047D01*
X0180715Y0147074D01*
X0180956Y0147107D01*
X0181196Y0147145D01*
X0181436Y0147189D01*
X0181674Y0147239D01*
X0181911Y0147295D01*
X0182147Y0147357D01*
X0182381Y0147424D01*
X0182613Y0147497D01*
X0182844Y0147576D01*
X0183072Y0147660D01*
X0183299Y0147750D01*
X0183523Y0147845D01*
X0183745Y0147946D01*
X0183964Y0148052D01*
X0184180Y0148163D01*
X0184394Y0148280D01*
X0184605Y0148401D01*
X0184813Y0148528D01*
X0185018Y0148660D01*
X0185219Y0148797D01*
X0185417Y0148939D01*
X0185612Y0149085D01*
X0185803Y0149236D01*
X0185990Y0149392D01*
X0186173Y0149552D01*
X0186353Y0149717D01*
X0186528Y0149886D01*
X0186699Y0150059D01*
X0186866Y0150237D01*
X0187028Y0150418D01*
X0187186Y0150603D01*
X0187340Y0150792D01*
X0187489Y0150985D01*
X0187633Y0151181D01*
X0187772Y0151381D01*
X0187907Y0151584D01*
X0188036Y0151791D01*
X0188160Y0152000D01*
X0188279Y0152212D01*
X0188393Y0152428D01*
X0188502Y0152645D01*
X0188605Y0152866D01*
X0188703Y0153089D01*
X0188796Y0153314D01*
X0188883Y0153542D01*
X0188964Y0153771D01*
X0189040Y0154003D01*
X0189110Y0154236D01*
X0189175Y0154471D01*
X0189234Y0154707D01*
X0189287Y0154945D01*
X0189334Y0155184D01*
X0189375Y0155424D01*
X0189410Y0155665D01*
X0189440Y0155906D01*
X0189464Y0156149D01*
X0189481Y0156392D01*
X0189493Y0156635D01*
X0189499Y0156878D01*
X0189499Y0157122D01*
X0189493Y0157365D01*
X0189481Y0157608D01*
X0189464Y0157851D01*
X0189440Y0158094D01*
X0189410Y0158335D01*
X0189375Y0158576D01*
X0189334Y0158816D01*
X0189287Y0159055D01*
X0189234Y0159293D01*
X0189175Y0159529D01*
X0189110Y0159764D01*
X0189040Y0159997D01*
X0188964Y0160229D01*
X0188883Y0160458D01*
X0188796Y0160686D01*
X0188703Y0160911D01*
X0188605Y0161134D01*
X0188502Y0161355D01*
X0188393Y0161572D01*
X0188279Y0161788D01*
X0188160Y0162000D01*
X0188036Y0162209D01*
X0187907Y0162416D01*
X0187772Y0162619D01*
X0187633Y0162819D01*
X0187489Y0163015D01*
X0187340Y0163208D01*
X0187186Y0163397D01*
X0187028Y0163582D01*
X0186866Y0163763D01*
X0186699Y0163941D01*
X0186528Y0164114D01*
X0186353Y0164283D01*
X0186173Y0164448D01*
X0185990Y0164608D01*
X0185803Y0164764D01*
X0185612Y0164915D01*
X0185417Y0165061D01*
X0185219Y0165203D01*
X0185018Y0165340D01*
X0184813Y0165472D01*
X0184605Y0165599D01*
X0184394Y0165720D01*
X0184180Y0165837D01*
X0183964Y0165948D01*
X0183745Y0166054D01*
X0183523Y0166155D01*
X0183299Y0166250D01*
X0183072Y0166340D01*
X0182844Y0166424D01*
X0182613Y0166503D01*
X0182381Y0166576D01*
X0182147Y0166643D01*
X0181911Y0166705D01*
X0181674Y0166761D01*
X0181436Y0166811D01*
X0181196Y0166855D01*
X0180956Y0166893D01*
X0180715Y0166926D01*
X0180473Y0166953D01*
X0180230Y0166973D01*
X0179987Y0166988D01*
X0179744Y0166997D01*
X0179500Y0167000D01*
D46*
X0106500Y0229000D02*
X0105500Y0229000D01*
X0105500Y0239000D01*
X0106500Y0239000D01*
X0083500Y0239000D02*
X0083500Y0229500D01*
X0082500Y0229500D01*
X0082500Y0239000D02*
X0083500Y0239000D01*
X0040000Y0155000D02*
X0040002Y0155099D01*
X0040008Y0155199D01*
X0040018Y0155298D01*
X0040032Y0155396D01*
X0040049Y0155494D01*
X0040071Y0155591D01*
X0040096Y0155687D01*
X0040125Y0155782D01*
X0040158Y0155876D01*
X0040195Y0155968D01*
X0040235Y0156059D01*
X0040279Y0156148D01*
X0040327Y0156236D01*
X0040378Y0156321D01*
X0040432Y0156404D01*
X0040489Y0156486D01*
X0040550Y0156564D01*
X0040614Y0156641D01*
X0040680Y0156714D01*
X0040750Y0156785D01*
X0040822Y0156853D01*
X0040897Y0156919D01*
X0040975Y0156981D01*
X0041055Y0157040D01*
X0041137Y0157096D01*
X0041221Y0157148D01*
X0041308Y0157197D01*
X0041396Y0157243D01*
X0041486Y0157285D01*
X0041578Y0157324D01*
X0041671Y0157359D01*
X0041765Y0157390D01*
X0041861Y0157417D01*
X0041958Y0157440D01*
X0042055Y0157460D01*
X0042153Y0157476D01*
X0042252Y0157488D01*
X0042351Y0157496D01*
X0042450Y0157500D01*
X0042550Y0157500D01*
X0042649Y0157496D01*
X0042748Y0157488D01*
X0042847Y0157476D01*
X0042945Y0157460D01*
X0043042Y0157440D01*
X0043139Y0157417D01*
X0043235Y0157390D01*
X0043329Y0157359D01*
X0043422Y0157324D01*
X0043514Y0157285D01*
X0043604Y0157243D01*
X0043692Y0157197D01*
X0043779Y0157148D01*
X0043863Y0157096D01*
X0043945Y0157040D01*
X0044025Y0156981D01*
X0044103Y0156919D01*
X0044178Y0156853D01*
X0044250Y0156785D01*
X0044320Y0156714D01*
X0044386Y0156641D01*
X0044450Y0156564D01*
X0044511Y0156486D01*
X0044568Y0156404D01*
X0044622Y0156321D01*
X0044673Y0156236D01*
X0044721Y0156148D01*
X0044765Y0156059D01*
X0044805Y0155968D01*
X0044842Y0155876D01*
X0044875Y0155782D01*
X0044904Y0155687D01*
X0044929Y0155591D01*
X0044951Y0155494D01*
X0044968Y0155396D01*
X0044982Y0155298D01*
X0044992Y0155199D01*
X0044998Y0155099D01*
X0045000Y0155000D01*
X0044998Y0154901D01*
X0044992Y0154801D01*
X0044982Y0154702D01*
X0044968Y0154604D01*
X0044951Y0154506D01*
X0044929Y0154409D01*
X0044904Y0154313D01*
X0044875Y0154218D01*
X0044842Y0154124D01*
X0044805Y0154032D01*
X0044765Y0153941D01*
X0044721Y0153852D01*
X0044673Y0153764D01*
X0044622Y0153679D01*
X0044568Y0153596D01*
X0044511Y0153514D01*
X0044450Y0153436D01*
X0044386Y0153359D01*
X0044320Y0153286D01*
X0044250Y0153215D01*
X0044178Y0153147D01*
X0044103Y0153081D01*
X0044025Y0153019D01*
X0043945Y0152960D01*
X0043863Y0152904D01*
X0043779Y0152852D01*
X0043692Y0152803D01*
X0043604Y0152757D01*
X0043514Y0152715D01*
X0043422Y0152676D01*
X0043329Y0152641D01*
X0043235Y0152610D01*
X0043139Y0152583D01*
X0043042Y0152560D01*
X0042945Y0152540D01*
X0042847Y0152524D01*
X0042748Y0152512D01*
X0042649Y0152504D01*
X0042550Y0152500D01*
X0042450Y0152500D01*
X0042351Y0152504D01*
X0042252Y0152512D01*
X0042153Y0152524D01*
X0042055Y0152540D01*
X0041958Y0152560D01*
X0041861Y0152583D01*
X0041765Y0152610D01*
X0041671Y0152641D01*
X0041578Y0152676D01*
X0041486Y0152715D01*
X0041396Y0152757D01*
X0041308Y0152803D01*
X0041221Y0152852D01*
X0041137Y0152904D01*
X0041055Y0152960D01*
X0040975Y0153019D01*
X0040897Y0153081D01*
X0040822Y0153147D01*
X0040750Y0153215D01*
X0040680Y0153286D01*
X0040614Y0153359D01*
X0040550Y0153436D01*
X0040489Y0153514D01*
X0040432Y0153596D01*
X0040378Y0153679D01*
X0040327Y0153764D01*
X0040279Y0153852D01*
X0040235Y0153941D01*
X0040195Y0154032D01*
X0040158Y0154124D01*
X0040125Y0154218D01*
X0040096Y0154313D01*
X0040071Y0154409D01*
X0040049Y0154506D01*
X0040032Y0154604D01*
X0040018Y0154702D01*
X0040008Y0154801D01*
X0040002Y0154901D01*
X0040000Y0155000D01*
D47*
X0040500Y0153000D02*
X0044500Y0157000D01*
D48*
X0040900Y0133000D03*
M02*
