%
M48
M72
T01C0.0197
T02C0.0320
T03C0.0400
T04C0.0440
T05C0.1102
T06C0.1180
%
T01
X3830Y3250
X5530Y3950
X7130Y3950
X7130Y2250
X6930Y1650
X5530Y2250
X5030Y6250
X4930Y10250
X5730Y13250
X8030Y13150
X10630Y14050
X11130Y14850
X10120Y11250
X10630Y10750
X17130Y4450
X14130Y3250
X27130Y4450
X29130Y3850
X28130Y13150
T02
X17680Y15550
X15780Y15550
X9030Y16250
X9030Y17250
X3830Y15850
X2830Y15850
X1830Y15850
X9030Y12650
X9030Y11650
X9030Y8550
X9030Y7550
T03
X1930Y2650
X2930Y2650
X2930Y3650
X1930Y3650
X1930Y4650
X2930Y4650
X2930Y5650
X1930Y5650
X1930Y6650
X2930Y6650
X11130Y1750
X12130Y1750
X13130Y1750
X14130Y1750
X15130Y1750
X16130Y1750
X17130Y1750
X18130Y1750
X19130Y1750
X20130Y1750
X21130Y1750
X22130Y1750
X23130Y1750
X24130Y1750
X25130Y1750
X27130Y1750
X28130Y1750
X29130Y1750
X30130Y1750
X31130Y1750
X32130Y1750
X33130Y1750
X24132Y18752
X23132Y18752
X22132Y18752
X21132Y18752
X20132Y18752
X19132Y18752
X18132Y18752
X17132Y18752
X16132Y18752
X15132Y18752
X14132Y18752
X13132Y18752
X12132Y18752
X11132Y18752
X10132Y18752
X9132Y18752
X8540Y21970
X10320Y21970
X10320Y24530
X8540Y24530
X2330Y19250
X2330Y18250
X17130Y23750
X18130Y23750
X19130Y23750
X20130Y23750
X21130Y23750
X22130Y23750
X23130Y23750
X24130Y23750
X28130Y23750
X29130Y23750
X30130Y23750
X31130Y23750
X32130Y23750
X33130Y23750
T04
X25130Y13950
X24130Y13950
X23130Y13950
X22130Y13950
X21130Y13950
X20130Y13950
X19130Y13950
X18130Y13950
X17130Y13950
X16130Y13950
X15130Y13950
X14130Y13950
X13130Y13950
X12130Y13950
X12130Y10950
X13130Y10950
X14130Y10950
X15130Y10950
X16130Y10950
X17130Y10950
X18130Y10950
X19130Y10950
X20130Y10950
X21130Y10950
X22130Y10950
X23130Y10950
X24130Y10950
X25130Y10950
T05
X36494Y6548
X36494Y18752
X6966Y18752
X6966Y6548
T06
X4743Y21400
X5924Y23250
X3561Y23250
M30
